G04 ---------------------------- Layer name :BOTTOM LAYER*
G04 EasyEDA v5.6.15, Sun, 19 Aug 2018 09:15:10 GMT*
G04 20d6072df84a40519853f38576b9eb16*
G04 Gerber Generator version 0.2*
G04 Scale: 100 percent, Rotated: No, Reflected: No *
G04 Dimensions in millimeters *
G04 leading zeros omitted , absolute positions ,3 integer and 3 decimal *
%FSLAX33Y33*%
%MOMM*%
G90*
G71D02*

%ADD11C,0.219989*%
%ADD12C,0.220000*%
%ADD13C,2.199996*%
%ADD14C,0.610006*%
%ADD17R,0.701040X0.899160*%
%ADD22R,3.499993X4.199992*%
%ADD24R,1.199998X1.999996*%
%ADD25R,1.999996X1.199998*%

%LPD*%
G36*
G01X10604Y0D02*
G01X10604Y3810D01*
G01X4000Y3926D01*
G01X4000Y3926D01*
G01X3910Y3927D01*
G01X3820Y3930D01*
G01X3730Y3935D01*
G01X3640Y3942D01*
G01X3550Y3951D01*
G01X3461Y3962D01*
G01X3372Y3975D01*
G01X3283Y3990D01*
G01X3194Y4008D01*
G01X3106Y4027D01*
G01X3018Y4048D01*
G01X2931Y4071D01*
G01X2845Y4096D01*
G01X2759Y4123D01*
G01X2673Y4152D01*
G01X2589Y4183D01*
G01X2505Y4216D01*
G01X2421Y4250D01*
G01X2339Y4287D01*
G01X2257Y4325D01*
G01X2177Y4365D01*
G01X2097Y4407D01*
G01X2018Y4451D01*
G01X1940Y4497D01*
G01X1864Y4544D01*
G01X1788Y4593D01*
G01X1713Y4644D01*
G01X1640Y4696D01*
G01X1568Y4750D01*
G01X1497Y4806D01*
G01X1427Y4863D01*
G01X1359Y4922D01*
G01X1292Y4982D01*
G01X1226Y5044D01*
G01X1162Y5107D01*
G01X1099Y5172D01*
G01X1038Y5238D01*
G01X978Y5305D01*
G01X920Y5374D01*
G01X863Y5444D01*
G01X808Y5515D01*
G01X754Y5588D01*
G01X702Y5662D01*
G01X652Y5736D01*
G01X604Y5812D01*
G01X557Y5890D01*
G01X512Y5968D01*
G01X469Y6047D01*
G01X427Y6127D01*
G01X388Y6208D01*
G01X350Y6290D01*
G01X314Y6372D01*
G01X280Y6456D01*
G01X248Y6540D01*
G01X217Y6625D01*
G01X189Y6710D01*
G01X163Y6797D01*
G01X138Y6883D01*
G01X116Y6971D01*
G01X95Y7059D01*
G01X77Y7147D01*
G01X60Y7235D01*
G01X45Y7324D01*
G01X33Y7414D01*
G01X22Y7503D01*
G01X14Y7593D01*
G01X7Y7683D01*
G01X3Y7773D01*
G01X0Y7863D01*
G01X0Y7926D01*
G01X0Y7924D01*
G01X0Y38925D01*
G01X0Y38926D01*
G01X1Y39016D01*
G01X4Y39106D01*
G01X9Y39196D01*
G01X16Y39286D01*
G01X25Y39375D01*
G01X37Y39465D01*
G01X50Y39554D01*
G01X65Y39643D01*
G01X82Y39731D01*
G01X101Y39819D01*
G01X122Y39907D01*
G01X145Y39994D01*
G01X170Y40081D01*
G01X197Y40167D01*
G01X226Y40252D01*
G01X257Y40337D01*
G01X290Y40421D01*
G01X325Y40504D01*
G01X361Y40587D01*
G01X400Y40668D01*
G01X440Y40749D01*
G01X482Y40829D01*
G01X526Y40907D01*
G01X571Y40985D01*
G01X618Y41062D01*
G01X667Y41138D01*
G01X718Y41212D01*
G01X770Y41286D01*
G01X824Y41358D01*
G01X880Y41429D01*
G01X937Y41498D01*
G01X996Y41567D01*
G01X1056Y41634D01*
G01X1118Y41699D01*
G01X1181Y41764D01*
G01X1246Y41826D01*
G01X1312Y41888D01*
G01X1380Y41948D01*
G01X1448Y42006D01*
G01X1518Y42063D01*
G01X1590Y42118D01*
G01X1662Y42171D01*
G01X1736Y42223D01*
G01X1811Y42273D01*
G01X1887Y42322D01*
G01X1964Y42369D01*
G01X2042Y42414D01*
G01X2121Y42457D01*
G01X2201Y42498D01*
G01X2282Y42538D01*
G01X2364Y42576D01*
G01X2447Y42612D01*
G01X2530Y42646D01*
G01X2614Y42678D01*
G01X2699Y42708D01*
G01X2785Y42736D01*
G01X2871Y42763D01*
G01X2958Y42787D01*
G01X3045Y42810D01*
G01X3133Y42830D01*
G01X3221Y42849D01*
G01X3310Y42866D01*
G01X3399Y42880D01*
G01X3488Y42893D01*
G01X3578Y42903D01*
G01X3667Y42912D01*
G01X3757Y42918D01*
G01X3847Y42923D01*
G01X3937Y42925D01*
G01X4000Y42926D01*
G01X10604Y42926D01*
G01X10604Y46990D01*
G01X28384Y46990D01*
G01X28384Y42926D01*
G01X35000Y42926D01*
G01X35090Y42924D01*
G01X35180Y42921D01*
G01X35270Y42916D01*
G01X35360Y42909D01*
G01X35450Y42900D01*
G01X35539Y42889D01*
G01X35628Y42876D01*
G01X35717Y42861D01*
G01X35806Y42843D01*
G01X35894Y42824D01*
G01X35981Y42803D01*
G01X36069Y42780D01*
G01X36155Y42755D01*
G01X36241Y42728D01*
G01X36327Y42699D01*
G01X36411Y42668D01*
G01X36495Y42635D01*
G01X36579Y42601D01*
G01X36661Y42564D01*
G01X36743Y42526D01*
G01X36823Y42486D01*
G01X36903Y42444D01*
G01X36982Y42400D01*
G01X37060Y42354D01*
G01X37136Y42307D01*
G01X37212Y42258D01*
G01X37287Y42207D01*
G01X37360Y42155D01*
G01X37432Y42101D01*
G01X37503Y42045D01*
G01X37573Y41988D01*
G01X37641Y41929D01*
G01X37708Y41869D01*
G01X37774Y41807D01*
G01X37838Y41744D01*
G01X37901Y41680D01*
G01X37962Y41613D01*
G01X38022Y41546D01*
G01X38080Y41477D01*
G01X38137Y41407D01*
G01X38192Y41336D01*
G01X38246Y41263D01*
G01X38298Y41190D01*
G01X38348Y41115D01*
G01X38396Y41039D01*
G01X38443Y40962D01*
G01X38488Y40883D01*
G01X38531Y40804D01*
G01X38573Y40724D01*
G01X38612Y40643D01*
G01X38650Y40561D01*
G01X38686Y40479D01*
G01X38720Y40395D01*
G01X38752Y40311D01*
G01X38783Y40226D01*
G01X38811Y40141D01*
G01X38837Y40054D01*
G01X38862Y39968D01*
G01X38884Y39880D01*
G01X38905Y39793D01*
G01X38923Y39704D01*
G01X38940Y39616D01*
G01X38954Y39527D01*
G01X38967Y39437D01*
G01X38978Y39348D01*
G01X38986Y39258D01*
G01X38993Y39168D01*
G01X38997Y39078D01*
G01X38999Y38988D01*
G01X39000Y38926D01*
G01X39001Y38925D01*
G01X39001Y7924D01*
G01X39000Y7926D01*
G01X38999Y7835D01*
G01X38996Y7745D01*
G01X38991Y7655D01*
G01X38984Y7565D01*
G01X38975Y7476D01*
G01X38963Y7386D01*
G01X38950Y7297D01*
G01X38935Y7208D01*
G01X38918Y7120D01*
G01X38899Y7032D01*
G01X38878Y6944D01*
G01X38855Y6857D01*
G01X38829Y6770D01*
G01X38802Y6684D01*
G01X38774Y6599D01*
G01X38743Y6514D01*
G01X38710Y6430D01*
G01X38675Y6347D01*
G01X38639Y6265D01*
G01X38600Y6183D01*
G01X38560Y6102D01*
G01X38518Y6022D01*
G01X38474Y5944D01*
G01X38429Y5866D01*
G01X38382Y5789D01*
G01X38333Y5713D01*
G01X38282Y5639D01*
G01X38230Y5566D01*
G01X38175Y5493D01*
G01X38120Y5422D01*
G01X38063Y5353D01*
G01X38004Y5284D01*
G01X37944Y5217D01*
G01X37882Y5152D01*
G01X37819Y5087D01*
G01X37754Y5025D01*
G01X37688Y4963D01*
G01X37620Y4903D01*
G01X37552Y4845D01*
G01X37482Y4788D01*
G01X37410Y4733D01*
G01X37338Y4680D01*
G01X37264Y4628D01*
G01X37189Y4578D01*
G01X37113Y4529D01*
G01X37036Y4483D01*
G01X36958Y4438D01*
G01X36879Y4394D01*
G01X36799Y4353D01*
G01X36718Y4313D01*
G01X36636Y4275D01*
G01X36553Y4239D01*
G01X36470Y4205D01*
G01X36386Y4173D01*
G01X36301Y4143D01*
G01X36215Y4115D01*
G01X36129Y4088D01*
G01X36042Y4064D01*
G01X35955Y4041D01*
G01X35867Y4021D01*
G01X35779Y4002D01*
G01X35690Y3986D01*
G01X35601Y3971D01*
G01X35512Y3958D01*
G01X35422Y3948D01*
G01X35333Y3939D01*
G01X35243Y3933D01*
G01X35153Y3928D01*
G01X35063Y3926D01*
G01X35000Y3926D01*
G01X35001Y3926D01*
G01X28384Y3810D01*
G01X28384Y0D01*
G01X10604Y0D01*
G37*

%LPC*%
G36*
G01X12856Y43350D02*
G01X12991Y43353D01*
G01X13125Y43370D01*
G01X13257Y43400D01*
G01X13385Y43443D01*
G01X13508Y43499D01*
G01X13625Y43566D01*
G01X13734Y43645D01*
G01X13835Y43734D01*
G01X13927Y43833D01*
G01X14009Y43941D01*
G01X14079Y44056D01*
G01X14138Y44178D01*
G01X14184Y44304D01*
G01X14217Y44435D01*
G01X14237Y44569D01*
G01X14244Y44704D01*
G01X14237Y44838D01*
G01X14217Y44972D01*
G01X14184Y45103D01*
G01X14138Y45229D01*
G01X14079Y45351D01*
G01X14009Y45466D01*
G01X13927Y45574D01*
G01X13835Y45673D01*
G01X13734Y45762D01*
G01X13625Y45841D01*
G01X13508Y45908D01*
G01X13385Y45964D01*
G01X13257Y46007D01*
G01X13125Y46037D01*
G01X12991Y46054D01*
G01X12856Y46057D01*
G01X12722Y46047D01*
G01X12589Y46024D01*
G01X12459Y45987D01*
G01X12333Y45938D01*
G01X12213Y45876D01*
G01X12100Y45803D01*
G01X11994Y45719D01*
G01X11897Y45624D01*
G01X11811Y45521D01*
G01X11735Y45410D01*
G01X11670Y45291D01*
G01X11618Y45167D01*
G01X11578Y45038D01*
G01X11551Y44905D01*
G01X11538Y44771D01*
G01X11538Y44636D01*
G01X11551Y44502D01*
G01X11578Y44369D01*
G01X11618Y44240D01*
G01X11670Y44116D01*
G01X11735Y43997D01*
G01X11811Y43886D01*
G01X11897Y43783D01*
G01X11994Y43688D01*
G01X12100Y43604D01*
G01X12213Y43531D01*
G01X12333Y43469D01*
G01X12459Y43420D01*
G01X12589Y43383D01*
G01X12722Y43360D01*
G01X12856Y43350D01*
G37*
G36*
G01X22000Y932D02*
G01X22135Y935D01*
G01X22269Y952D01*
G01X22401Y982D01*
G01X22529Y1025D01*
G01X22652Y1081D01*
G01X22769Y1148D01*
G01X22878Y1227D01*
G01X22979Y1316D01*
G01X23071Y1415D01*
G01X23153Y1523D01*
G01X23223Y1638D01*
G01X23282Y1760D01*
G01X23328Y1886D01*
G01X23361Y2017D01*
G01X23381Y2151D01*
G01X23388Y2286D01*
G01X23381Y2420D01*
G01X23361Y2554D01*
G01X23328Y2685D01*
G01X23282Y2811D01*
G01X23223Y2933D01*
G01X23153Y3048D01*
G01X23071Y3156D01*
G01X22979Y3255D01*
G01X22878Y3344D01*
G01X22769Y3423D01*
G01X22652Y3490D01*
G01X22529Y3546D01*
G01X22401Y3589D01*
G01X22269Y3619D01*
G01X22135Y3636D01*
G01X22000Y3639D01*
G01X21866Y3629D01*
G01X21733Y3606D01*
G01X21603Y3569D01*
G01X21477Y3520D01*
G01X21357Y3458D01*
G01X21244Y3385D01*
G01X21138Y3301D01*
G01X21041Y3206D01*
G01X20955Y3103D01*
G01X20879Y2992D01*
G01X20814Y2873D01*
G01X20762Y2749D01*
G01X20722Y2620D01*
G01X20695Y2487D01*
G01X20682Y2353D01*
G01X20682Y2218D01*
G01X20695Y2084D01*
G01X20722Y1951D01*
G01X20762Y1822D01*
G01X20814Y1698D01*
G01X20879Y1579D01*
G01X20955Y1468D01*
G01X21041Y1365D01*
G01X21138Y1270D01*
G01X21244Y1186D01*
G01X21357Y1113D01*
G01X21477Y1051D01*
G01X21603Y1002D01*
G01X21733Y965D01*
G01X21866Y942D01*
G01X22000Y932D01*
G37*
G36*
G01X17428Y932D02*
G01X17563Y935D01*
G01X17697Y952D01*
G01X17829Y982D01*
G01X17957Y1025D01*
G01X18080Y1081D01*
G01X18197Y1148D01*
G01X18306Y1227D01*
G01X18407Y1316D01*
G01X18499Y1415D01*
G01X18581Y1523D01*
G01X18651Y1638D01*
G01X18710Y1760D01*
G01X18756Y1886D01*
G01X18789Y2017D01*
G01X18809Y2151D01*
G01X18816Y2286D01*
G01X18809Y2420D01*
G01X18789Y2554D01*
G01X18756Y2685D01*
G01X18710Y2811D01*
G01X18651Y2933D01*
G01X18581Y3048D01*
G01X18499Y3156D01*
G01X18407Y3255D01*
G01X18306Y3344D01*
G01X18197Y3423D01*
G01X18080Y3490D01*
G01X17957Y3546D01*
G01X17829Y3589D01*
G01X17697Y3619D01*
G01X17563Y3636D01*
G01X17428Y3639D01*
G01X17294Y3629D01*
G01X17161Y3606D01*
G01X17031Y3569D01*
G01X16905Y3520D01*
G01X16785Y3458D01*
G01X16672Y3385D01*
G01X16566Y3301D01*
G01X16469Y3206D01*
G01X16383Y3103D01*
G01X16307Y2992D01*
G01X16242Y2873D01*
G01X16190Y2749D01*
G01X16150Y2620D01*
G01X16123Y2487D01*
G01X16110Y2353D01*
G01X16110Y2218D01*
G01X16123Y2084D01*
G01X16150Y1951D01*
G01X16190Y1822D01*
G01X16242Y1698D01*
G01X16307Y1579D01*
G01X16383Y1468D01*
G01X16469Y1365D01*
G01X16566Y1270D01*
G01X16672Y1186D01*
G01X16785Y1113D01*
G01X16905Y1051D01*
G01X17031Y1002D01*
G01X17161Y965D01*
G01X17294Y942D01*
G01X17428Y932D01*
G37*
G36*
G01X12856Y932D02*
G01X12991Y935D01*
G01X13125Y952D01*
G01X13257Y982D01*
G01X13385Y1025D01*
G01X13508Y1081D01*
G01X13625Y1148D01*
G01X13734Y1227D01*
G01X13835Y1316D01*
G01X13927Y1415D01*
G01X14009Y1523D01*
G01X14079Y1638D01*
G01X14138Y1760D01*
G01X14184Y1886D01*
G01X14217Y2017D01*
G01X14237Y2151D01*
G01X14244Y2286D01*
G01X14237Y2420D01*
G01X14217Y2554D01*
G01X14184Y2685D01*
G01X14138Y2811D01*
G01X14079Y2933D01*
G01X14009Y3048D01*
G01X13927Y3156D01*
G01X13835Y3255D01*
G01X13734Y3344D01*
G01X13625Y3423D01*
G01X13508Y3490D01*
G01X13385Y3546D01*
G01X13257Y3589D01*
G01X13125Y3619D01*
G01X12991Y3636D01*
G01X12856Y3639D01*
G01X12722Y3629D01*
G01X12589Y3606D01*
G01X12459Y3569D01*
G01X12333Y3520D01*
G01X12213Y3458D01*
G01X12100Y3385D01*
G01X11994Y3301D01*
G01X11897Y3206D01*
G01X11811Y3103D01*
G01X11735Y2992D01*
G01X11670Y2873D01*
G01X11618Y2749D01*
G01X11578Y2620D01*
G01X11551Y2487D01*
G01X11538Y2353D01*
G01X11538Y2218D01*
G01X11551Y2084D01*
G01X11578Y1951D01*
G01X11618Y1822D01*
G01X11670Y1698D01*
G01X11735Y1579D01*
G01X11811Y1468D01*
G01X11897Y1365D01*
G01X11994Y1270D01*
G01X12100Y1186D01*
G01X12213Y1113D01*
G01X12333Y1051D01*
G01X12459Y1002D01*
G01X12589Y965D01*
G01X12722Y942D01*
G01X12856Y932D01*
G37*
G36*
G01X17428Y43350D02*
G01X17563Y43353D01*
G01X17697Y43370D01*
G01X17829Y43400D01*
G01X17957Y43443D01*
G01X18080Y43499D01*
G01X18197Y43566D01*
G01X18306Y43645D01*
G01X18407Y43734D01*
G01X18499Y43833D01*
G01X18581Y43941D01*
G01X18651Y44056D01*
G01X18710Y44178D01*
G01X18756Y44304D01*
G01X18789Y44435D01*
G01X18809Y44569D01*
G01X18816Y44704D01*
G01X18809Y44838D01*
G01X18789Y44972D01*
G01X18756Y45103D01*
G01X18710Y45229D01*
G01X18651Y45351D01*
G01X18581Y45466D01*
G01X18499Y45574D01*
G01X18407Y45673D01*
G01X18306Y45762D01*
G01X18197Y45841D01*
G01X18080Y45908D01*
G01X17957Y45964D01*
G01X17829Y46007D01*
G01X17697Y46037D01*
G01X17563Y46054D01*
G01X17428Y46057D01*
G01X17294Y46047D01*
G01X17161Y46024D01*
G01X17031Y45987D01*
G01X16905Y45938D01*
G01X16785Y45876D01*
G01X16672Y45803D01*
G01X16566Y45719D01*
G01X16469Y45624D01*
G01X16383Y45521D01*
G01X16307Y45410D01*
G01X16242Y45291D01*
G01X16190Y45167D01*
G01X16150Y45038D01*
G01X16123Y44905D01*
G01X16110Y44771D01*
G01X16110Y44636D01*
G01X16123Y44502D01*
G01X16150Y44369D01*
G01X16190Y44240D01*
G01X16242Y44116D01*
G01X16307Y43997D01*
G01X16383Y43886D01*
G01X16469Y43783D01*
G01X16566Y43688D01*
G01X16672Y43604D01*
G01X16785Y43531D01*
G01X16905Y43469D01*
G01X17031Y43420D01*
G01X17161Y43383D01*
G01X17294Y43360D01*
G01X17428Y43350D01*
G37*
G36*
G01X22000Y43350D02*
G01X22135Y43353D01*
G01X22269Y43370D01*
G01X22401Y43400D01*
G01X22529Y43443D01*
G01X22652Y43499D01*
G01X22769Y43566D01*
G01X22878Y43645D01*
G01X22979Y43734D01*
G01X23071Y43833D01*
G01X23153Y43941D01*
G01X23223Y44056D01*
G01X23282Y44178D01*
G01X23328Y44304D01*
G01X23361Y44435D01*
G01X23381Y44569D01*
G01X23388Y44704D01*
G01X23381Y44838D01*
G01X23361Y44972D01*
G01X23328Y45103D01*
G01X23282Y45229D01*
G01X23223Y45351D01*
G01X23153Y45466D01*
G01X23071Y45574D01*
G01X22979Y45673D01*
G01X22878Y45762D01*
G01X22769Y45841D01*
G01X22652Y45908D01*
G01X22529Y45964D01*
G01X22401Y46007D01*
G01X22269Y46037D01*
G01X22135Y46054D01*
G01X22000Y46057D01*
G01X21866Y46047D01*
G01X21733Y46024D01*
G01X21603Y45987D01*
G01X21477Y45938D01*
G01X21357Y45876D01*
G01X21244Y45803D01*
G01X21138Y45719D01*
G01X21041Y45624D01*
G01X20955Y45521D01*
G01X20879Y45410D01*
G01X20814Y45291D01*
G01X20762Y45167D01*
G01X20722Y45038D01*
G01X20695Y44905D01*
G01X20682Y44771D01*
G01X20682Y44636D01*
G01X20695Y44502D01*
G01X20722Y44369D01*
G01X20762Y44240D01*
G01X20814Y44116D01*
G01X20879Y43997D01*
G01X20955Y43886D01*
G01X21041Y43783D01*
G01X21138Y43688D01*
G01X21244Y43604D01*
G01X21357Y43531D01*
G01X21477Y43469D01*
G01X21603Y43420D01*
G01X21733Y43383D01*
G01X21866Y43360D01*
G01X22000Y43350D01*
G37*
G36*
G01X36824Y5592D02*
G01X36959Y5596D01*
G01X37093Y5612D01*
G01X37225Y5642D01*
G01X37353Y5685D01*
G01X37476Y5741D01*
G01X37593Y5809D01*
G01X37702Y5887D01*
G01X37804Y5977D01*
G01X37895Y6076D01*
G01X37977Y6183D01*
G01X38047Y6298D01*
G01X38106Y6420D01*
G01X38152Y6547D01*
G01X38185Y6678D01*
G01X38205Y6811D01*
G01X38212Y6946D01*
G01X38205Y7081D01*
G01X38185Y7214D01*
G01X38152Y7345D01*
G01X38106Y7472D01*
G01X38047Y7593D01*
G01X37977Y7709D01*
G01X37895Y7816D01*
G01X37804Y7915D01*
G01X37702Y8004D01*
G01X37593Y8083D01*
G01X37476Y8151D01*
G01X37353Y8206D01*
G01X37225Y8249D01*
G01X37093Y8279D01*
G01X36959Y8296D01*
G01X36824Y8299D01*
G01X36690Y8289D01*
G01X36557Y8266D01*
G01X36427Y8229D01*
G01X36301Y8180D01*
G01X36181Y8118D01*
G01X36068Y8045D01*
G01X35962Y7961D01*
G01X35866Y7867D01*
G01X35779Y7763D01*
G01X35703Y7652D01*
G01X35638Y7533D01*
G01X35586Y7409D01*
G01X35546Y7280D01*
G01X35519Y7148D01*
G01X35506Y7013D01*
G01X35506Y6878D01*
G01X35519Y6744D01*
G01X35546Y6612D01*
G01X35586Y6483D01*
G01X35638Y6358D01*
G01X35703Y6240D01*
G01X35779Y6128D01*
G01X35866Y6025D01*
G01X35962Y5931D01*
G01X36068Y5847D01*
G01X36181Y5773D01*
G01X36301Y5712D01*
G01X36427Y5662D01*
G01X36557Y5626D01*
G01X36690Y5602D01*
G01X36824Y5592D01*
G37*
G36*
G01X2122Y5604D02*
G01X2257Y5607D01*
G01X2391Y5624D01*
G01X2523Y5654D01*
G01X2651Y5697D01*
G01X2774Y5753D01*
G01X2891Y5820D01*
G01X3000Y5899D01*
G01X3102Y5988D01*
G01X3193Y6087D01*
G01X3275Y6195D01*
G01X3345Y6310D01*
G01X3404Y6432D01*
G01X3450Y6558D01*
G01X3483Y6689D01*
G01X3503Y6823D01*
G01X3510Y6958D01*
G01X3503Y7092D01*
G01X3483Y7226D01*
G01X3450Y7357D01*
G01X3404Y7484D01*
G01X3345Y7605D01*
G01X3275Y7720D01*
G01X3193Y7828D01*
G01X3102Y7927D01*
G01X3000Y8016D01*
G01X2891Y8095D01*
G01X2774Y8162D01*
G01X2651Y8218D01*
G01X2523Y8261D01*
G01X2391Y8291D01*
G01X2257Y8308D01*
G01X2122Y8311D01*
G01X1988Y8301D01*
G01X1855Y8278D01*
G01X1725Y8241D01*
G01X1599Y8192D01*
G01X1479Y8130D01*
G01X1366Y8057D01*
G01X1260Y7973D01*
G01X1164Y7879D01*
G01X1077Y7775D01*
G01X1001Y7664D01*
G01X936Y7545D01*
G01X884Y7421D01*
G01X844Y7292D01*
G01X817Y7159D01*
G01X804Y7025D01*
G01X804Y6890D01*
G01X817Y6756D01*
G01X844Y6623D01*
G01X884Y6494D01*
G01X936Y6370D01*
G01X1001Y6252D01*
G01X1077Y6140D01*
G01X1164Y6037D01*
G01X1260Y5942D01*
G01X1366Y5858D01*
G01X1479Y5785D01*
G01X1599Y5723D01*
G01X1725Y5674D01*
G01X1855Y5638D01*
G01X1988Y5614D01*
G01X2122Y5604D01*
G37*
G36*
G01X16229Y6545D02*
G01X16285Y6546D01*
G01X16340Y6553D01*
G01X16394Y6566D01*
G01X16447Y6584D01*
G01X16498Y6606D01*
G01X16546Y6634D01*
G01X16591Y6667D01*
G01X16633Y6704D01*
G01X16667Y6740D01*
G01X31335Y6740D01*
G01X31348Y6740D01*
G01X31361Y6741D01*
G01X31374Y6742D01*
G01X31387Y6744D01*
G01X31400Y6746D01*
G01X31413Y6748D01*
G01X31425Y6751D01*
G01X31438Y6755D01*
G01X31450Y6758D01*
G01X31463Y6763D01*
G01X31475Y6768D01*
G01X31487Y6773D01*
G01X31498Y6778D01*
G01X31510Y6784D01*
G01X31521Y6791D01*
G01X31532Y6798D01*
G01X31543Y6805D01*
G01X31554Y6812D01*
G01X31564Y6820D01*
G01X31574Y6829D01*
G01X31584Y6837D01*
G01X31593Y6846D01*
G01X31941Y7194D01*
G01X31950Y7204D01*
G01X31959Y7213D01*
G01X31967Y7223D01*
G01X31975Y7234D01*
G01X31982Y7244D01*
G01X31990Y7255D01*
G01X31997Y7266D01*
G01X32003Y7277D01*
G01X32009Y7289D01*
G01X32015Y7301D01*
G01X32020Y7313D01*
G01X32025Y7325D01*
G01X32026Y7329D01*
G01X32029Y7332D01*
G01X32038Y7338D01*
G01X32046Y7344D01*
G01X32054Y7351D01*
G01X32061Y7359D01*
G01X32882Y8179D01*
G01X32889Y8187D01*
G01X32896Y8194D01*
G01X32902Y8203D01*
G01X32909Y8211D01*
G01X32915Y8220D01*
G01X32920Y8229D01*
G01X32925Y8238D01*
G01X32930Y8247D01*
G01X32935Y8257D01*
G01X32939Y8266D01*
G01X32942Y8276D01*
G01X32945Y8286D01*
G01X32948Y8296D01*
G01X32951Y8307D01*
G01X32953Y8317D01*
G01X32954Y8327D01*
G01X32955Y8338D01*
G01X32956Y8348D01*
G01X32956Y8359D01*
G01X32956Y8369D01*
G01X32955Y8380D01*
G01X32954Y8390D01*
G01X32953Y8400D01*
G01X32951Y8411D01*
G01X32948Y8421D01*
G01X32945Y8431D01*
G01X32942Y8441D01*
G01X32939Y8451D01*
G01X32935Y8461D01*
G01X32930Y8470D01*
G01X32925Y8480D01*
G01X32920Y8489D01*
G01X32915Y8498D01*
G01X32909Y8506D01*
G01X32902Y8515D01*
G01X32896Y8523D01*
G01X32889Y8531D01*
G01X32882Y8538D01*
G01X31843Y9577D01*
G01X31835Y9584D01*
G01X31827Y9591D01*
G01X31819Y9598D01*
G01X31811Y9604D01*
G01X31802Y9610D01*
G01X31793Y9616D01*
G01X31784Y9621D01*
G01X31775Y9626D01*
G01X31765Y9630D01*
G01X31755Y9634D01*
G01X31746Y9638D01*
G01X31736Y9641D01*
G01X31725Y9644D01*
G01X31715Y9646D01*
G01X31705Y9648D01*
G01X31695Y9650D01*
G01X31684Y9651D01*
G01X31674Y9651D01*
G01X31663Y9652D01*
G01X31653Y9651D01*
G01X31642Y9651D01*
G01X31632Y9650D01*
G01X31621Y9648D01*
G01X31611Y9646D01*
G01X31601Y9644D01*
G01X31591Y9641D01*
G01X31581Y9638D01*
G01X31571Y9634D01*
G01X31561Y9630D01*
G01X31552Y9626D01*
G01X31542Y9621D01*
G01X31533Y9616D01*
G01X31524Y9610D01*
G01X31516Y9604D01*
G01X31507Y9598D01*
G01X31499Y9591D01*
G01X31491Y9584D01*
G01X31484Y9577D01*
G01X30663Y8757D01*
G01X30656Y8749D01*
G01X30649Y8741D01*
G01X30642Y8733D01*
G01X30636Y8725D01*
G01X30630Y8716D01*
G01X30625Y8707D01*
G01X30619Y8698D01*
G01X30615Y8689D01*
G01X30610Y8679D01*
G01X30606Y8669D01*
G01X30602Y8660D01*
G01X30599Y8650D01*
G01X30596Y8639D01*
G01X30594Y8629D01*
G01X30592Y8619D01*
G01X30591Y8608D01*
G01X30590Y8598D01*
G01X30589Y8588D01*
G01X30589Y8577D01*
G01X30589Y8567D01*
G01X30590Y8556D01*
G01X30591Y8546D01*
G01X30592Y8535D01*
G01X30594Y8525D01*
G01X30596Y8515D01*
G01X30599Y8505D01*
G01X30602Y8495D01*
G01X30606Y8485D01*
G01X30610Y8475D01*
G01X30615Y8466D01*
G01X30619Y8456D01*
G01X30625Y8447D01*
G01X30630Y8438D01*
G01X30636Y8429D01*
G01X30642Y8421D01*
G01X30649Y8413D01*
G01X30656Y8405D01*
G01X30663Y8397D01*
G01X31319Y7741D01*
G01X31319Y7603D01*
G01X31185Y7468D01*
G01X16667Y7468D01*
G01X16633Y7504D01*
G01X16591Y7541D01*
G01X16546Y7573D01*
G01X16498Y7601D01*
G01X16447Y7624D01*
G01X16394Y7642D01*
G01X16340Y7654D01*
G01X16285Y7661D01*
G01X16229Y7663D01*
G01X16173Y7659D01*
G01X16118Y7649D01*
G01X16065Y7634D01*
G01X16013Y7613D01*
G01X15963Y7588D01*
G01X15916Y7558D01*
G01X15873Y7523D01*
G01X15833Y7484D01*
G01X15797Y7441D01*
G01X15766Y7395D01*
G01X15739Y7346D01*
G01X15718Y7295D01*
G01X15701Y7242D01*
G01X15690Y7187D01*
G01X15684Y7132D01*
G01X15684Y7076D01*
G01X15690Y7021D01*
G01X15701Y6966D01*
G01X15718Y6913D01*
G01X15739Y6861D01*
G01X15766Y6812D01*
G01X15797Y6766D01*
G01X15833Y6724D01*
G01X15873Y6685D01*
G01X15916Y6650D01*
G01X15963Y6620D01*
G01X16013Y6594D01*
G01X16065Y6574D01*
G01X16118Y6559D01*
G01X16173Y6549D01*
G01X16229Y6545D01*
G37*
G36*
G01X26318Y43350D02*
G01X26453Y43353D01*
G01X26587Y43370D01*
G01X26719Y43400D01*
G01X26847Y43443D01*
G01X26970Y43499D01*
G01X27087Y43566D01*
G01X27196Y43645D01*
G01X27297Y43734D01*
G01X27389Y43833D01*
G01X27471Y43941D01*
G01X27541Y44056D01*
G01X27600Y44178D01*
G01X27646Y44304D01*
G01X27679Y44435D01*
G01X27699Y44569D01*
G01X27706Y44704D01*
G01X27699Y44838D01*
G01X27679Y44972D01*
G01X27646Y45103D01*
G01X27600Y45229D01*
G01X27541Y45351D01*
G01X27471Y45466D01*
G01X27389Y45574D01*
G01X27297Y45673D01*
G01X27196Y45762D01*
G01X27087Y45841D01*
G01X26970Y45908D01*
G01X26847Y45964D01*
G01X26719Y46007D01*
G01X26587Y46037D01*
G01X26453Y46054D01*
G01X26318Y46057D01*
G01X26184Y46047D01*
G01X26051Y46024D01*
G01X25921Y45987D01*
G01X25795Y45938D01*
G01X25675Y45876D01*
G01X25562Y45803D01*
G01X25456Y45719D01*
G01X25359Y45624D01*
G01X25273Y45521D01*
G01X25197Y45410D01*
G01X25132Y45291D01*
G01X25080Y45167D01*
G01X25040Y45038D01*
G01X25013Y44905D01*
G01X25000Y44771D01*
G01X25000Y44636D01*
G01X25013Y44502D01*
G01X25040Y44369D01*
G01X25080Y44240D01*
G01X25132Y44116D01*
G01X25197Y43997D01*
G01X25273Y43886D01*
G01X25359Y43783D01*
G01X25456Y43688D01*
G01X25562Y43604D01*
G01X25675Y43531D01*
G01X25795Y43469D01*
G01X25921Y43420D01*
G01X26051Y43383D01*
G01X26184Y43360D01*
G01X26318Y43350D01*
G37*
G36*
G01X5433Y39361D02*
G01X5986Y39361D01*
G01X5986Y40115D01*
G01X5986Y40116D01*
G01X5687Y40116D01*
G01X5676Y40116D01*
G01X5666Y40115D01*
G01X5655Y40114D01*
G01X5645Y40113D01*
G01X5634Y40111D01*
G01X5624Y40108D01*
G01X5614Y40106D01*
G01X5604Y40102D01*
G01X5594Y40099D01*
G01X5585Y40095D01*
G01X5575Y40090D01*
G01X5566Y40086D01*
G01X5557Y40080D01*
G01X5548Y40075D01*
G01X5539Y40069D01*
G01X5531Y40063D01*
G01X5522Y40056D01*
G01X5515Y40049D01*
G01X5507Y40042D01*
G01X5500Y40034D01*
G01X5493Y40026D01*
G01X5486Y40018D01*
G01X5480Y40010D01*
G01X5474Y40001D01*
G01X5468Y39992D01*
G01X5463Y39983D01*
G01X5458Y39974D01*
G01X5454Y39964D01*
G01X5450Y39955D01*
G01X5446Y39945D01*
G01X5443Y39935D01*
G01X5440Y39925D01*
G01X5438Y39914D01*
G01X5436Y39904D01*
G01X5435Y39894D01*
G01X5433Y39883D01*
G01X5433Y39873D01*
G01X5433Y39862D01*
G01X5433Y39361D01*
G37*
G36*
G01X6586Y39361D02*
G01X7139Y39361D01*
G01X7139Y39862D01*
G01X7139Y39873D01*
G01X7139Y39883D01*
G01X7137Y39894D01*
G01X7136Y39904D01*
G01X7134Y39914D01*
G01X7132Y39925D01*
G01X7129Y39935D01*
G01X7126Y39945D01*
G01X7122Y39955D01*
G01X7118Y39964D01*
G01X7114Y39974D01*
G01X7109Y39983D01*
G01X7104Y39992D01*
G01X7098Y40001D01*
G01X7092Y40010D01*
G01X7086Y40018D01*
G01X7079Y40026D01*
G01X7072Y40034D01*
G01X7065Y40042D01*
G01X7057Y40049D01*
G01X7050Y40056D01*
G01X7041Y40063D01*
G01X7033Y40069D01*
G01X7024Y40075D01*
G01X7015Y40080D01*
G01X7006Y40086D01*
G01X6997Y40090D01*
G01X6987Y40095D01*
G01X6978Y40099D01*
G01X6968Y40102D01*
G01X6958Y40106D01*
G01X6948Y40108D01*
G01X6938Y40111D01*
G01X6927Y40113D01*
G01X6917Y40114D01*
G01X6906Y40115D01*
G01X6896Y40116D01*
G01X6885Y40116D01*
G01X6586Y40116D01*
G01X6586Y40115D01*
G01X6586Y39361D01*
G37*
G36*
G01X15463Y8106D02*
G01X17716Y8106D01*
G01X17728Y8107D01*
G01X17741Y8107D01*
G01X17753Y8108D01*
G01X17766Y8110D01*
G01X17778Y8112D01*
G01X17790Y8114D01*
G01X17802Y8117D01*
G01X17814Y8120D01*
G01X17826Y8123D01*
G01X17838Y8127D01*
G01X17850Y8132D01*
G01X17861Y8137D01*
G01X17872Y8142D01*
G01X17883Y8147D01*
G01X17894Y8153D01*
G01X17905Y8159D01*
G01X17916Y8166D01*
G01X17926Y8173D01*
G01X17936Y8180D01*
G01X17946Y8188D01*
G01X17955Y8196D01*
G01X17964Y8204D01*
G01X17973Y8213D01*
G01X17982Y8222D01*
G01X17990Y8231D01*
G01X17998Y8241D01*
G01X18006Y8250D01*
G01X18013Y8260D01*
G01X18020Y8271D01*
G01X18027Y8281D01*
G01X18033Y8292D01*
G01X18039Y8303D01*
G01X18045Y8314D01*
G01X18050Y8325D01*
G01X18055Y8337D01*
G01X18059Y8349D01*
G01X18063Y8360D01*
G01X18067Y8372D01*
G01X18070Y8384D01*
G01X18072Y8396D01*
G01X18075Y8409D01*
G01X18077Y8421D01*
G01X18078Y8433D01*
G01X18079Y8446D01*
G01X18080Y8458D01*
G01X18080Y8470D01*
G01X18080Y8651D01*
G01X18315Y8651D01*
G01X18326Y8651D01*
G01X18336Y8652D01*
G01X18347Y8653D01*
G01X18357Y8654D01*
G01X18368Y8656D01*
G01X18378Y8659D01*
G01X18388Y8661D01*
G01X18398Y8665D01*
G01X18408Y8668D01*
G01X18417Y8672D01*
G01X18427Y8677D01*
G01X18436Y8681D01*
G01X18445Y8687D01*
G01X18454Y8692D01*
G01X18463Y8698D01*
G01X18471Y8704D01*
G01X18480Y8711D01*
G01X18487Y8718D01*
G01X18495Y8725D01*
G01X18502Y8733D01*
G01X18509Y8741D01*
G01X18516Y8749D01*
G01X18522Y8757D01*
G01X18528Y8766D01*
G01X18534Y8775D01*
G01X18539Y8784D01*
G01X18544Y8793D01*
G01X18548Y8803D01*
G01X18552Y8812D01*
G01X18556Y8822D01*
G01X18559Y8832D01*
G01X18562Y8842D01*
G01X18564Y8853D01*
G01X18566Y8863D01*
G01X18567Y8873D01*
G01X18569Y8884D01*
G01X18569Y8894D01*
G01X18569Y8905D01*
G01X18569Y10906D01*
G01X18569Y10917D01*
G01X18569Y10927D01*
G01X18567Y10938D01*
G01X18566Y10948D01*
G01X18564Y10958D01*
G01X18562Y10969D01*
G01X18559Y10979D01*
G01X18556Y10989D01*
G01X18552Y10999D01*
G01X18548Y11008D01*
G01X18544Y11018D01*
G01X18539Y11027D01*
G01X18534Y11036D01*
G01X18528Y11045D01*
G01X18522Y11054D01*
G01X18516Y11062D01*
G01X18509Y11070D01*
G01X18502Y11078D01*
G01X18495Y11086D01*
G01X18487Y11093D01*
G01X18480Y11100D01*
G01X18471Y11107D01*
G01X18463Y11113D01*
G01X18454Y11119D01*
G01X18445Y11124D01*
G01X18436Y11130D01*
G01X18427Y11134D01*
G01X18417Y11139D01*
G01X18408Y11143D01*
G01X18398Y11146D01*
G01X18388Y11150D01*
G01X18378Y11152D01*
G01X18368Y11155D01*
G01X18357Y11157D01*
G01X18347Y11158D01*
G01X18336Y11159D01*
G01X18326Y11160D01*
G01X18315Y11160D01*
G01X17117Y11160D01*
G01X17106Y11160D01*
G01X17096Y11159D01*
G01X17085Y11158D01*
G01X17075Y11157D01*
G01X17064Y11155D01*
G01X17054Y11152D01*
G01X17044Y11150D01*
G01X17034Y11146D01*
G01X17024Y11143D01*
G01X17015Y11139D01*
G01X17005Y11134D01*
G01X16996Y11130D01*
G01X16987Y11124D01*
G01X16978Y11119D01*
G01X16969Y11113D01*
G01X16961Y11107D01*
G01X16952Y11100D01*
G01X16945Y11093D01*
G01X16937Y11086D01*
G01X16930Y11078D01*
G01X16923Y11070D01*
G01X16916Y11062D01*
G01X16910Y11054D01*
G01X16904Y11045D01*
G01X16898Y11036D01*
G01X16893Y11027D01*
G01X16888Y11018D01*
G01X16884Y11008D01*
G01X16880Y10999D01*
G01X16876Y10989D01*
G01X16873Y10979D01*
G01X16870Y10969D01*
G01X16868Y10958D01*
G01X16866Y10948D01*
G01X16865Y10938D01*
G01X16863Y10927D01*
G01X16863Y10917D01*
G01X16863Y10906D01*
G01X16863Y8905D01*
G01X16863Y8894D01*
G01X16863Y8884D01*
G01X16865Y8873D01*
G01X16866Y8863D01*
G01X16868Y8853D01*
G01X16870Y8842D01*
G01X16873Y8834D01*
G01X15614Y8834D01*
G01X15408Y9042D01*
G01X15408Y9202D01*
G01X15425Y9202D01*
G01X15435Y9202D01*
G01X15446Y9203D01*
G01X15456Y9204D01*
G01X15467Y9205D01*
G01X15477Y9207D01*
G01X15487Y9210D01*
G01X15497Y9212D01*
G01X15507Y9216D01*
G01X15517Y9219D01*
G01X15527Y9223D01*
G01X15536Y9228D01*
G01X15546Y9233D01*
G01X15555Y9238D01*
G01X15564Y9243D01*
G01X15573Y9249D01*
G01X15581Y9255D01*
G01X15589Y9262D01*
G01X15597Y9269D01*
G01X15605Y9276D01*
G01X15612Y9284D01*
G01X15619Y9292D01*
G01X15625Y9300D01*
G01X15632Y9308D01*
G01X15638Y9317D01*
G01X15643Y9326D01*
G01X15648Y9335D01*
G01X15653Y9344D01*
G01X15658Y9354D01*
G01X15662Y9364D01*
G01X15665Y9373D01*
G01X15668Y9383D01*
G01X15671Y9394D01*
G01X15674Y9404D01*
G01X15675Y9414D01*
G01X15677Y9425D01*
G01X15678Y9435D01*
G01X15679Y9445D01*
G01X15679Y9456D01*
G01X15679Y10355D01*
G01X15679Y10366D01*
G01X15678Y10376D01*
G01X15677Y10386D01*
G01X15675Y10397D01*
G01X15674Y10407D01*
G01X15671Y10417D01*
G01X15668Y10428D01*
G01X15665Y10438D01*
G01X15662Y10447D01*
G01X15658Y10457D01*
G01X15653Y10467D01*
G01X15648Y10476D01*
G01X15643Y10485D01*
G01X15638Y10494D01*
G01X15632Y10503D01*
G01X15625Y10511D01*
G01X15619Y10519D01*
G01X15612Y10527D01*
G01X15605Y10535D01*
G01X15597Y10542D01*
G01X15589Y10549D01*
G01X15581Y10556D01*
G01X15573Y10562D01*
G01X15564Y10568D01*
G01X15555Y10573D01*
G01X15546Y10578D01*
G01X15536Y10583D01*
G01X15527Y10588D01*
G01X15517Y10592D01*
G01X15507Y10595D01*
G01X15497Y10599D01*
G01X15487Y10601D01*
G01X15477Y10604D01*
G01X15467Y10606D01*
G01X15456Y10607D01*
G01X15446Y10608D01*
G01X15435Y10609D01*
G01X15425Y10609D01*
G01X14724Y10609D01*
G01X14713Y10609D01*
G01X14703Y10608D01*
G01X14692Y10607D01*
G01X14682Y10606D01*
G01X14672Y10604D01*
G01X14662Y10601D01*
G01X14651Y10599D01*
G01X14641Y10595D01*
G01X14632Y10592D01*
G01X14622Y10588D01*
G01X14612Y10583D01*
G01X14603Y10578D01*
G01X14594Y10573D01*
G01X14585Y10568D01*
G01X14576Y10562D01*
G01X14568Y10556D01*
G01X14560Y10549D01*
G01X14552Y10542D01*
G01X14544Y10535D01*
G01X14537Y10527D01*
G01X14530Y10519D01*
G01X14523Y10511D01*
G01X14517Y10503D01*
G01X14511Y10494D01*
G01X14506Y10485D01*
G01X14500Y10476D01*
G01X14496Y10467D01*
G01X14491Y10457D01*
G01X14487Y10447D01*
G01X14484Y10438D01*
G01X14480Y10428D01*
G01X14478Y10417D01*
G01X14475Y10407D01*
G01X14473Y10397D01*
G01X14472Y10386D01*
G01X14471Y10376D01*
G01X14470Y10366D01*
G01X14470Y10355D01*
G01X14470Y9456D01*
G01X14470Y9445D01*
G01X14471Y9435D01*
G01X14472Y9425D01*
G01X14473Y9414D01*
G01X14475Y9404D01*
G01X14478Y9394D01*
G01X14480Y9383D01*
G01X14484Y9373D01*
G01X14487Y9364D01*
G01X14491Y9354D01*
G01X14496Y9344D01*
G01X14500Y9335D01*
G01X14506Y9326D01*
G01X14511Y9317D01*
G01X14517Y9308D01*
G01X14523Y9300D01*
G01X14530Y9292D01*
G01X14537Y9284D01*
G01X14544Y9276D01*
G01X14552Y9269D01*
G01X14560Y9262D01*
G01X14568Y9255D01*
G01X14576Y9249D01*
G01X14585Y9243D01*
G01X14594Y9238D01*
G01X14603Y9233D01*
G01X14612Y9228D01*
G01X14622Y9223D01*
G01X14632Y9219D01*
G01X14641Y9216D01*
G01X14651Y9212D01*
G01X14662Y9210D01*
G01X14672Y9207D01*
G01X14680Y9206D01*
G01X14680Y8892D01*
G01X14680Y8879D01*
G01X14681Y8866D01*
G01X14682Y8853D01*
G01X14684Y8840D01*
G01X14686Y8828D01*
G01X14688Y8815D01*
G01X14691Y8802D01*
G01X14695Y8790D01*
G01X14698Y8778D01*
G01X14703Y8765D01*
G01X14707Y8753D01*
G01X14713Y8741D01*
G01X14718Y8730D01*
G01X14724Y8718D01*
G01X14730Y8707D01*
G01X14737Y8696D01*
G01X14744Y8685D01*
G01X14752Y8675D01*
G01X14760Y8664D01*
G01X14768Y8654D01*
G01X14777Y8645D01*
G01X14786Y8635D01*
G01X15205Y8214D01*
G01X15214Y8205D01*
G01X15224Y8196D01*
G01X15234Y8188D01*
G01X15244Y8180D01*
G01X15255Y8172D01*
G01X15266Y8165D01*
G01X15277Y8158D01*
G01X15288Y8151D01*
G01X15299Y8145D01*
G01X15311Y8140D01*
G01X15323Y8134D01*
G01X15335Y8130D01*
G01X15348Y8125D01*
G01X15360Y8121D01*
G01X15373Y8118D01*
G01X15385Y8115D01*
G01X15398Y8112D01*
G01X15411Y8110D01*
G01X15424Y8109D01*
G01X15437Y8107D01*
G01X15450Y8107D01*
G01X15463Y8106D01*
G37*
G36*
G01X19657Y8651D02*
G01X20855Y8651D01*
G01X20866Y8651D01*
G01X20876Y8652D01*
G01X20887Y8653D01*
G01X20897Y8654D01*
G01X20908Y8656D01*
G01X20918Y8659D01*
G01X20928Y8661D01*
G01X20938Y8665D01*
G01X20948Y8668D01*
G01X20957Y8672D01*
G01X20967Y8677D01*
G01X20976Y8681D01*
G01X20985Y8687D01*
G01X20994Y8692D01*
G01X21003Y8698D01*
G01X21011Y8704D01*
G01X21020Y8711D01*
G01X21027Y8718D01*
G01X21035Y8725D01*
G01X21042Y8733D01*
G01X21049Y8741D01*
G01X21056Y8749D01*
G01X21062Y8757D01*
G01X21068Y8766D01*
G01X21074Y8775D01*
G01X21079Y8784D01*
G01X21084Y8793D01*
G01X21088Y8803D01*
G01X21092Y8812D01*
G01X21096Y8822D01*
G01X21099Y8832D01*
G01X21102Y8842D01*
G01X21104Y8853D01*
G01X21106Y8863D01*
G01X21107Y8873D01*
G01X21109Y8884D01*
G01X21109Y8894D01*
G01X21109Y8905D01*
G01X21109Y9541D01*
G01X21785Y9541D01*
G01X21785Y9456D01*
G01X21785Y9445D01*
G01X21786Y9435D01*
G01X21787Y9425D01*
G01X21789Y9414D01*
G01X21790Y9404D01*
G01X21793Y9394D01*
G01X21796Y9383D01*
G01X21799Y9373D01*
G01X21802Y9364D01*
G01X21806Y9354D01*
G01X21811Y9344D01*
G01X21816Y9335D01*
G01X21821Y9326D01*
G01X21826Y9317D01*
G01X21832Y9308D01*
G01X21839Y9300D01*
G01X21845Y9292D01*
G01X21852Y9284D01*
G01X21859Y9276D01*
G01X21867Y9269D01*
G01X21875Y9262D01*
G01X21883Y9255D01*
G01X21891Y9249D01*
G01X21900Y9243D01*
G01X21909Y9238D01*
G01X21918Y9233D01*
G01X21928Y9228D01*
G01X21937Y9223D01*
G01X21947Y9219D01*
G01X21957Y9216D01*
G01X21967Y9212D01*
G01X21977Y9210D01*
G01X21987Y9207D01*
G01X21997Y9205D01*
G01X22008Y9204D01*
G01X22018Y9203D01*
G01X22029Y9202D01*
G01X22039Y9202D01*
G01X22740Y9202D01*
G01X22751Y9202D01*
G01X22761Y9203D01*
G01X22772Y9204D01*
G01X22782Y9205D01*
G01X22792Y9207D01*
G01X22802Y9210D01*
G01X22813Y9212D01*
G01X22823Y9216D01*
G01X22832Y9219D01*
G01X22842Y9223D01*
G01X22852Y9228D01*
G01X22861Y9233D01*
G01X22870Y9238D01*
G01X22879Y9243D01*
G01X22888Y9249D01*
G01X22896Y9255D01*
G01X22904Y9262D01*
G01X22912Y9269D01*
G01X22920Y9276D01*
G01X22927Y9284D01*
G01X22934Y9292D01*
G01X22941Y9300D01*
G01X22947Y9308D01*
G01X22953Y9317D01*
G01X22958Y9326D01*
G01X22964Y9335D01*
G01X22968Y9344D01*
G01X22973Y9354D01*
G01X22977Y9364D01*
G01X22980Y9373D01*
G01X22984Y9383D01*
G01X22986Y9394D01*
G01X22989Y9404D01*
G01X22991Y9414D01*
G01X22992Y9425D01*
G01X22993Y9435D01*
G01X22994Y9445D01*
G01X22994Y9456D01*
G01X22994Y10355D01*
G01X22994Y10366D01*
G01X22993Y10376D01*
G01X22992Y10386D01*
G01X22991Y10397D01*
G01X22989Y10407D01*
G01X22986Y10417D01*
G01X22984Y10428D01*
G01X22980Y10438D01*
G01X22977Y10447D01*
G01X22973Y10457D01*
G01X22968Y10467D01*
G01X22964Y10476D01*
G01X22958Y10485D01*
G01X22953Y10494D01*
G01X22947Y10503D01*
G01X22941Y10511D01*
G01X22934Y10519D01*
G01X22927Y10527D01*
G01X22920Y10535D01*
G01X22912Y10542D01*
G01X22904Y10549D01*
G01X22896Y10556D01*
G01X22888Y10562D01*
G01X22879Y10568D01*
G01X22870Y10573D01*
G01X22861Y10578D01*
G01X22852Y10583D01*
G01X22842Y10588D01*
G01X22832Y10592D01*
G01X22823Y10595D01*
G01X22813Y10599D01*
G01X22802Y10601D01*
G01X22792Y10604D01*
G01X22782Y10606D01*
G01X22772Y10607D01*
G01X22761Y10608D01*
G01X22751Y10609D01*
G01X22740Y10609D01*
G01X22039Y10609D01*
G01X22029Y10609D01*
G01X22018Y10608D01*
G01X22008Y10607D01*
G01X21997Y10606D01*
G01X21987Y10604D01*
G01X21977Y10601D01*
G01X21967Y10599D01*
G01X21957Y10595D01*
G01X21947Y10592D01*
G01X21937Y10588D01*
G01X21928Y10583D01*
G01X21918Y10578D01*
G01X21909Y10573D01*
G01X21900Y10568D01*
G01X21891Y10562D01*
G01X21883Y10556D01*
G01X21875Y10549D01*
G01X21867Y10542D01*
G01X21859Y10535D01*
G01X21852Y10527D01*
G01X21845Y10519D01*
G01X21839Y10511D01*
G01X21832Y10503D01*
G01X21826Y10494D01*
G01X21821Y10485D01*
G01X21816Y10476D01*
G01X21811Y10467D01*
G01X21806Y10457D01*
G01X21802Y10447D01*
G01X21799Y10438D01*
G01X21796Y10428D01*
G01X21793Y10417D01*
G01X21790Y10407D01*
G01X21789Y10397D01*
G01X21787Y10386D01*
G01X21786Y10376D01*
G01X21785Y10366D01*
G01X21785Y10355D01*
G01X21785Y10270D01*
G01X21109Y10270D01*
G01X21109Y10906D01*
G01X21109Y10917D01*
G01X21109Y10927D01*
G01X21107Y10938D01*
G01X21106Y10948D01*
G01X21104Y10958D01*
G01X21102Y10969D01*
G01X21099Y10979D01*
G01X21096Y10989D01*
G01X21092Y10999D01*
G01X21088Y11008D01*
G01X21084Y11018D01*
G01X21079Y11027D01*
G01X21074Y11036D01*
G01X21068Y11045D01*
G01X21062Y11054D01*
G01X21056Y11062D01*
G01X21049Y11070D01*
G01X21042Y11078D01*
G01X21035Y11086D01*
G01X21027Y11093D01*
G01X21020Y11100D01*
G01X21011Y11107D01*
G01X21003Y11113D01*
G01X20994Y11119D01*
G01X20985Y11124D01*
G01X20976Y11130D01*
G01X20967Y11134D01*
G01X20957Y11139D01*
G01X20948Y11143D01*
G01X20938Y11146D01*
G01X20928Y11150D01*
G01X20918Y11152D01*
G01X20908Y11155D01*
G01X20897Y11157D01*
G01X20887Y11158D01*
G01X20876Y11159D01*
G01X20866Y11160D01*
G01X20855Y11160D01*
G01X19657Y11160D01*
G01X19646Y11160D01*
G01X19636Y11159D01*
G01X19625Y11158D01*
G01X19615Y11157D01*
G01X19604Y11155D01*
G01X19594Y11152D01*
G01X19584Y11150D01*
G01X19574Y11146D01*
G01X19564Y11143D01*
G01X19555Y11139D01*
G01X19545Y11134D01*
G01X19536Y11130D01*
G01X19527Y11124D01*
G01X19518Y11119D01*
G01X19509Y11113D01*
G01X19501Y11107D01*
G01X19492Y11100D01*
G01X19485Y11093D01*
G01X19477Y11086D01*
G01X19470Y11078D01*
G01X19463Y11070D01*
G01X19456Y11062D01*
G01X19450Y11054D01*
G01X19444Y11045D01*
G01X19438Y11036D01*
G01X19433Y11027D01*
G01X19428Y11018D01*
G01X19424Y11008D01*
G01X19420Y10999D01*
G01X19416Y10989D01*
G01X19413Y10979D01*
G01X19410Y10969D01*
G01X19408Y10958D01*
G01X19406Y10948D01*
G01X19405Y10938D01*
G01X19403Y10927D01*
G01X19403Y10917D01*
G01X19403Y10906D01*
G01X19403Y8905D01*
G01X19403Y8894D01*
G01X19403Y8884D01*
G01X19405Y8873D01*
G01X19406Y8863D01*
G01X19408Y8853D01*
G01X19410Y8842D01*
G01X19413Y8832D01*
G01X19416Y8822D01*
G01X19420Y8812D01*
G01X19424Y8803D01*
G01X19428Y8793D01*
G01X19433Y8784D01*
G01X19438Y8775D01*
G01X19444Y8766D01*
G01X19450Y8757D01*
G01X19456Y8749D01*
G01X19463Y8741D01*
G01X19470Y8733D01*
G01X19477Y8725D01*
G01X19485Y8718D01*
G01X19492Y8711D01*
G01X19501Y8704D01*
G01X19509Y8698D01*
G01X19518Y8692D01*
G01X19527Y8687D01*
G01X19536Y8681D01*
G01X19545Y8677D01*
G01X19555Y8672D01*
G01X19564Y8668D01*
G01X19574Y8665D01*
G01X19584Y8661D01*
G01X19594Y8659D01*
G01X19604Y8656D01*
G01X19615Y8654D01*
G01X19625Y8653D01*
G01X19636Y8652D01*
G01X19646Y8651D01*
G01X19657Y8651D01*
G37*
G36*
G01X33319Y8722D02*
G01X33330Y8722D01*
G01X33340Y8723D01*
G01X33351Y8724D01*
G01X33361Y8725D01*
G01X33371Y8727D01*
G01X33382Y8730D01*
G01X33392Y8732D01*
G01X33402Y8736D01*
G01X33412Y8739D01*
G01X33421Y8743D01*
G01X33431Y8748D01*
G01X33440Y8752D01*
G01X33449Y8758D01*
G01X33458Y8763D01*
G01X33467Y8769D01*
G01X33475Y8775D01*
G01X33483Y8782D01*
G01X33491Y8789D01*
G01X33499Y8796D01*
G01X33704Y9001D01*
G01X33265Y9441D01*
G01X32880Y9056D01*
G01X33140Y8796D01*
G01X33147Y8789D01*
G01X33155Y8782D01*
G01X33163Y8775D01*
G01X33172Y8769D01*
G01X33180Y8763D01*
G01X33189Y8758D01*
G01X33198Y8752D01*
G01X33208Y8748D01*
G01X33217Y8743D01*
G01X33227Y8739D01*
G01X33237Y8736D01*
G01X33247Y8732D01*
G01X33257Y8730D01*
G01X33267Y8727D01*
G01X33277Y8725D01*
G01X33288Y8724D01*
G01X33298Y8723D01*
G01X33309Y8722D01*
G01X33319Y8722D01*
G37*
G36*
G01X2150Y38938D02*
G01X2285Y38941D01*
G01X2419Y38958D01*
G01X2551Y38988D01*
G01X2679Y39031D01*
G01X2802Y39087D01*
G01X2919Y39154D01*
G01X3028Y39233D01*
G01X3130Y39322D01*
G01X3221Y39421D01*
G01X3303Y39529D01*
G01X3373Y39644D01*
G01X3432Y39766D01*
G01X3478Y39892D01*
G01X3511Y40023D01*
G01X3531Y40157D01*
G01X3538Y40292D01*
G01X3531Y40426D01*
G01X3511Y40560D01*
G01X3478Y40691D01*
G01X3432Y40817D01*
G01X3373Y40939D01*
G01X3303Y41054D01*
G01X3221Y41162D01*
G01X3130Y41261D01*
G01X3028Y41350D01*
G01X2919Y41429D01*
G01X2802Y41496D01*
G01X2679Y41552D01*
G01X2551Y41595D01*
G01X2419Y41625D01*
G01X2285Y41642D01*
G01X2150Y41645D01*
G01X2016Y41635D01*
G01X1883Y41612D01*
G01X1753Y41575D01*
G01X1627Y41526D01*
G01X1507Y41464D01*
G01X1394Y41391D01*
G01X1288Y41307D01*
G01X1192Y41212D01*
G01X1105Y41109D01*
G01X1029Y40998D01*
G01X964Y40879D01*
G01X912Y40755D01*
G01X872Y40626D01*
G01X845Y40493D01*
G01X832Y40359D01*
G01X832Y40224D01*
G01X845Y40090D01*
G01X872Y39957D01*
G01X912Y39828D01*
G01X964Y39704D01*
G01X1029Y39586D01*
G01X1105Y39474D01*
G01X1192Y39371D01*
G01X1288Y39276D01*
G01X1394Y39192D01*
G01X1507Y39119D01*
G01X1627Y39057D01*
G01X1753Y39008D01*
G01X1883Y38971D01*
G01X2016Y38948D01*
G01X2150Y38938D01*
G37*
G36*
G01X13929Y9202D02*
G01X14104Y9202D01*
G01X14115Y9202D01*
G01X14125Y9203D01*
G01X14136Y9204D01*
G01X14146Y9205D01*
G01X14156Y9207D01*
G01X14166Y9210D01*
G01X14177Y9212D01*
G01X14187Y9216D01*
G01X14196Y9219D01*
G01X14206Y9223D01*
G01X14216Y9228D01*
G01X14225Y9233D01*
G01X14234Y9238D01*
G01X14243Y9243D01*
G01X14252Y9249D01*
G01X14260Y9255D01*
G01X14268Y9262D01*
G01X14276Y9269D01*
G01X14284Y9276D01*
G01X14291Y9284D01*
G01X14298Y9292D01*
G01X14305Y9300D01*
G01X14311Y9308D01*
G01X14317Y9317D01*
G01X14322Y9326D01*
G01X14328Y9335D01*
G01X14332Y9344D01*
G01X14337Y9354D01*
G01X14341Y9364D01*
G01X14344Y9373D01*
G01X14348Y9383D01*
G01X14350Y9394D01*
G01X14353Y9404D01*
G01X14355Y9414D01*
G01X14356Y9425D01*
G01X14357Y9435D01*
G01X14358Y9445D01*
G01X14358Y9456D01*
G01X14358Y9681D01*
G01X13929Y9681D01*
G01X13929Y9202D01*
G37*
G36*
G01X13403Y9202D02*
G01X13578Y9202D01*
G01X13578Y9681D01*
G01X13149Y9681D01*
G01X13149Y9456D01*
G01X13149Y9445D01*
G01X13150Y9435D01*
G01X13151Y9425D01*
G01X13153Y9414D01*
G01X13154Y9404D01*
G01X13157Y9394D01*
G01X13160Y9383D01*
G01X13163Y9373D01*
G01X13166Y9364D01*
G01X13170Y9354D01*
G01X13175Y9344D01*
G01X13180Y9335D01*
G01X13185Y9326D01*
G01X13190Y9317D01*
G01X13196Y9308D01*
G01X13203Y9300D01*
G01X13209Y9292D01*
G01X13216Y9284D01*
G01X13223Y9276D01*
G01X13231Y9269D01*
G01X13239Y9262D01*
G01X13247Y9255D01*
G01X13255Y9249D01*
G01X13264Y9243D01*
G01X13273Y9238D01*
G01X13282Y9233D01*
G01X13292Y9228D01*
G01X13301Y9223D01*
G01X13311Y9219D01*
G01X13321Y9216D01*
G01X13331Y9212D01*
G01X13341Y9210D01*
G01X13351Y9207D01*
G01X13361Y9205D01*
G01X13372Y9204D01*
G01X13382Y9203D01*
G01X13393Y9202D01*
G01X13403Y9202D01*
G37*
G36*
G01X36852Y38926D02*
G01X36987Y38930D01*
G01X37121Y38946D01*
G01X37253Y38976D01*
G01X37381Y39019D01*
G01X37504Y39075D01*
G01X37621Y39142D01*
G01X37730Y39221D01*
G01X37832Y39311D01*
G01X37923Y39410D01*
G01X38005Y39517D01*
G01X38075Y39632D01*
G01X38134Y39754D01*
G01X38180Y39881D01*
G01X38213Y40012D01*
G01X38233Y40145D01*
G01X38240Y40280D01*
G01X38233Y40415D01*
G01X38213Y40548D01*
G01X38180Y40679D01*
G01X38134Y40806D01*
G01X38075Y40927D01*
G01X38005Y41043D01*
G01X37923Y41150D01*
G01X37832Y41249D01*
G01X37730Y41338D01*
G01X37621Y41417D01*
G01X37504Y41485D01*
G01X37381Y41540D01*
G01X37253Y41583D01*
G01X37121Y41613D01*
G01X36987Y41630D01*
G01X36852Y41633D01*
G01X36718Y41623D01*
G01X36585Y41600D01*
G01X36455Y41563D01*
G01X36329Y41514D01*
G01X36209Y41452D01*
G01X36096Y41379D01*
G01X35990Y41295D01*
G01X35894Y41201D01*
G01X35807Y41097D01*
G01X35731Y40986D01*
G01X35666Y40867D01*
G01X35614Y40743D01*
G01X35574Y40614D01*
G01X35547Y40482D01*
G01X35534Y40347D01*
G01X35534Y40212D01*
G01X35547Y40078D01*
G01X35574Y39946D01*
G01X35614Y39817D01*
G01X35666Y39692D01*
G01X35731Y39574D01*
G01X35807Y39462D01*
G01X35894Y39359D01*
G01X35990Y39265D01*
G01X36096Y39180D01*
G01X36209Y39107D01*
G01X36329Y39046D01*
G01X36455Y38996D01*
G01X36585Y38960D01*
G01X36718Y38936D01*
G01X36852Y38926D01*
G37*
G36*
G01X23886Y9202D02*
G01X24061Y9202D01*
G01X24071Y9202D01*
G01X24082Y9203D01*
G01X24092Y9204D01*
G01X24103Y9205D01*
G01X24113Y9207D01*
G01X24123Y9210D01*
G01X24133Y9212D01*
G01X24143Y9216D01*
G01X24153Y9219D01*
G01X24163Y9223D01*
G01X24172Y9228D01*
G01X24182Y9233D01*
G01X24191Y9238D01*
G01X24200Y9243D01*
G01X24209Y9249D01*
G01X24217Y9255D01*
G01X24225Y9262D01*
G01X24233Y9269D01*
G01X24241Y9276D01*
G01X24248Y9284D01*
G01X24255Y9292D01*
G01X24261Y9300D01*
G01X24268Y9308D01*
G01X24274Y9317D01*
G01X24279Y9326D01*
G01X24284Y9335D01*
G01X24289Y9344D01*
G01X24294Y9354D01*
G01X24298Y9364D01*
G01X24301Y9373D01*
G01X24304Y9383D01*
G01X24307Y9394D01*
G01X24310Y9404D01*
G01X24311Y9414D01*
G01X24313Y9425D01*
G01X24314Y9435D01*
G01X24315Y9445D01*
G01X24315Y9456D01*
G01X24315Y9681D01*
G01X23886Y9681D01*
G01X23886Y9202D01*
G37*
G36*
G01X23360Y9202D02*
G01X23535Y9202D01*
G01X23535Y9681D01*
G01X23106Y9681D01*
G01X23106Y9456D01*
G01X23106Y9445D01*
G01X23107Y9435D01*
G01X23108Y9425D01*
G01X23109Y9414D01*
G01X23111Y9404D01*
G01X23114Y9394D01*
G01X23116Y9383D01*
G01X23120Y9373D01*
G01X23123Y9364D01*
G01X23127Y9354D01*
G01X23132Y9344D01*
G01X23136Y9335D01*
G01X23142Y9326D01*
G01X23147Y9317D01*
G01X23153Y9308D01*
G01X23159Y9300D01*
G01X23166Y9292D01*
G01X23173Y9284D01*
G01X23180Y9276D01*
G01X23188Y9269D01*
G01X23196Y9262D01*
G01X23204Y9255D01*
G01X23212Y9249D01*
G01X23221Y9243D01*
G01X23230Y9238D01*
G01X23239Y9233D01*
G01X23248Y9228D01*
G01X23258Y9223D01*
G01X23268Y9219D01*
G01X23277Y9216D01*
G01X23287Y9212D01*
G01X23298Y9210D01*
G01X23308Y9207D01*
G01X23318Y9205D01*
G01X23328Y9204D01*
G01X23339Y9203D01*
G01X23349Y9202D01*
G01X23360Y9202D01*
G37*
G36*
G01X34114Y9412D02*
G01X34319Y9617D01*
G01X34327Y9624D01*
G01X34333Y9632D01*
G01X34340Y9640D01*
G01X34346Y9649D01*
G01X34352Y9657D01*
G01X34358Y9666D01*
G01X34363Y9675D01*
G01X34368Y9685D01*
G01X34372Y9694D01*
G01X34376Y9704D01*
G01X34380Y9714D01*
G01X34383Y9724D01*
G01X34386Y9734D01*
G01X34388Y9744D01*
G01X34390Y9754D01*
G01X34392Y9765D01*
G01X34393Y9775D01*
G01X34393Y9786D01*
G01X34394Y9796D01*
G01X34393Y9807D01*
G01X34393Y9817D01*
G01X34392Y9828D01*
G01X34390Y9838D01*
G01X34388Y9848D01*
G01X34386Y9859D01*
G01X34383Y9869D01*
G01X34380Y9879D01*
G01X34376Y9889D01*
G01X34372Y9898D01*
G01X34368Y9908D01*
G01X34363Y9917D01*
G01X34358Y9926D01*
G01X34352Y9935D01*
G01X34346Y9944D01*
G01X34340Y9952D01*
G01X34333Y9960D01*
G01X34327Y9968D01*
G01X34319Y9976D01*
G01X34060Y10235D01*
G01X33675Y9851D01*
G01X34114Y9412D01*
G37*
G36*
G01X32360Y9576D02*
G01X32745Y9960D01*
G01X32306Y10399D01*
G01X32101Y10194D01*
G01X32093Y10187D01*
G01X32087Y10179D01*
G01X32080Y10171D01*
G01X32074Y10162D01*
G01X32068Y10154D01*
G01X32062Y10145D01*
G01X32057Y10136D01*
G01X32052Y10126D01*
G01X32048Y10117D01*
G01X32044Y10107D01*
G01X32040Y10097D01*
G01X32037Y10087D01*
G01X32034Y10077D01*
G01X32032Y10067D01*
G01X32030Y10057D01*
G01X32028Y10046D01*
G01X32027Y10036D01*
G01X32027Y10025D01*
G01X32026Y10015D01*
G01X32027Y10004D01*
G01X32027Y9994D01*
G01X32028Y9983D01*
G01X32030Y9973D01*
G01X32032Y9963D01*
G01X32034Y9952D01*
G01X32037Y9942D01*
G01X32040Y9932D01*
G01X32044Y9922D01*
G01X32048Y9913D01*
G01X32052Y9903D01*
G01X32057Y9894D01*
G01X32062Y9885D01*
G01X32068Y9876D01*
G01X32074Y9867D01*
G01X32080Y9859D01*
G01X32087Y9851D01*
G01X32093Y9843D01*
G01X32101Y9835D01*
G01X32360Y9576D01*
G37*
G36*
G01X13929Y10130D02*
G01X14358Y10130D01*
G01X14358Y10355D01*
G01X14358Y10366D01*
G01X14357Y10376D01*
G01X14356Y10386D01*
G01X14355Y10397D01*
G01X14353Y10407D01*
G01X14350Y10417D01*
G01X14348Y10428D01*
G01X14344Y10438D01*
G01X14341Y10447D01*
G01X14337Y10457D01*
G01X14332Y10467D01*
G01X14328Y10476D01*
G01X14322Y10485D01*
G01X14317Y10494D01*
G01X14311Y10503D01*
G01X14305Y10511D01*
G01X14298Y10519D01*
G01X14291Y10527D01*
G01X14284Y10535D01*
G01X14276Y10542D01*
G01X14268Y10549D01*
G01X14260Y10556D01*
G01X14252Y10562D01*
G01X14243Y10568D01*
G01X14234Y10573D01*
G01X14225Y10578D01*
G01X14216Y10583D01*
G01X14206Y10588D01*
G01X14196Y10592D01*
G01X14187Y10595D01*
G01X14177Y10599D01*
G01X14166Y10601D01*
G01X14156Y10604D01*
G01X14146Y10606D01*
G01X14136Y10607D01*
G01X14125Y10608D01*
G01X14115Y10609D01*
G01X14104Y10609D01*
G01X13929Y10609D01*
G01X13929Y10130D01*
G37*
G36*
G01X13149Y10130D02*
G01X13578Y10130D01*
G01X13578Y10609D01*
G01X13403Y10609D01*
G01X13393Y10609D01*
G01X13382Y10608D01*
G01X13372Y10607D01*
G01X13361Y10606D01*
G01X13351Y10604D01*
G01X13341Y10601D01*
G01X13331Y10599D01*
G01X13321Y10595D01*
G01X13311Y10592D01*
G01X13301Y10588D01*
G01X13292Y10583D01*
G01X13282Y10578D01*
G01X13273Y10573D01*
G01X13264Y10568D01*
G01X13255Y10562D01*
G01X13247Y10556D01*
G01X13239Y10549D01*
G01X13231Y10542D01*
G01X13223Y10535D01*
G01X13216Y10527D01*
G01X13209Y10519D01*
G01X13203Y10511D01*
G01X13196Y10503D01*
G01X13190Y10494D01*
G01X13185Y10485D01*
G01X13180Y10476D01*
G01X13175Y10467D01*
G01X13170Y10457D01*
G01X13166Y10447D01*
G01X13163Y10438D01*
G01X13160Y10428D01*
G01X13157Y10417D01*
G01X13154Y10407D01*
G01X13153Y10397D01*
G01X13151Y10386D01*
G01X13150Y10376D01*
G01X13149Y10366D01*
G01X13149Y10355D01*
G01X13149Y10130D01*
G37*
G36*
G01X23886Y10130D02*
G01X24315Y10130D01*
G01X24315Y10355D01*
G01X24315Y10366D01*
G01X24314Y10376D01*
G01X24313Y10386D01*
G01X24311Y10397D01*
G01X24310Y10407D01*
G01X24307Y10417D01*
G01X24304Y10428D01*
G01X24301Y10438D01*
G01X24298Y10447D01*
G01X24294Y10457D01*
G01X24289Y10467D01*
G01X24284Y10476D01*
G01X24279Y10485D01*
G01X24274Y10494D01*
G01X24268Y10503D01*
G01X24261Y10511D01*
G01X24255Y10519D01*
G01X24248Y10527D01*
G01X24241Y10535D01*
G01X24233Y10542D01*
G01X24225Y10549D01*
G01X24217Y10556D01*
G01X24209Y10562D01*
G01X24200Y10568D01*
G01X24191Y10573D01*
G01X24182Y10578D01*
G01X24172Y10583D01*
G01X24163Y10588D01*
G01X24153Y10592D01*
G01X24143Y10595D01*
G01X24133Y10599D01*
G01X24123Y10601D01*
G01X24113Y10604D01*
G01X24103Y10606D01*
G01X24092Y10607D01*
G01X24082Y10608D01*
G01X24071Y10609D01*
G01X24061Y10609D01*
G01X23886Y10609D01*
G01X23886Y10130D01*
G37*
G36*
G01X23106Y10130D02*
G01X23535Y10130D01*
G01X23535Y10609D01*
G01X23360Y10609D01*
G01X23349Y10609D01*
G01X23339Y10608D01*
G01X23328Y10607D01*
G01X23318Y10606D01*
G01X23308Y10604D01*
G01X23298Y10601D01*
G01X23287Y10599D01*
G01X23277Y10595D01*
G01X23268Y10592D01*
G01X23258Y10588D01*
G01X23248Y10583D01*
G01X23239Y10578D01*
G01X23230Y10573D01*
G01X23221Y10568D01*
G01X23212Y10562D01*
G01X23204Y10556D01*
G01X23196Y10549D01*
G01X23188Y10542D01*
G01X23180Y10535D01*
G01X23173Y10527D01*
G01X23166Y10519D01*
G01X23159Y10511D01*
G01X23153Y10503D01*
G01X23147Y10494D01*
G01X23142Y10485D01*
G01X23136Y10476D01*
G01X23132Y10467D01*
G01X23127Y10457D01*
G01X23123Y10447D01*
G01X23120Y10438D01*
G01X23116Y10428D01*
G01X23114Y10417D01*
G01X23111Y10407D01*
G01X23109Y10397D01*
G01X23108Y10386D01*
G01X23107Y10376D01*
G01X23106Y10366D01*
G01X23106Y10355D01*
G01X23106Y10130D01*
G37*
G36*
G01X7973Y37607D02*
G01X9171Y37607D01*
G01X9182Y37607D01*
G01X9192Y37608D01*
G01X9203Y37609D01*
G01X9213Y37610D01*
G01X9224Y37612D01*
G01X9234Y37615D01*
G01X9244Y37617D01*
G01X9254Y37621D01*
G01X9264Y37624D01*
G01X9273Y37628D01*
G01X9283Y37633D01*
G01X9292Y37637D01*
G01X9301Y37643D01*
G01X9310Y37648D01*
G01X9319Y37654D01*
G01X9327Y37660D01*
G01X9336Y37667D01*
G01X9343Y37674D01*
G01X9351Y37681D01*
G01X9358Y37689D01*
G01X9365Y37697D01*
G01X9372Y37705D01*
G01X9378Y37713D01*
G01X9384Y37722D01*
G01X9390Y37731D01*
G01X9395Y37740D01*
G01X9400Y37749D01*
G01X9404Y37759D01*
G01X9408Y37768D01*
G01X9412Y37778D01*
G01X9415Y37788D01*
G01X9418Y37798D01*
G01X9420Y37809D01*
G01X9422Y37819D01*
G01X9423Y37829D01*
G01X9425Y37840D01*
G01X9425Y37850D01*
G01X9425Y37861D01*
G01X9425Y39862D01*
G01X9425Y39873D01*
G01X9425Y39883D01*
G01X9423Y39894D01*
G01X9422Y39904D01*
G01X9420Y39914D01*
G01X9418Y39925D01*
G01X9415Y39935D01*
G01X9412Y39945D01*
G01X9408Y39955D01*
G01X9404Y39964D01*
G01X9400Y39974D01*
G01X9395Y39983D01*
G01X9390Y39992D01*
G01X9384Y40001D01*
G01X9378Y40010D01*
G01X9372Y40018D01*
G01X9365Y40026D01*
G01X9358Y40034D01*
G01X9351Y40042D01*
G01X9343Y40049D01*
G01X9336Y40056D01*
G01X9327Y40063D01*
G01X9319Y40069D01*
G01X9310Y40075D01*
G01X9301Y40080D01*
G01X9292Y40086D01*
G01X9283Y40090D01*
G01X9273Y40095D01*
G01X9264Y40099D01*
G01X9254Y40102D01*
G01X9244Y40106D01*
G01X9234Y40108D01*
G01X9224Y40111D01*
G01X9213Y40113D01*
G01X9203Y40114D01*
G01X9192Y40115D01*
G01X9182Y40116D01*
G01X9171Y40116D01*
G01X7973Y40116D01*
G01X7962Y40116D01*
G01X7952Y40115D01*
G01X7941Y40114D01*
G01X7931Y40113D01*
G01X7920Y40111D01*
G01X7910Y40108D01*
G01X7900Y40106D01*
G01X7890Y40102D01*
G01X7880Y40099D01*
G01X7871Y40095D01*
G01X7861Y40090D01*
G01X7852Y40086D01*
G01X7843Y40080D01*
G01X7834Y40075D01*
G01X7825Y40069D01*
G01X7817Y40063D01*
G01X7808Y40056D01*
G01X7801Y40049D01*
G01X7793Y40042D01*
G01X7786Y40034D01*
G01X7779Y40026D01*
G01X7772Y40018D01*
G01X7766Y40010D01*
G01X7760Y40001D01*
G01X7754Y39992D01*
G01X7749Y39983D01*
G01X7744Y39974D01*
G01X7740Y39964D01*
G01X7736Y39955D01*
G01X7732Y39945D01*
G01X7729Y39935D01*
G01X7726Y39925D01*
G01X7724Y39914D01*
G01X7722Y39904D01*
G01X7721Y39894D01*
G01X7719Y39883D01*
G01X7719Y39873D01*
G01X7719Y39862D01*
G01X7719Y37861D01*
G01X7719Y37850D01*
G01X7719Y37840D01*
G01X7721Y37829D01*
G01X7722Y37819D01*
G01X7724Y37809D01*
G01X7726Y37798D01*
G01X7729Y37788D01*
G01X7732Y37778D01*
G01X7736Y37768D01*
G01X7740Y37759D01*
G01X7744Y37749D01*
G01X7749Y37740D01*
G01X7754Y37731D01*
G01X7760Y37722D01*
G01X7766Y37713D01*
G01X7772Y37705D01*
G01X7779Y37697D01*
G01X7786Y37689D01*
G01X7793Y37681D01*
G01X7801Y37674D01*
G01X7808Y37667D01*
G01X7817Y37660D01*
G01X7825Y37654D01*
G01X7834Y37648D01*
G01X7843Y37643D01*
G01X7852Y37637D01*
G01X7861Y37633D01*
G01X7871Y37628D01*
G01X7880Y37624D01*
G01X7890Y37621D01*
G01X7900Y37617D01*
G01X7910Y37615D01*
G01X7920Y37612D01*
G01X7931Y37610D01*
G01X7941Y37609D01*
G01X7952Y37608D01*
G01X7962Y37607D01*
G01X7973Y37607D01*
G37*
G36*
G01X33155Y10370D02*
G01X33540Y10755D01*
G01X33280Y11015D01*
G01X33273Y11022D01*
G01X33265Y11029D01*
G01X33257Y11036D01*
G01X33248Y11042D01*
G01X33240Y11048D01*
G01X33231Y11053D01*
G01X33222Y11059D01*
G01X33212Y11063D01*
G01X33203Y11068D01*
G01X33193Y11072D01*
G01X33183Y11075D01*
G01X33173Y11079D01*
G01X33163Y11081D01*
G01X33153Y11084D01*
G01X33143Y11086D01*
G01X33132Y11087D01*
G01X33122Y11088D01*
G01X33111Y11089D01*
G01X33101Y11089D01*
G01X33090Y11089D01*
G01X33080Y11088D01*
G01X33069Y11087D01*
G01X33059Y11086D01*
G01X33049Y11084D01*
G01X33038Y11081D01*
G01X33028Y11079D01*
G01X33018Y11075D01*
G01X33008Y11072D01*
G01X32999Y11068D01*
G01X32989Y11063D01*
G01X32980Y11059D01*
G01X32971Y11053D01*
G01X32962Y11048D01*
G01X32953Y11042D01*
G01X32945Y11036D01*
G01X32937Y11029D01*
G01X32929Y11022D01*
G01X32921Y11015D01*
G01X32716Y10810D01*
G01X33155Y10370D01*
G37*
G36*
G01X23753Y12095D02*
G01X23809Y12097D01*
G01X23864Y12104D01*
G01X23919Y12116D01*
G01X23972Y12134D01*
G01X24022Y12157D01*
G01X24071Y12184D01*
G01X24116Y12217D01*
G01X24158Y12254D01*
G01X24196Y12295D01*
G01X24229Y12339D01*
G01X24258Y12387D01*
G01X24282Y12437D01*
G01X24301Y12489D01*
G01X24315Y12543D01*
G01X24324Y12598D01*
G01X24326Y12654D01*
G01X24324Y12710D01*
G01X24315Y12765D01*
G01X24301Y12819D01*
G01X24282Y12871D01*
G01X24258Y12921D01*
G01X24229Y12969D01*
G01X24196Y13013D01*
G01X24158Y13054D01*
G01X24116Y13091D01*
G01X24071Y13124D01*
G01X24022Y13151D01*
G01X23972Y13174D01*
G01X23919Y13192D01*
G01X23864Y13205D01*
G01X23809Y13211D01*
G01X23753Y13213D01*
G01X23698Y13209D01*
G01X23643Y13199D01*
G01X23589Y13184D01*
G01X23537Y13164D01*
G01X23488Y13138D01*
G01X23441Y13108D01*
G01X23397Y13073D01*
G01X23358Y13034D01*
G01X23344Y13018D01*
G01X21999Y13018D01*
G01X18603Y16414D01*
G01X18605Y16456D01*
G01X18602Y16512D01*
G01X18594Y16567D01*
G01X18580Y16621D01*
G01X18561Y16673D01*
G01X18548Y16702D01*
G01X20010Y16702D01*
G01X20024Y16686D01*
G01X20064Y16647D01*
G01X20107Y16612D01*
G01X20154Y16582D01*
G01X20204Y16556D01*
G01X20256Y16536D01*
G01X20309Y16521D01*
G01X20364Y16511D01*
G01X20420Y16507D01*
G01X20476Y16508D01*
G01X20531Y16515D01*
G01X20585Y16528D01*
G01X20638Y16545D01*
G01X20689Y16568D01*
G01X20737Y16596D01*
G01X20782Y16629D01*
G01X20824Y16666D01*
G01X20862Y16706D01*
G01X20896Y16751D01*
G01X20925Y16798D01*
G01X20949Y16849D01*
G01X20968Y16901D01*
G01X20982Y16955D01*
G01X20990Y17010D01*
G01X20993Y17066D01*
G01X20990Y17121D01*
G01X20982Y17177D01*
G01X20968Y17231D01*
G01X20949Y17283D01*
G01X20925Y17333D01*
G01X20896Y17381D01*
G01X20862Y17425D01*
G01X20824Y17466D01*
G01X20798Y17489D01*
G01X28512Y17489D01*
G01X28525Y17473D01*
G01X28565Y17434D01*
G01X28609Y17399D01*
G01X28656Y17369D01*
G01X28705Y17344D01*
G01X28757Y17323D01*
G01X28811Y17308D01*
G01X28866Y17299D01*
G01X28921Y17294D01*
G01X28977Y17296D01*
G01X29032Y17303D01*
G01X29087Y17315D01*
G01X29139Y17333D01*
G01X29190Y17356D01*
G01X29238Y17384D01*
G01X29284Y17416D01*
G01X29326Y17453D01*
G01X29363Y17494D01*
G01X29397Y17538D01*
G01X29426Y17586D01*
G01X29450Y17636D01*
G01X29469Y17688D01*
G01X29483Y17742D01*
G01X29491Y17798D01*
G01X29494Y17853D01*
G01X29491Y17909D01*
G01X29483Y17964D01*
G01X29469Y18018D01*
G01X29450Y18070D01*
G01X29426Y18120D01*
G01X29397Y18168D01*
G01X29363Y18212D01*
G01X29326Y18253D01*
G01X29284Y18290D01*
G01X29238Y18323D01*
G01X29190Y18351D01*
G01X29139Y18374D01*
G01X29087Y18391D01*
G01X29032Y18404D01*
G01X28977Y18411D01*
G01X28921Y18412D01*
G01X28866Y18408D01*
G01X28811Y18398D01*
G01X28757Y18383D01*
G01X28705Y18363D01*
G01X28656Y18337D01*
G01X28609Y18307D01*
G01X28565Y18272D01*
G01X28525Y18233D01*
G01X28512Y18217D01*
G01X23985Y18217D01*
G01X24181Y18414D01*
G01X24190Y18423D01*
G01X24199Y18433D01*
G01X24207Y18443D01*
G01X24215Y18453D01*
G01X24223Y18463D01*
G01X24230Y18474D01*
G01X24237Y18485D01*
G01X24243Y18497D01*
G01X24249Y18508D01*
G01X24255Y18520D01*
G01X24260Y18532D01*
G01X24265Y18544D01*
G01X24269Y18556D01*
G01X24273Y18568D01*
G01X24276Y18581D01*
G01X24279Y18594D01*
G01X24282Y18606D01*
G01X24284Y18619D01*
G01X24286Y18632D01*
G01X24287Y18645D01*
G01X24288Y18658D01*
G01X24288Y18671D01*
G01X24288Y19484D01*
G01X24288Y19497D01*
G01X24287Y19510D01*
G01X24286Y19523D01*
G01X24284Y19536D01*
G01X24282Y19549D01*
G01X24279Y19562D01*
G01X24276Y19575D01*
G01X24273Y19587D01*
G01X24269Y19600D01*
G01X24264Y19612D01*
G01X24259Y19624D01*
G01X24254Y19637D01*
G01X24248Y19648D01*
G01X24242Y19660D01*
G01X24236Y19671D01*
G01X24229Y19682D01*
G01X24221Y19693D01*
G01X24214Y19704D01*
G01X24206Y19714D01*
G01X24197Y19724D01*
G01X24188Y19734D01*
G01X24179Y19743D01*
G01X23493Y20419D01*
G01X23493Y20593D01*
G01X25216Y22316D01*
G01X25216Y19905D01*
G01X25210Y19900D01*
G01X25170Y19862D01*
G01X25134Y19819D01*
G01X25103Y19773D01*
G01X25076Y19724D01*
G01X25055Y19672D01*
G01X25038Y19619D01*
G01X25027Y19565D01*
G01X25022Y19509D01*
G01X25022Y19453D01*
G01X25027Y19398D01*
G01X25038Y19343D01*
G01X25055Y19290D01*
G01X25076Y19239D01*
G01X25103Y19190D01*
G01X25134Y19144D01*
G01X25170Y19101D01*
G01X25210Y19062D01*
G01X25254Y19027D01*
G01X25300Y18997D01*
G01X25350Y18972D01*
G01X25402Y18951D01*
G01X25455Y18936D01*
G01X25510Y18927D01*
G01X25566Y18922D01*
G01X25622Y18924D01*
G01X25677Y18931D01*
G01X25731Y18943D01*
G01X25784Y18961D01*
G01X25835Y18984D01*
G01X25883Y19012D01*
G01X25928Y19044D01*
G01X25970Y19081D01*
G01X26008Y19122D01*
G01X26042Y19166D01*
G01X26071Y19214D01*
G01X26095Y19264D01*
G01X26114Y19317D01*
G01X26128Y19371D01*
G01X26136Y19426D01*
G01X26139Y19481D01*
G01X26136Y19537D01*
G01X26128Y19592D01*
G01X26114Y19646D01*
G01X26095Y19698D01*
G01X26071Y19749D01*
G01X26042Y19796D01*
G01X26008Y19841D01*
G01X25970Y19881D01*
G01X25944Y19905D01*
G01X25944Y22203D01*
G01X27288Y23547D01*
G01X27316Y23545D01*
G01X27372Y23547D01*
G01X27427Y23554D01*
G01X27481Y23566D01*
G01X27534Y23584D01*
G01X27585Y23607D01*
G01X27633Y23635D01*
G01X27678Y23667D01*
G01X27720Y23704D01*
G01X27758Y23745D01*
G01X27792Y23789D01*
G01X27821Y23837D01*
G01X27845Y23887D01*
G01X27864Y23939D01*
G01X27878Y23993D01*
G01X27886Y24048D01*
G01X27889Y24104D01*
G01X27886Y24160D01*
G01X27878Y24215D01*
G01X27864Y24269D01*
G01X27845Y24321D01*
G01X27821Y24371D01*
G01X27792Y24419D01*
G01X27758Y24463D01*
G01X27720Y24504D01*
G01X27678Y24541D01*
G01X27633Y24574D01*
G01X27585Y24602D01*
G01X27534Y24624D01*
G01X27527Y24627D01*
G01X28062Y25162D01*
G01X30449Y25162D01*
G01X30462Y25163D01*
G01X30475Y25163D01*
G01X30488Y25165D01*
G01X30501Y25166D01*
G01X30514Y25168D01*
G01X30526Y25171D01*
G01X30539Y25174D01*
G01X30552Y25177D01*
G01X30564Y25181D01*
G01X30576Y25185D01*
G01X30588Y25190D01*
G01X30600Y25195D01*
G01X30612Y25201D01*
G01X30623Y25207D01*
G01X30635Y25213D01*
G01X30646Y25220D01*
G01X30657Y25227D01*
G01X30667Y25235D01*
G01X30677Y25243D01*
G01X30687Y25251D01*
G01X30697Y25260D01*
G01X30706Y25269D01*
G01X36711Y31274D01*
G01X36720Y31283D01*
G01X36729Y31293D01*
G01X36737Y31303D01*
G01X36745Y31313D01*
G01X36753Y31323D01*
G01X36760Y31334D01*
G01X36767Y31345D01*
G01X36773Y31357D01*
G01X36779Y31368D01*
G01X36785Y31380D01*
G01X36790Y31392D01*
G01X36795Y31404D01*
G01X36799Y31416D01*
G01X36803Y31428D01*
G01X36806Y31441D01*
G01X36809Y31454D01*
G01X36812Y31466D01*
G01X36814Y31479D01*
G01X36816Y31492D01*
G01X36817Y31505D01*
G01X36817Y31518D01*
G01X36818Y31531D01*
G01X36818Y34968D01*
G01X36817Y34981D01*
G01X36817Y34994D01*
G01X36816Y35007D01*
G01X36814Y35019D01*
G01X36812Y35032D01*
G01X36809Y35045D01*
G01X36806Y35058D01*
G01X36803Y35070D01*
G01X36799Y35083D01*
G01X36795Y35095D01*
G01X36790Y35107D01*
G01X36785Y35119D01*
G01X36779Y35131D01*
G01X36773Y35142D01*
G01X36767Y35153D01*
G01X36760Y35164D01*
G01X36753Y35175D01*
G01X36745Y35186D01*
G01X36737Y35196D01*
G01X36729Y35206D01*
G01X36720Y35216D01*
G01X36711Y35225D01*
G01X35507Y36429D01*
G01X35501Y36434D01*
G01X35497Y36438D01*
G01X35496Y36440D01*
G01X35494Y36442D01*
G01X35489Y36446D01*
G01X35484Y36450D01*
G01X35482Y36452D01*
G01X35480Y36453D01*
G01X35475Y36457D01*
G01X35469Y36462D01*
G01X35468Y36463D01*
G01X35466Y36465D01*
G01X35460Y36469D01*
G01X35455Y36472D01*
G01X35453Y36474D01*
G01X35451Y36475D01*
G01X35445Y36479D01*
G01X35439Y36482D01*
G01X35437Y36483D01*
G01X35436Y36485D01*
G01X35430Y36488D01*
G01X35424Y36491D01*
G01X35421Y36493D01*
G01X35420Y36493D01*
G01X35415Y36496D01*
G01X35408Y36500D01*
G01X35405Y36501D01*
G01X35403Y36502D01*
G01X35398Y36504D01*
G01X35391Y36507D01*
G01X35389Y36508D01*
G01X35387Y36509D01*
G01X35381Y36511D01*
G01X35374Y36514D01*
G01X35372Y36514D01*
G01X35370Y36515D01*
G01X35363Y36517D01*
G01X35357Y36519D01*
G01X35355Y36520D01*
G01X35353Y36521D01*
G01X35346Y36523D01*
G01X35339Y36524D01*
G01X35337Y36525D01*
G01X35335Y36525D01*
G01X35329Y36527D01*
G01X35322Y36528D01*
G01X35319Y36529D01*
G01X35317Y36529D01*
G01X35311Y36530D01*
G01X35304Y36532D01*
G01X35301Y36532D01*
G01X35299Y36532D01*
G01X35294Y36533D01*
G01X35286Y36534D01*
G01X35283Y36534D01*
G01X35281Y36534D01*
G01X35275Y36535D01*
G01X35268Y36535D01*
G01X35266Y36535D01*
G01X35263Y36535D01*
G01X35256Y36535D01*
G01X35250Y36536D01*
G01X35239Y36536D01*
G01X35239Y36771D01*
G01X35239Y36781D01*
G01X35238Y36792D01*
G01X35237Y36802D01*
G01X35235Y36813D01*
G01X35233Y36823D01*
G01X35231Y36833D01*
G01X35228Y36843D01*
G01X35225Y36853D01*
G01X35221Y36863D01*
G01X35217Y36873D01*
G01X35213Y36882D01*
G01X35208Y36892D01*
G01X35203Y36901D01*
G01X35197Y36910D01*
G01X35191Y36919D01*
G01X35185Y36927D01*
G01X35179Y36935D01*
G01X35172Y36943D01*
G01X35164Y36951D01*
G01X35157Y36958D01*
G01X35149Y36965D01*
G01X35141Y36971D01*
G01X35132Y36978D01*
G01X35124Y36984D01*
G01X35115Y36989D01*
G01X35106Y36994D01*
G01X35096Y36999D01*
G01X35087Y37004D01*
G01X35077Y37008D01*
G01X35067Y37011D01*
G01X35057Y37014D01*
G01X35047Y37017D01*
G01X35037Y37019D01*
G01X35027Y37021D01*
G01X35016Y37023D01*
G01X35006Y37024D01*
G01X34995Y37025D01*
G01X34985Y37025D01*
G01X32983Y37025D01*
G01X32973Y37025D01*
G01X32962Y37024D01*
G01X32952Y37023D01*
G01X32941Y37021D01*
G01X32931Y37019D01*
G01X32921Y37017D01*
G01X32911Y37014D01*
G01X32901Y37011D01*
G01X32891Y37008D01*
G01X32881Y37004D01*
G01X32872Y36999D01*
G01X32862Y36994D01*
G01X32853Y36989D01*
G01X32844Y36984D01*
G01X32836Y36978D01*
G01X32827Y36971D01*
G01X32819Y36965D01*
G01X32811Y36958D01*
G01X32804Y36951D01*
G01X32796Y36943D01*
G01X32789Y36935D01*
G01X32783Y36927D01*
G01X32777Y36919D01*
G01X32771Y36910D01*
G01X32765Y36901D01*
G01X32760Y36892D01*
G01X32755Y36882D01*
G01X32751Y36873D01*
G01X32747Y36863D01*
G01X32743Y36853D01*
G01X32740Y36843D01*
G01X32737Y36833D01*
G01X32735Y36823D01*
G01X32733Y36813D01*
G01X32731Y36802D01*
G01X32730Y36792D01*
G01X32729Y36781D01*
G01X32729Y36771D01*
G01X32729Y35572D01*
G01X32729Y35562D01*
G01X32730Y35551D01*
G01X32731Y35541D01*
G01X32733Y35530D01*
G01X32735Y35520D01*
G01X32737Y35510D01*
G01X32740Y35500D01*
G01X32743Y35490D01*
G01X32747Y35480D01*
G01X32751Y35470D01*
G01X32755Y35460D01*
G01X32760Y35451D01*
G01X32765Y35442D01*
G01X32771Y35433D01*
G01X32777Y35424D01*
G01X32783Y35416D01*
G01X32789Y35408D01*
G01X32796Y35400D01*
G01X32804Y35392D01*
G01X32811Y35385D01*
G01X32819Y35378D01*
G01X32827Y35372D01*
G01X32836Y35365D01*
G01X32844Y35359D01*
G01X32853Y35354D01*
G01X32862Y35349D01*
G01X32872Y35344D01*
G01X32881Y35339D01*
G01X32891Y35335D01*
G01X32901Y35332D01*
G01X32911Y35329D01*
G01X32921Y35326D01*
G01X32931Y35323D01*
G01X32941Y35321D01*
G01X32952Y35320D01*
G01X32962Y35319D01*
G01X32973Y35318D01*
G01X32983Y35318D01*
G01X34985Y35318D01*
G01X34995Y35318D01*
G01X35006Y35319D01*
G01X35016Y35320D01*
G01X35027Y35321D01*
G01X35037Y35323D01*
G01X35047Y35326D01*
G01X35057Y35329D01*
G01X35067Y35332D01*
G01X35077Y35335D01*
G01X35087Y35339D01*
G01X35096Y35344D01*
G01X35106Y35349D01*
G01X35115Y35354D01*
G01X35124Y35359D01*
G01X35132Y35365D01*
G01X35141Y35372D01*
G01X35149Y35378D01*
G01X35157Y35385D01*
G01X35164Y35392D01*
G01X35172Y35400D01*
G01X35179Y35408D01*
G01X35185Y35416D01*
G01X35191Y35424D01*
G01X35197Y35433D01*
G01X35203Y35442D01*
G01X35208Y35451D01*
G01X35213Y35460D01*
G01X35217Y35470D01*
G01X35221Y35480D01*
G01X35225Y35490D01*
G01X35228Y35500D01*
G01X35231Y35510D01*
G01X35233Y35520D01*
G01X35235Y35530D01*
G01X35237Y35541D01*
G01X35238Y35551D01*
G01X35239Y35562D01*
G01X35239Y35572D01*
G01X35239Y35668D01*
G01X36090Y34817D01*
G01X36090Y31682D01*
G01X30298Y25891D01*
G01X27912Y25891D01*
G01X27899Y25890D01*
G01X27886Y25890D01*
G01X27873Y25888D01*
G01X27860Y25887D01*
G01X27847Y25885D01*
G01X27834Y25882D01*
G01X27822Y25879D01*
G01X27809Y25876D01*
G01X27797Y25872D01*
G01X27784Y25868D01*
G01X27772Y25863D01*
G01X27760Y25858D01*
G01X27749Y25852D01*
G01X27737Y25846D01*
G01X27726Y25840D01*
G01X27715Y25833D01*
G01X27704Y25826D01*
G01X27693Y25818D01*
G01X27683Y25810D01*
G01X27673Y25802D01*
G01X27664Y25793D01*
G01X27654Y25784D01*
G01X22871Y21001D01*
G01X22862Y20992D01*
G01X22854Y20982D01*
G01X22845Y20972D01*
G01X22837Y20962D01*
G01X22830Y20951D01*
G01X22823Y20940D01*
G01X22816Y20929D01*
G01X22809Y20918D01*
G01X22803Y20907D01*
G01X22798Y20895D01*
G01X22792Y20883D01*
G01X22788Y20871D01*
G01X22783Y20859D01*
G01X22779Y20846D01*
G01X22776Y20834D01*
G01X22773Y20821D01*
G01X22771Y20808D01*
G01X22768Y20795D01*
G01X22767Y20783D01*
G01X22766Y20770D01*
G01X22765Y20757D01*
G01X22765Y20744D01*
G01X22765Y20630D01*
G01X21670Y20630D01*
G01X21637Y20666D01*
G01X21595Y20703D01*
G01X21550Y20736D01*
G01X21502Y20764D01*
G01X21451Y20787D01*
G01X21398Y20804D01*
G01X21344Y20817D01*
G01X21288Y20824D01*
G01X21233Y20825D01*
G01X21177Y20821D01*
G01X21122Y20811D01*
G01X21069Y20796D01*
G01X21017Y20776D01*
G01X20967Y20750D01*
G01X20920Y20720D01*
G01X20910Y20711D01*
G01X20910Y31408D01*
G01X24060Y31408D01*
G01X24074Y31391D01*
G01X24114Y31352D01*
G01X24158Y31317D01*
G01X24205Y31287D01*
G01X24254Y31262D01*
G01X24306Y31241D01*
G01X24360Y31226D01*
G01X24415Y31217D01*
G01X24470Y31213D01*
G01X24526Y31214D01*
G01X24581Y31221D01*
G01X24635Y31233D01*
G01X24688Y31251D01*
G01X24739Y31274D01*
G01X24787Y31302D01*
G01X24833Y31334D01*
G01X24874Y31371D01*
G01X24912Y31412D01*
G01X24946Y31456D01*
G01X24975Y31504D01*
G01X24999Y31554D01*
G01X25018Y31607D01*
G01X25032Y31661D01*
G01X25040Y31716D01*
G01X25043Y31771D01*
G01X25040Y31827D01*
G01X25032Y31882D01*
G01X25018Y31936D01*
G01X24999Y31988D01*
G01X24975Y32039D01*
G01X24946Y32086D01*
G01X24912Y32131D01*
G01X24874Y32172D01*
G01X24833Y32208D01*
G01X24787Y32241D01*
G01X24739Y32269D01*
G01X24688Y32292D01*
G01X24635Y32309D01*
G01X24581Y32322D01*
G01X24526Y32329D01*
G01X24470Y32330D01*
G01X24415Y32326D01*
G01X24360Y32316D01*
G01X24306Y32301D01*
G01X24254Y32281D01*
G01X24205Y32255D01*
G01X24158Y32225D01*
G01X24114Y32190D01*
G01X24074Y32152D01*
G01X24062Y32136D01*
G01X20900Y32136D01*
G01X20899Y32137D01*
G01X20898Y32142D01*
G01X20897Y32146D01*
G01X20896Y32150D01*
G01X20895Y32155D01*
G01X20893Y32159D01*
G01X20892Y32163D01*
G01X20891Y32168D01*
G01X20889Y32172D01*
G01X20888Y32176D01*
G01X20886Y32181D01*
G01X20884Y32185D01*
G01X20883Y32188D01*
G01X20881Y32193D01*
G01X20879Y32198D01*
G01X20877Y32201D01*
G01X20875Y32205D01*
G01X20874Y32210D01*
G01X20871Y32214D01*
G01X20869Y32218D01*
G01X20867Y32222D01*
G01X20865Y32226D01*
G01X20863Y32230D01*
G01X20861Y32234D01*
G01X20859Y32237D01*
G01X20856Y32242D01*
G01X20853Y32246D01*
G01X20851Y32249D01*
G01X20849Y32252D01*
G01X20846Y32257D01*
G01X20844Y32261D01*
G01X20841Y32264D01*
G01X20838Y32268D01*
G01X20836Y32272D01*
G01X20833Y32275D01*
G01X20830Y32279D01*
G01X20827Y32282D01*
G01X20824Y32286D01*
G01X20821Y32289D01*
G01X20818Y32293D01*
G01X20815Y32296D01*
G01X20812Y32299D01*
G01X20809Y32303D01*
G01X20806Y32306D01*
G01X20803Y32309D01*
G01X20800Y32312D01*
G01X20797Y32315D01*
G01X20793Y32319D01*
G01X20789Y32322D01*
G01X20786Y32325D01*
G01X20783Y32328D01*
G01X20780Y32331D01*
G01X20776Y32334D01*
G01X20773Y32336D01*
G01X20769Y32339D01*
G01X20765Y32342D01*
G01X20762Y32345D01*
G01X20758Y32347D01*
G01X20754Y32350D01*
G01X20751Y32353D01*
G01X20746Y32355D01*
G01X20743Y32358D01*
G01X20740Y32359D01*
G01X20735Y32362D01*
G01X20731Y32365D01*
G01X20728Y32367D01*
G01X20724Y32369D01*
G01X20720Y32371D01*
G01X20716Y32374D01*
G01X20712Y32376D01*
G01X20708Y32378D01*
G01X20703Y32380D01*
G01X20699Y32382D01*
G01X20695Y32384D01*
G01X20691Y32385D01*
G01X20687Y32387D01*
G01X20682Y32389D01*
G01X20679Y32391D01*
G01X20675Y32392D01*
G01X20670Y32394D01*
G01X20666Y32395D01*
G01X20661Y32397D01*
G01X20657Y32398D01*
G01X20653Y32400D01*
G01X20648Y32401D01*
G01X20644Y32402D01*
G01X20640Y32403D01*
G01X20635Y32405D01*
G01X20631Y32406D01*
G01X20627Y32407D01*
G01X20622Y32408D01*
G01X20618Y32409D01*
G01X20613Y32409D01*
G01X20609Y32410D01*
G01X20605Y32411D01*
G01X20600Y32412D01*
G01X20595Y32412D01*
G01X20591Y32413D01*
G01X20586Y32413D01*
G01X20582Y32414D01*
G01X20577Y32414D01*
G01X20573Y32415D01*
G01X20568Y32415D01*
G01X20564Y32415D01*
G01X20560Y32415D01*
G01X20555Y32416D01*
G01X20550Y32416D01*
G01X20546Y32416D01*
G01X7558Y32416D01*
G01X7525Y32452D01*
G01X7483Y32489D01*
G01X7438Y32521D01*
G01X7389Y32549D01*
G01X7339Y32572D01*
G01X7286Y32590D01*
G01X7231Y32602D01*
G01X7176Y32609D01*
G01X7120Y32611D01*
G01X7065Y32606D01*
G01X7010Y32597D01*
G01X6956Y32582D01*
G01X6904Y32561D01*
G01X6886Y32552D01*
G01X6886Y33110D01*
G01X11115Y37339D01*
G01X11121Y37345D01*
G01X11125Y37349D01*
G01X11126Y37351D01*
G01X11128Y37352D01*
G01X11132Y37357D01*
G01X11137Y37363D01*
G01X11138Y37365D01*
G01X11140Y37366D01*
G01X11144Y37371D01*
G01X11148Y37377D01*
G01X11149Y37379D01*
G01X11151Y37380D01*
G01X11155Y37386D01*
G01X11159Y37392D01*
G01X11160Y37393D01*
G01X11161Y37395D01*
G01X11165Y37401D01*
G01X11169Y37407D01*
G01X11170Y37409D01*
G01X11171Y37411D01*
G01X11174Y37416D01*
G01X11178Y37422D01*
G01X11179Y37425D01*
G01X11180Y37427D01*
G01X11182Y37432D01*
G01X11186Y37439D01*
G01X11187Y37441D01*
G01X11188Y37443D01*
G01X11190Y37448D01*
G01X11193Y37455D01*
G01X11194Y37457D01*
G01X11195Y37459D01*
G01X11197Y37466D01*
G01X11200Y37472D01*
G01X11201Y37474D01*
G01X11202Y37476D01*
G01X11204Y37483D01*
G01X11206Y37489D01*
G01X11206Y37491D01*
G01X11207Y37494D01*
G01X11209Y37501D01*
G01X11211Y37507D01*
G01X11211Y37509D01*
G01X11212Y37511D01*
G01X11213Y37518D01*
G01X11215Y37524D01*
G01X11215Y37527D01*
G01X11216Y37529D01*
G01X11217Y37535D01*
G01X11218Y37542D01*
G01X11218Y37545D01*
G01X11219Y37547D01*
G01X11219Y37552D01*
G01X11220Y37560D01*
G01X11220Y37563D01*
G01X11221Y37565D01*
G01X11221Y37572D01*
G01X11222Y37578D01*
G01X11222Y37581D01*
G01X11222Y37583D01*
G01X11222Y37590D01*
G01X11222Y37597D01*
G01X11222Y37607D01*
G01X11457Y37607D01*
G01X11468Y37607D01*
G01X11478Y37608D01*
G01X11489Y37609D01*
G01X11499Y37610D01*
G01X11510Y37612D01*
G01X11520Y37615D01*
G01X11530Y37617D01*
G01X11540Y37621D01*
G01X11550Y37624D01*
G01X11559Y37628D01*
G01X11569Y37633D01*
G01X11578Y37637D01*
G01X11587Y37643D01*
G01X11596Y37648D01*
G01X11605Y37654D01*
G01X11613Y37660D01*
G01X11622Y37667D01*
G01X11629Y37674D01*
G01X11637Y37681D01*
G01X11644Y37689D01*
G01X11651Y37697D01*
G01X11658Y37705D01*
G01X11664Y37713D01*
G01X11670Y37722D01*
G01X11676Y37731D01*
G01X11681Y37740D01*
G01X11686Y37749D01*
G01X11690Y37759D01*
G01X11694Y37768D01*
G01X11698Y37778D01*
G01X11701Y37788D01*
G01X11704Y37798D01*
G01X11706Y37809D01*
G01X11708Y37819D01*
G01X11709Y37829D01*
G01X11711Y37840D01*
G01X11711Y37850D01*
G01X11711Y37861D01*
G01X11711Y39831D01*
G01X11748Y39852D01*
G01X11793Y39885D01*
G01X11835Y39922D01*
G01X11873Y39963D01*
G01X11907Y40007D01*
G01X11936Y40055D01*
G01X11960Y40105D01*
G01X11979Y40157D01*
G01X11993Y40211D01*
G01X12001Y40266D01*
G01X12002Y40278D01*
G01X32769Y40278D01*
G01X32769Y40042D01*
G01X32769Y40032D01*
G01X32770Y40021D01*
G01X32771Y40011D01*
G01X32773Y40000D01*
G01X32775Y39990D01*
G01X32777Y39980D01*
G01X32780Y39970D01*
G01X32783Y39960D01*
G01X32787Y39950D01*
G01X32791Y39940D01*
G01X32795Y39930D01*
G01X32800Y39921D01*
G01X32805Y39912D01*
G01X32811Y39903D01*
G01X32817Y39894D01*
G01X32823Y39886D01*
G01X32829Y39878D01*
G01X32836Y39870D01*
G01X32844Y39862D01*
G01X32851Y39855D01*
G01X32859Y39848D01*
G01X32867Y39842D01*
G01X32876Y39835D01*
G01X32884Y39829D01*
G01X32893Y39824D01*
G01X32902Y39819D01*
G01X32912Y39814D01*
G01X32921Y39809D01*
G01X32931Y39805D01*
G01X32941Y39802D01*
G01X32951Y39799D01*
G01X32961Y39796D01*
G01X32971Y39793D01*
G01X32981Y39791D01*
G01X32992Y39790D01*
G01X33002Y39789D01*
G01X33013Y39788D01*
G01X33023Y39788D01*
G01X34362Y39788D01*
G01X34945Y39205D01*
G01X32983Y39205D01*
G01X32973Y39205D01*
G01X32962Y39204D01*
G01X32952Y39203D01*
G01X32941Y39201D01*
G01X32931Y39199D01*
G01X32921Y39197D01*
G01X32911Y39194D01*
G01X32901Y39191D01*
G01X32891Y39188D01*
G01X32881Y39184D01*
G01X32872Y39179D01*
G01X32862Y39174D01*
G01X32853Y39169D01*
G01X32844Y39164D01*
G01X32836Y39158D01*
G01X32827Y39151D01*
G01X32819Y39145D01*
G01X32811Y39138D01*
G01X32804Y39131D01*
G01X32796Y39123D01*
G01X32789Y39115D01*
G01X32783Y39107D01*
G01X32777Y39099D01*
G01X32771Y39090D01*
G01X32765Y39081D01*
G01X32760Y39072D01*
G01X32756Y39064D01*
G01X32434Y39385D01*
G01X32438Y39397D01*
G01X32452Y39451D01*
G01X32460Y39506D01*
G01X32463Y39562D01*
G01X32460Y39617D01*
G01X32452Y39672D01*
G01X32438Y39726D01*
G01X32419Y39779D01*
G01X32395Y39829D01*
G01X32366Y39876D01*
G01X32332Y39921D01*
G01X32294Y39962D01*
G01X32252Y39999D01*
G01X32207Y40031D01*
G01X32159Y40059D01*
G01X32108Y40082D01*
G01X32055Y40100D01*
G01X32001Y40112D01*
G01X31946Y40119D01*
G01X31890Y40120D01*
G01X31834Y40116D01*
G01X31780Y40107D01*
G01X31726Y40091D01*
G01X31674Y40071D01*
G01X31624Y40046D01*
G01X31578Y40015D01*
G01X31534Y39981D01*
G01X31494Y39942D01*
G01X31458Y39899D01*
G01X31427Y39853D01*
G01X31400Y39804D01*
G01X31379Y39753D01*
G01X31362Y39699D01*
G01X31351Y39645D01*
G01X31346Y39589D01*
G01X31346Y39534D01*
G01X31351Y39478D01*
G01X31362Y39424D01*
G01X31379Y39370D01*
G01X31400Y39319D01*
G01X31427Y39270D01*
G01X31458Y39224D01*
G01X31494Y39181D01*
G01X31534Y39142D01*
G01X31578Y39108D01*
G01X31624Y39077D01*
G01X31674Y39052D01*
G01X31726Y39032D01*
G01X31771Y39019D01*
G01X32696Y38094D01*
G01X32705Y38085D01*
G01X32715Y38076D01*
G01X32725Y38068D01*
G01X32729Y38064D01*
G01X32729Y37752D01*
G01X32729Y37742D01*
G01X32730Y37731D01*
G01X32731Y37721D01*
G01X32733Y37710D01*
G01X32735Y37700D01*
G01X32737Y37690D01*
G01X32740Y37680D01*
G01X32743Y37670D01*
G01X32747Y37660D01*
G01X32751Y37650D01*
G01X32755Y37640D01*
G01X32760Y37631D01*
G01X32765Y37622D01*
G01X32771Y37613D01*
G01X32777Y37604D01*
G01X32783Y37596D01*
G01X32789Y37588D01*
G01X32796Y37580D01*
G01X32804Y37572D01*
G01X32811Y37565D01*
G01X32819Y37558D01*
G01X32827Y37552D01*
G01X32836Y37545D01*
G01X32844Y37539D01*
G01X32853Y37534D01*
G01X32862Y37529D01*
G01X32872Y37524D01*
G01X32881Y37519D01*
G01X32891Y37515D01*
G01X32901Y37512D01*
G01X32911Y37509D01*
G01X32921Y37506D01*
G01X32931Y37503D01*
G01X32941Y37501D01*
G01X32952Y37500D01*
G01X32962Y37499D01*
G01X32973Y37498D01*
G01X32983Y37498D01*
G01X34985Y37498D01*
G01X34995Y37498D01*
G01X35006Y37499D01*
G01X35016Y37500D01*
G01X35027Y37501D01*
G01X35037Y37503D01*
G01X35047Y37506D01*
G01X35057Y37509D01*
G01X35067Y37512D01*
G01X35077Y37515D01*
G01X35087Y37519D01*
G01X35096Y37524D01*
G01X35106Y37529D01*
G01X35115Y37534D01*
G01X35124Y37539D01*
G01X35132Y37545D01*
G01X35141Y37552D01*
G01X35149Y37558D01*
G01X35157Y37565D01*
G01X35164Y37572D01*
G01X35172Y37580D01*
G01X35179Y37588D01*
G01X35185Y37596D01*
G01X35191Y37604D01*
G01X35197Y37613D01*
G01X35203Y37622D01*
G01X35208Y37631D01*
G01X35213Y37640D01*
G01X35217Y37650D01*
G01X35221Y37660D01*
G01X35225Y37670D01*
G01X35228Y37680D01*
G01X35231Y37690D01*
G01X35233Y37700D01*
G01X35235Y37710D01*
G01X35237Y37721D01*
G01X35238Y37731D01*
G01X35239Y37742D01*
G01X35239Y37752D01*
G01X35239Y38911D01*
G01X35813Y38337D01*
G01X35811Y38323D01*
G01X35811Y38267D01*
G01X35817Y38212D01*
G01X35828Y38157D01*
G01X35844Y38104D01*
G01X35866Y38053D01*
G01X35893Y38004D01*
G01X35924Y37958D01*
G01X35960Y37915D01*
G01X36000Y37876D01*
G01X36043Y37841D01*
G01X36090Y37811D01*
G01X36140Y37786D01*
G01X36192Y37765D01*
G01X36245Y37750D01*
G01X36300Y37740D01*
G01X36356Y37736D01*
G01X36412Y37738D01*
G01X36467Y37745D01*
G01X36521Y37757D01*
G01X36574Y37775D01*
G01X36625Y37798D01*
G01X36673Y37826D01*
G01X36718Y37858D01*
G01X36760Y37895D01*
G01X36798Y37936D01*
G01X36832Y37980D01*
G01X36861Y38028D01*
G01X36885Y38078D01*
G01X36904Y38130D01*
G01X36918Y38184D01*
G01X36926Y38239D01*
G01X36929Y38295D01*
G01X36926Y38351D01*
G01X36918Y38406D01*
G01X36904Y38460D01*
G01X36885Y38512D01*
G01X36861Y38562D01*
G01X36832Y38610D01*
G01X36798Y38654D01*
G01X36760Y38695D01*
G01X36718Y38732D01*
G01X36673Y38765D01*
G01X36625Y38793D01*
G01X36574Y38815D01*
G01X36521Y38833D01*
G01X36467Y38846D01*
G01X36412Y38853D01*
G01X36356Y38854D01*
G01X36328Y38852D01*
G01X35252Y39928D01*
G01X35253Y39930D01*
G01X35257Y39940D01*
G01X35261Y39950D01*
G01X35265Y39960D01*
G01X35268Y39970D01*
G01X35271Y39980D01*
G01X35273Y39990D01*
G01X35275Y40000D01*
G01X35277Y40011D01*
G01X35278Y40021D01*
G01X35278Y40032D01*
G01X35279Y40042D01*
G01X35279Y41241D01*
G01X35278Y41251D01*
G01X35278Y41262D01*
G01X35277Y41272D01*
G01X35275Y41283D01*
G01X35273Y41293D01*
G01X35271Y41303D01*
G01X35268Y41313D01*
G01X35265Y41323D01*
G01X35261Y41333D01*
G01X35257Y41343D01*
G01X35253Y41352D01*
G01X35248Y41362D01*
G01X35243Y41371D01*
G01X35237Y41380D01*
G01X35231Y41388D01*
G01X35225Y41397D01*
G01X35219Y41405D01*
G01X35212Y41413D01*
G01X35204Y41420D01*
G01X35197Y41428D01*
G01X35189Y41435D01*
G01X35181Y41441D01*
G01X35172Y41448D01*
G01X35164Y41454D01*
G01X35155Y41459D01*
G01X35146Y41464D01*
G01X35136Y41469D01*
G01X35127Y41474D01*
G01X35117Y41478D01*
G01X35107Y41481D01*
G01X35097Y41484D01*
G01X35087Y41487D01*
G01X35077Y41489D01*
G01X35067Y41491D01*
G01X35056Y41493D01*
G01X35046Y41494D01*
G01X35035Y41495D01*
G01X35025Y41495D01*
G01X33023Y41495D01*
G01X33013Y41495D01*
G01X33002Y41494D01*
G01X32992Y41493D01*
G01X32981Y41491D01*
G01X32971Y41489D01*
G01X32961Y41487D01*
G01X32951Y41484D01*
G01X32941Y41481D01*
G01X32931Y41478D01*
G01X32921Y41474D01*
G01X32912Y41469D01*
G01X32902Y41464D01*
G01X32893Y41459D01*
G01X32884Y41454D01*
G01X32876Y41448D01*
G01X32867Y41441D01*
G01X32859Y41435D01*
G01X32851Y41428D01*
G01X32844Y41420D01*
G01X32836Y41413D01*
G01X32829Y41405D01*
G01X32823Y41397D01*
G01X32817Y41388D01*
G01X32811Y41380D01*
G01X32805Y41371D01*
G01X32800Y41362D01*
G01X32795Y41352D01*
G01X32791Y41343D01*
G01X32787Y41333D01*
G01X32783Y41323D01*
G01X32780Y41313D01*
G01X32777Y41303D01*
G01X32775Y41293D01*
G01X32773Y41283D01*
G01X32771Y41272D01*
G01X32770Y41262D01*
G01X32769Y41251D01*
G01X32769Y41241D01*
G01X32769Y41006D01*
G01X11765Y41006D01*
G01X11752Y41006D01*
G01X11739Y41005D01*
G01X11726Y41004D01*
G01X11713Y41002D01*
G01X11700Y41000D01*
G01X11687Y40998D01*
G01X11675Y40995D01*
G01X11662Y40991D01*
G01X11650Y40987D01*
G01X11638Y40983D01*
G01X11625Y40978D01*
G01X11614Y40973D01*
G01X11602Y40968D01*
G01X11590Y40962D01*
G01X11579Y40955D01*
G01X11568Y40948D01*
G01X11557Y40941D01*
G01X11547Y40933D01*
G01X11536Y40925D01*
G01X11526Y40917D01*
G01X11517Y40908D01*
G01X11507Y40899D01*
G01X11487Y40879D01*
G01X11487Y40879D01*
G01X11431Y40881D01*
G01X11375Y40877D01*
G01X11320Y40867D01*
G01X11267Y40852D01*
G01X11215Y40832D01*
G01X11165Y40806D01*
G01X11118Y40776D01*
G01X11075Y40741D01*
G01X11035Y40702D01*
G01X10999Y40660D01*
G01X10968Y40613D01*
G01X10941Y40565D01*
G01X10919Y40513D01*
G01X10903Y40460D01*
G01X10892Y40405D01*
G01X10886Y40350D01*
G01X10886Y40294D01*
G01X10892Y40239D01*
G01X10903Y40184D01*
G01X10919Y40131D01*
G01X10926Y40116D01*
G01X10259Y40116D01*
G01X10248Y40116D01*
G01X10238Y40115D01*
G01X10227Y40114D01*
G01X10217Y40113D01*
G01X10206Y40111D01*
G01X10196Y40108D01*
G01X10186Y40106D01*
G01X10176Y40102D01*
G01X10166Y40099D01*
G01X10157Y40095D01*
G01X10147Y40090D01*
G01X10138Y40086D01*
G01X10129Y40080D01*
G01X10120Y40075D01*
G01X10111Y40069D01*
G01X10103Y40063D01*
G01X10094Y40056D01*
G01X10087Y40049D01*
G01X10079Y40042D01*
G01X10072Y40034D01*
G01X10065Y40026D01*
G01X10058Y40018D01*
G01X10052Y40010D01*
G01X10046Y40001D01*
G01X10040Y39992D01*
G01X10035Y39983D01*
G01X10030Y39974D01*
G01X10026Y39964D01*
G01X10022Y39955D01*
G01X10018Y39945D01*
G01X10015Y39935D01*
G01X10012Y39925D01*
G01X10010Y39914D01*
G01X10008Y39904D01*
G01X10007Y39894D01*
G01X10005Y39883D01*
G01X10005Y39873D01*
G01X10005Y39862D01*
G01X10005Y37861D01*
G01X10005Y37850D01*
G01X10005Y37840D01*
G01X10007Y37829D01*
G01X10008Y37819D01*
G01X10010Y37809D01*
G01X10012Y37798D01*
G01X10015Y37788D01*
G01X10018Y37778D01*
G01X10022Y37768D01*
G01X10026Y37759D01*
G01X10030Y37749D01*
G01X10035Y37740D01*
G01X10040Y37731D01*
G01X10046Y37722D01*
G01X10052Y37713D01*
G01X10058Y37705D01*
G01X10065Y37697D01*
G01X10072Y37689D01*
G01X10079Y37681D01*
G01X10087Y37674D01*
G01X10094Y37667D01*
G01X10103Y37660D01*
G01X10111Y37654D01*
G01X10120Y37648D01*
G01X10129Y37643D01*
G01X10138Y37637D01*
G01X10147Y37633D01*
G01X10157Y37628D01*
G01X10166Y37624D01*
G01X10176Y37621D01*
G01X10186Y37617D01*
G01X10196Y37615D01*
G01X10206Y37612D01*
G01X10217Y37610D01*
G01X10227Y37609D01*
G01X10238Y37608D01*
G01X10248Y37607D01*
G01X10259Y37607D01*
G01X10353Y37607D01*
G01X6265Y33518D01*
G01X6256Y33509D01*
G01X6247Y33499D01*
G01X6239Y33489D01*
G01X6231Y33479D01*
G01X6223Y33468D01*
G01X6216Y33458D01*
G01X6209Y33447D01*
G01X6203Y33435D01*
G01X6197Y33424D01*
G01X6191Y33412D01*
G01X6186Y33400D01*
G01X6181Y33388D01*
G01X6177Y33376D01*
G01X6173Y33363D01*
G01X6170Y33351D01*
G01X6167Y33338D01*
G01X6164Y33325D01*
G01X6162Y33313D01*
G01X6160Y33300D01*
G01X6159Y33287D01*
G01X6158Y33274D01*
G01X6158Y33261D01*
G01X6158Y25976D01*
G01X2758Y25976D01*
G01X2747Y25976D01*
G01X2737Y25975D01*
G01X2727Y25974D01*
G01X2716Y25973D01*
G01X2706Y25971D01*
G01X2696Y25968D01*
G01X2685Y25966D01*
G01X2675Y25962D01*
G01X2666Y25959D01*
G01X2656Y25955D01*
G01X2646Y25950D01*
G01X2637Y25945D01*
G01X2628Y25940D01*
G01X2619Y25935D01*
G01X2610Y25929D01*
G01X2602Y25923D01*
G01X2594Y25916D01*
G01X2586Y25909D01*
G01X2578Y25902D01*
G01X2571Y25894D01*
G01X2564Y25886D01*
G01X2558Y25878D01*
G01X2551Y25870D01*
G01X2545Y25861D01*
G01X2540Y25852D01*
G01X2535Y25843D01*
G01X2530Y25834D01*
G01X2525Y25824D01*
G01X2521Y25814D01*
G01X2518Y25805D01*
G01X2515Y25795D01*
G01X2512Y25784D01*
G01X2509Y25774D01*
G01X2507Y25764D01*
G01X2506Y25753D01*
G01X2505Y25743D01*
G01X2504Y25733D01*
G01X2504Y25722D01*
G01X2504Y21521D01*
G01X2504Y21510D01*
G01X2505Y21500D01*
G01X2506Y21490D01*
G01X2507Y21479D01*
G01X2509Y21469D01*
G01X2512Y21459D01*
G01X2515Y21448D01*
G01X2518Y21438D01*
G01X2521Y21429D01*
G01X2525Y21419D01*
G01X2530Y21409D01*
G01X2535Y21400D01*
G01X2540Y21391D01*
G01X2545Y21382D01*
G01X2551Y21373D01*
G01X2558Y21365D01*
G01X2564Y21357D01*
G01X2571Y21349D01*
G01X2578Y21341D01*
G01X2586Y21334D01*
G01X2594Y21327D01*
G01X2602Y21320D01*
G01X2610Y21314D01*
G01X2619Y21308D01*
G01X2628Y21303D01*
G01X2637Y21298D01*
G01X2646Y21293D01*
G01X2656Y21288D01*
G01X2666Y21284D01*
G01X2675Y21281D01*
G01X2685Y21277D01*
G01X2696Y21275D01*
G01X2706Y21272D01*
G01X2716Y21270D01*
G01X2727Y21269D01*
G01X2737Y21268D01*
G01X2747Y21267D01*
G01X2758Y21267D01*
G01X6258Y21267D01*
G01X6269Y21267D01*
G01X6279Y21268D01*
G01X6289Y21269D01*
G01X6300Y21270D01*
G01X6310Y21272D01*
G01X6320Y21275D01*
G01X6331Y21277D01*
G01X6341Y21281D01*
G01X6350Y21284D01*
G01X6360Y21288D01*
G01X6370Y21293D01*
G01X6379Y21298D01*
G01X6388Y21303D01*
G01X6397Y21308D01*
G01X6406Y21314D01*
G01X6414Y21320D01*
G01X6422Y21327D01*
G01X6430Y21334D01*
G01X6438Y21341D01*
G01X6445Y21349D01*
G01X6452Y21357D01*
G01X6458Y21365D01*
G01X6465Y21373D01*
G01X6471Y21382D01*
G01X6476Y21391D01*
G01X6481Y21400D01*
G01X6486Y21409D01*
G01X6491Y21419D01*
G01X6495Y21429D01*
G01X6498Y21438D01*
G01X6501Y21448D01*
G01X6504Y21459D01*
G01X6507Y21469D01*
G01X6509Y21479D01*
G01X6510Y21490D01*
G01X6511Y21500D01*
G01X6512Y21510D01*
G01X6512Y21521D01*
G01X6512Y23117D01*
G01X7088Y22541D01*
G01X7097Y22532D01*
G01X7107Y22523D01*
G01X7117Y22515D01*
G01X7127Y22507D01*
G01X7138Y22500D01*
G01X7148Y22492D01*
G01X7159Y22485D01*
G01X7171Y22479D01*
G01X7182Y22473D01*
G01X7194Y22467D01*
G01X7206Y22462D01*
G01X7218Y22457D01*
G01X7230Y22453D01*
G01X7243Y22449D01*
G01X7255Y22446D01*
G01X7268Y22443D01*
G01X7281Y22440D01*
G01X7293Y22438D01*
G01X7306Y22437D01*
G01X7319Y22435D01*
G01X7332Y22435D01*
G01X7345Y22435D01*
G01X7989Y22435D01*
G01X8002Y22418D01*
G01X8042Y22379D01*
G01X8086Y22345D01*
G01X8132Y22314D01*
G01X8182Y22289D01*
G01X8234Y22269D01*
G01X8288Y22254D01*
G01X8342Y22244D01*
G01X8398Y22240D01*
G01X8454Y22241D01*
G01X8509Y22248D01*
G01X8563Y22260D01*
G01X8616Y22278D01*
G01X8667Y22301D01*
G01X8715Y22329D01*
G01X8761Y22361D01*
G01X8802Y22398D01*
G01X8840Y22439D01*
G01X8874Y22484D01*
G01X8903Y22531D01*
G01X8927Y22581D01*
G01X8946Y22634D01*
G01X8960Y22688D01*
G01X8968Y22743D01*
G01X8971Y22799D01*
G01X8968Y22854D01*
G01X8960Y22909D01*
G01X8946Y22963D01*
G01X8927Y23016D01*
G01X8903Y23066D01*
G01X8874Y23113D01*
G01X8840Y23158D01*
G01X8802Y23199D01*
G01X8761Y23236D01*
G01X8715Y23268D01*
G01X8667Y23296D01*
G01X8616Y23319D01*
G01X8563Y23337D01*
G01X8509Y23349D01*
G01X8454Y23356D01*
G01X8398Y23357D01*
G01X8342Y23353D01*
G01X8288Y23344D01*
G01X8234Y23328D01*
G01X8182Y23308D01*
G01X8132Y23283D01*
G01X8086Y23252D01*
G01X8042Y23218D01*
G01X8002Y23179D01*
G01X7989Y23163D01*
G01X7496Y23163D01*
G01X6886Y23772D01*
G01X6886Y31552D01*
G01X6904Y31542D01*
G01X6956Y31522D01*
G01X7010Y31507D01*
G01X7065Y31497D01*
G01X7120Y31493D01*
G01X7176Y31494D01*
G01X7231Y31501D01*
G01X7286Y31514D01*
G01X7339Y31531D01*
G01X7389Y31554D01*
G01X7438Y31582D01*
G01X7483Y31615D01*
G01X7525Y31652D01*
G01X7558Y31688D01*
G01X20182Y31688D01*
G01X20182Y19928D01*
G01X20182Y19915D01*
G01X20182Y19902D01*
G01X20184Y19889D01*
G01X20185Y19877D01*
G01X20187Y19864D01*
G01X20190Y19851D01*
G01X20193Y19838D01*
G01X20196Y19826D01*
G01X20200Y19813D01*
G01X20205Y19801D01*
G01X20209Y19789D01*
G01X20214Y19777D01*
G01X20220Y19765D01*
G01X20226Y19754D01*
G01X20233Y19743D01*
G01X20239Y19732D01*
G01X20247Y19721D01*
G01X20254Y19710D01*
G01X20262Y19700D01*
G01X20270Y19690D01*
G01X20279Y19680D01*
G01X20288Y19671D01*
G01X21083Y18876D01*
G01X21093Y18867D01*
G01X21102Y18858D01*
G01X21112Y18850D01*
G01X21122Y18842D01*
G01X21133Y18834D01*
G01X21144Y18827D01*
G01X21155Y18820D01*
G01X21166Y18814D01*
G01X21178Y18808D01*
G01X21189Y18802D01*
G01X21201Y18797D01*
G01X21213Y18792D01*
G01X21226Y18788D01*
G01X21238Y18784D01*
G01X21251Y18781D01*
G01X21263Y18778D01*
G01X21276Y18775D01*
G01X21289Y18773D01*
G01X21302Y18771D01*
G01X21315Y18770D01*
G01X21328Y18770D01*
G01X21341Y18769D01*
G01X22702Y18769D01*
G01X22716Y18753D01*
G01X22756Y18714D01*
G01X22799Y18679D01*
G01X22846Y18649D01*
G01X22896Y18624D01*
G01X19025Y18624D01*
G01X18469Y19180D01*
G01X18459Y19189D01*
G01X18450Y19198D01*
G01X18440Y19206D01*
G01X18429Y19214D01*
G01X18419Y19222D01*
G01X18408Y19229D01*
G01X18397Y19236D01*
G01X18386Y19242D01*
G01X18374Y19248D01*
G01X18363Y19254D01*
G01X18351Y19259D01*
G01X18339Y19264D01*
G01X18326Y19268D01*
G01X18314Y19272D01*
G01X18301Y19275D01*
G01X18289Y19278D01*
G01X18276Y19281D01*
G01X18263Y19283D01*
G01X18250Y19284D01*
G01X18237Y19286D01*
G01X18224Y19286D01*
G01X18211Y19287D01*
G01X4156Y19287D01*
G01X2185Y21255D01*
G01X2185Y25113D01*
G01X2210Y25136D01*
G01X2248Y25177D01*
G01X2282Y25221D01*
G01X2311Y25269D01*
G01X2335Y25319D01*
G01X2354Y25371D01*
G01X2368Y25425D01*
G01X2376Y25480D01*
G01X2379Y25536D01*
G01X2376Y25592D01*
G01X2368Y25647D01*
G01X2354Y25701D01*
G01X2335Y25753D01*
G01X2311Y25803D01*
G01X2282Y25851D01*
G01X2248Y25895D01*
G01X2210Y25936D01*
G01X2169Y25973D01*
G01X2123Y26005D01*
G01X2075Y26033D01*
G01X2024Y26056D01*
G01X1972Y26074D01*
G01X1917Y26086D01*
G01X1862Y26093D01*
G01X1806Y26095D01*
G01X1751Y26091D01*
G01X1696Y26081D01*
G01X1642Y26066D01*
G01X1590Y26045D01*
G01X1541Y26020D01*
G01X1494Y25990D01*
G01X1450Y25955D01*
G01X1410Y25916D01*
G01X1375Y25873D01*
G01X1343Y25827D01*
G01X1317Y25778D01*
G01X1295Y25727D01*
G01X1278Y25674D01*
G01X1267Y25619D01*
G01X1262Y25564D01*
G01X1262Y25508D01*
G01X1267Y25453D01*
G01X1278Y25398D01*
G01X1295Y25345D01*
G01X1317Y25293D01*
G01X1343Y25244D01*
G01X1375Y25198D01*
G01X1410Y25156D01*
G01X1450Y25117D01*
G01X1457Y25112D01*
G01X1457Y21104D01*
G01X1457Y21091D01*
G01X1458Y21078D01*
G01X1459Y21065D01*
G01X1460Y21053D01*
G01X1462Y21040D01*
G01X1465Y21027D01*
G01X1468Y21014D01*
G01X1471Y21002D01*
G01X1475Y20989D01*
G01X1480Y20977D01*
G01X1484Y20965D01*
G01X1490Y20953D01*
G01X1495Y20941D01*
G01X1501Y20930D01*
G01X1508Y20918D01*
G01X1515Y20907D01*
G01X1522Y20897D01*
G01X1529Y20886D01*
G01X1537Y20876D01*
G01X1546Y20866D01*
G01X1554Y20856D01*
G01X1563Y20847D01*
G01X3748Y18665D01*
G01X3757Y18656D01*
G01X3767Y18647D01*
G01X3777Y18639D01*
G01X3787Y18631D01*
G01X3798Y18623D01*
G01X3808Y18616D01*
G01X3819Y18609D01*
G01X3831Y18603D01*
G01X3842Y18597D01*
G01X3854Y18591D01*
G01X3866Y18586D01*
G01X3878Y18581D01*
G01X3890Y18577D01*
G01X3903Y18573D01*
G01X3915Y18570D01*
G01X3928Y18567D01*
G01X3940Y18564D01*
G01X3953Y18562D01*
G01X3966Y18561D01*
G01X3979Y18559D01*
G01X3992Y18559D01*
G01X4005Y18558D01*
G01X18061Y18558D01*
G01X18402Y18217D01*
G01X17657Y18217D01*
G01X17624Y18253D01*
G01X17582Y18290D01*
G01X17537Y18323D01*
G01X17488Y18351D01*
G01X17438Y18374D01*
G01X17385Y18391D01*
G01X17330Y18404D01*
G01X17275Y18411D01*
G01X17219Y18412D01*
G01X17164Y18408D01*
G01X17109Y18398D01*
G01X17055Y18383D01*
G01X17003Y18363D01*
G01X16954Y18337D01*
G01X16907Y18307D01*
G01X16864Y18272D01*
G01X16824Y18233D01*
G01X16788Y18191D01*
G01X16756Y18145D01*
G01X16730Y18096D01*
G01X16708Y18044D01*
G01X16692Y17991D01*
G01X16681Y17936D01*
G01X16675Y17881D01*
G01X16675Y17825D01*
G01X16681Y17770D01*
G01X16692Y17715D01*
G01X16708Y17662D01*
G01X16730Y17611D01*
G01X16756Y17562D01*
G01X16788Y17516D01*
G01X16824Y17473D01*
G01X16864Y17434D01*
G01X16869Y17430D01*
G01X6377Y17430D01*
G01X6344Y17466D01*
G01X6302Y17503D01*
G01X6257Y17535D01*
G01X6208Y17563D01*
G01X6157Y17586D01*
G01X6105Y17604D01*
G01X6050Y17616D01*
G01X5995Y17623D01*
G01X5939Y17625D01*
G01X5884Y17620D01*
G01X5829Y17611D01*
G01X5775Y17596D01*
G01X5723Y17575D01*
G01X5674Y17550D01*
G01X5627Y17520D01*
G01X5583Y17485D01*
G01X5543Y17446D01*
G01X5508Y17403D01*
G01X5476Y17357D01*
G01X5450Y17308D01*
G01X5428Y17257D01*
G01X5412Y17204D01*
G01X5401Y17149D01*
G01X5395Y17094D01*
G01X5395Y17038D01*
G01X5401Y16982D01*
G01X5412Y16928D01*
G01X5428Y16875D01*
G01X5450Y16823D01*
G01X5476Y16774D01*
G01X5508Y16728D01*
G01X5543Y16686D01*
G01X5583Y16647D01*
G01X5627Y16612D01*
G01X5674Y16582D01*
G01X5723Y16556D01*
G01X5775Y16536D01*
G01X5829Y16521D01*
G01X5884Y16511D01*
G01X5939Y16507D01*
G01X5995Y16508D01*
G01X6050Y16515D01*
G01X6105Y16528D01*
G01X6157Y16545D01*
G01X6208Y16568D01*
G01X6257Y16596D01*
G01X6302Y16629D01*
G01X6344Y16666D01*
G01X6377Y16702D01*
G01X17544Y16702D01*
G01X17543Y16699D01*
G01X17521Y16647D01*
G01X17504Y16594D01*
G01X17493Y16539D01*
G01X17488Y16484D01*
G01X17488Y16428D01*
G01X17493Y16373D01*
G01X17504Y16318D01*
G01X17521Y16265D01*
G01X17543Y16214D01*
G01X17569Y16165D01*
G01X17601Y16119D01*
G01X17636Y16076D01*
G01X17676Y16037D01*
G01X17720Y16002D01*
G01X17767Y15972D01*
G01X17816Y15947D01*
G01X17868Y15926D01*
G01X17922Y15911D01*
G01X17977Y15902D01*
G01X18032Y15897D01*
G01X18088Y15899D01*
G01X18089Y15899D01*
G01X21591Y12396D01*
G01X21601Y12387D01*
G01X21610Y12379D01*
G01X21620Y12370D01*
G01X21630Y12362D01*
G01X21641Y12355D01*
G01X21652Y12348D01*
G01X21663Y12341D01*
G01X21674Y12334D01*
G01X21686Y12328D01*
G01X21697Y12323D01*
G01X21709Y12317D01*
G01X21721Y12313D01*
G01X21734Y12308D01*
G01X21746Y12305D01*
G01X21759Y12301D01*
G01X21771Y12298D01*
G01X21784Y12296D01*
G01X21797Y12293D01*
G01X21810Y12292D01*
G01X21823Y12291D01*
G01X21836Y12290D01*
G01X21849Y12290D01*
G01X23344Y12290D01*
G01X23358Y12274D01*
G01X23397Y12235D01*
G01X23441Y12200D01*
G01X23488Y12170D01*
G01X23537Y12145D01*
G01X23589Y12124D01*
G01X23643Y12109D01*
G01X23698Y12099D01*
G01X23753Y12095D01*
G37*
G36*
G01X5687Y37607D02*
G01X5986Y37607D01*
G01X5986Y37608D01*
G01X5986Y38362D01*
G01X5433Y38362D01*
G01X5433Y37861D01*
G01X5433Y37850D01*
G01X5433Y37840D01*
G01X5435Y37829D01*
G01X5436Y37819D01*
G01X5438Y37809D01*
G01X5440Y37798D01*
G01X5443Y37788D01*
G01X5446Y37778D01*
G01X5450Y37768D01*
G01X5454Y37759D01*
G01X5458Y37749D01*
G01X5463Y37740D01*
G01X5468Y37731D01*
G01X5474Y37722D01*
G01X5480Y37713D01*
G01X5486Y37705D01*
G01X5493Y37697D01*
G01X5500Y37689D01*
G01X5507Y37681D01*
G01X5515Y37674D01*
G01X5522Y37667D01*
G01X5531Y37660D01*
G01X5539Y37654D01*
G01X5548Y37648D01*
G01X5557Y37643D01*
G01X5566Y37637D01*
G01X5575Y37633D01*
G01X5585Y37628D01*
G01X5594Y37624D01*
G01X5604Y37621D01*
G01X5614Y37617D01*
G01X5624Y37615D01*
G01X5634Y37612D01*
G01X5645Y37610D01*
G01X5655Y37609D01*
G01X5666Y37608D01*
G01X5676Y37607D01*
G01X5687Y37607D01*
G37*
G36*
G01X10379Y12534D02*
G01X10435Y12536D01*
G01X10490Y12543D01*
G01X10545Y12555D01*
G01X10597Y12573D01*
G01X10648Y12596D01*
G01X10696Y12624D01*
G01X10742Y12656D01*
G01X10784Y12693D01*
G01X10817Y12729D01*
G01X19223Y12729D01*
G01X19237Y12713D01*
G01X19277Y12674D01*
G01X19320Y12639D01*
G01X19367Y12609D01*
G01X19416Y12584D01*
G01X19468Y12563D01*
G01X19522Y12548D01*
G01X19577Y12539D01*
G01X19632Y12534D01*
G01X19688Y12536D01*
G01X19743Y12543D01*
G01X19798Y12555D01*
G01X19851Y12573D01*
G01X19901Y12596D01*
G01X19950Y12624D01*
G01X19995Y12656D01*
G01X20037Y12693D01*
G01X20075Y12734D01*
G01X20108Y12778D01*
G01X20137Y12826D01*
G01X20162Y12876D01*
G01X20181Y12928D01*
G01X20194Y12982D01*
G01X20203Y13038D01*
G01X20205Y13093D01*
G01X20203Y13149D01*
G01X20194Y13204D01*
G01X20181Y13258D01*
G01X20162Y13310D01*
G01X20137Y13361D01*
G01X20108Y13408D01*
G01X20075Y13453D01*
G01X20037Y13493D01*
G01X19995Y13530D01*
G01X19950Y13563D01*
G01X19901Y13591D01*
G01X19851Y13614D01*
G01X19798Y13631D01*
G01X19743Y13644D01*
G01X19688Y13651D01*
G01X19632Y13652D01*
G01X19577Y13648D01*
G01X19522Y13638D01*
G01X19468Y13623D01*
G01X19416Y13603D01*
G01X19367Y13577D01*
G01X19320Y13547D01*
G01X19277Y13512D01*
G01X19237Y13473D01*
G01X19223Y13457D01*
G01X10817Y13457D01*
G01X10784Y13493D01*
G01X10742Y13530D01*
G01X10696Y13563D01*
G01X10648Y13591D01*
G01X10597Y13614D01*
G01X10545Y13631D01*
G01X10490Y13644D01*
G01X10435Y13651D01*
G01X10379Y13652D01*
G01X10324Y13648D01*
G01X10269Y13638D01*
G01X10215Y13623D01*
G01X10163Y13603D01*
G01X10114Y13577D01*
G01X10067Y13547D01*
G01X10023Y13512D01*
G01X9983Y13473D01*
G01X9948Y13431D01*
G01X9916Y13385D01*
G01X9890Y13336D01*
G01X9868Y13284D01*
G01X9851Y13231D01*
G01X9840Y13177D01*
G01X9835Y13121D01*
G01X9835Y13065D01*
G01X9840Y13010D01*
G01X9851Y12955D01*
G01X9868Y12902D01*
G01X9890Y12851D01*
G01X9916Y12802D01*
G01X9948Y12756D01*
G01X9983Y12713D01*
G01X10023Y12674D01*
G01X10067Y12639D01*
G01X10114Y12609D01*
G01X10163Y12584D01*
G01X10215Y12563D01*
G01X10269Y12548D01*
G01X10324Y12539D01*
G01X10379Y12534D01*
G37*
G36*
G01X6586Y37607D02*
G01X6885Y37607D01*
G01X6896Y37607D01*
G01X6906Y37608D01*
G01X6917Y37609D01*
G01X6927Y37610D01*
G01X6938Y37612D01*
G01X6948Y37615D01*
G01X6958Y37617D01*
G01X6968Y37621D01*
G01X6978Y37624D01*
G01X6987Y37628D01*
G01X6997Y37633D01*
G01X7006Y37637D01*
G01X7015Y37643D01*
G01X7024Y37648D01*
G01X7033Y37654D01*
G01X7041Y37660D01*
G01X7050Y37667D01*
G01X7057Y37674D01*
G01X7065Y37681D01*
G01X7072Y37689D01*
G01X7079Y37697D01*
G01X7086Y37705D01*
G01X7092Y37713D01*
G01X7098Y37722D01*
G01X7104Y37731D01*
G01X7109Y37740D01*
G01X7114Y37749D01*
G01X7118Y37759D01*
G01X7122Y37768D01*
G01X7126Y37778D01*
G01X7129Y37788D01*
G01X7132Y37798D01*
G01X7134Y37809D01*
G01X7136Y37819D01*
G01X7137Y37829D01*
G01X7139Y37840D01*
G01X7139Y37850D01*
G01X7139Y37861D01*
G01X7139Y38362D01*
G01X6586Y38362D01*
G01X6586Y37608D01*
G01X6586Y37607D01*
G37*
G36*
G01X17039Y35410D02*
G01X17095Y35411D01*
G01X17150Y35418D01*
G01X17204Y35430D01*
G01X17257Y35448D01*
G01X17308Y35471D01*
G01X17356Y35499D01*
G01X17402Y35531D01*
G01X17443Y35568D01*
G01X17481Y35609D01*
G01X17515Y35654D01*
G01X17544Y35701D01*
G01X17568Y35751D01*
G01X17587Y35804D01*
G01X17601Y35858D01*
G01X17609Y35913D01*
G01X17612Y35968D01*
G01X17609Y36024D01*
G01X17601Y36079D01*
G01X17587Y36133D01*
G01X17568Y36186D01*
G01X17544Y36236D01*
G01X17515Y36283D01*
G01X17481Y36328D01*
G01X17443Y36369D01*
G01X17402Y36405D01*
G01X17356Y36438D01*
G01X17308Y36466D01*
G01X17257Y36489D01*
G01X17204Y36507D01*
G01X17150Y36519D01*
G01X17095Y36526D01*
G01X17039Y36527D01*
G01X17016Y36526D01*
G01X15935Y37607D01*
G01X16029Y37607D01*
G01X16040Y37607D01*
G01X16050Y37608D01*
G01X16061Y37609D01*
G01X16071Y37610D01*
G01X16082Y37612D01*
G01X16092Y37615D01*
G01X16102Y37617D01*
G01X16112Y37621D01*
G01X16122Y37624D01*
G01X16131Y37628D01*
G01X16141Y37633D01*
G01X16150Y37637D01*
G01X16159Y37643D01*
G01X16168Y37648D01*
G01X16177Y37654D01*
G01X16185Y37660D01*
G01X16194Y37667D01*
G01X16201Y37674D01*
G01X16209Y37681D01*
G01X16216Y37689D01*
G01X16223Y37697D01*
G01X16230Y37705D01*
G01X16236Y37713D01*
G01X16242Y37722D01*
G01X16248Y37731D01*
G01X16253Y37740D01*
G01X16258Y37749D01*
G01X16262Y37759D01*
G01X16266Y37768D01*
G01X16270Y37778D01*
G01X16273Y37788D01*
G01X16276Y37798D01*
G01X16278Y37809D01*
G01X16280Y37819D01*
G01X16281Y37829D01*
G01X16283Y37840D01*
G01X16283Y37850D01*
G01X16283Y37861D01*
G01X16283Y39862D01*
G01X16283Y39873D01*
G01X16283Y39883D01*
G01X16281Y39894D01*
G01X16280Y39904D01*
G01X16278Y39914D01*
G01X16276Y39925D01*
G01X16273Y39935D01*
G01X16270Y39945D01*
G01X16266Y39955D01*
G01X16262Y39964D01*
G01X16258Y39974D01*
G01X16253Y39983D01*
G01X16248Y39992D01*
G01X16242Y40001D01*
G01X16236Y40010D01*
G01X16230Y40018D01*
G01X16223Y40026D01*
G01X16216Y40034D01*
G01X16209Y40042D01*
G01X16201Y40049D01*
G01X16194Y40056D01*
G01X16185Y40063D01*
G01X16177Y40069D01*
G01X16168Y40075D01*
G01X16159Y40080D01*
G01X16150Y40086D01*
G01X16141Y40090D01*
G01X16131Y40095D01*
G01X16122Y40099D01*
G01X16112Y40102D01*
G01X16102Y40106D01*
G01X16092Y40108D01*
G01X16082Y40111D01*
G01X16071Y40113D01*
G01X16061Y40114D01*
G01X16050Y40115D01*
G01X16040Y40116D01*
G01X16029Y40116D01*
G01X14831Y40116D01*
G01X14820Y40116D01*
G01X14810Y40115D01*
G01X14799Y40114D01*
G01X14789Y40113D01*
G01X14778Y40111D01*
G01X14768Y40108D01*
G01X14758Y40106D01*
G01X14748Y40102D01*
G01X14738Y40099D01*
G01X14729Y40095D01*
G01X14719Y40090D01*
G01X14710Y40086D01*
G01X14701Y40080D01*
G01X14692Y40075D01*
G01X14683Y40069D01*
G01X14675Y40063D01*
G01X14666Y40056D01*
G01X14659Y40049D01*
G01X14651Y40042D01*
G01X14644Y40034D01*
G01X14637Y40026D01*
G01X14630Y40018D01*
G01X14624Y40010D01*
G01X14618Y40001D01*
G01X14612Y39992D01*
G01X14607Y39983D01*
G01X14602Y39974D01*
G01X14598Y39964D01*
G01X14594Y39955D01*
G01X14590Y39945D01*
G01X14587Y39935D01*
G01X14584Y39925D01*
G01X14582Y39914D01*
G01X14580Y39904D01*
G01X14579Y39894D01*
G01X14577Y39883D01*
G01X14577Y39873D01*
G01X14577Y39862D01*
G01X14577Y37861D01*
G01X14577Y37850D01*
G01X14577Y37840D01*
G01X14579Y37829D01*
G01X14580Y37819D01*
G01X14582Y37809D01*
G01X14584Y37798D01*
G01X14587Y37788D01*
G01X14590Y37778D01*
G01X14594Y37768D01*
G01X14598Y37759D01*
G01X14602Y37749D01*
G01X14607Y37740D01*
G01X14612Y37731D01*
G01X14618Y37722D01*
G01X14624Y37713D01*
G01X14630Y37705D01*
G01X14637Y37697D01*
G01X14644Y37689D01*
G01X14651Y37681D01*
G01X14659Y37674D01*
G01X14666Y37667D01*
G01X14675Y37660D01*
G01X14683Y37654D01*
G01X14692Y37648D01*
G01X14701Y37643D01*
G01X14710Y37637D01*
G01X14719Y37633D01*
G01X14729Y37628D01*
G01X14738Y37624D01*
G01X14748Y37621D01*
G01X14758Y37617D01*
G01X14768Y37615D01*
G01X14778Y37612D01*
G01X14789Y37610D01*
G01X14799Y37609D01*
G01X14810Y37608D01*
G01X14820Y37607D01*
G01X14831Y37607D01*
G01X15066Y37607D01*
G01X15066Y37597D01*
G01X15066Y37590D01*
G01X15066Y37583D01*
G01X15066Y37581D01*
G01X15066Y37578D01*
G01X15067Y37572D01*
G01X15067Y37565D01*
G01X15068Y37563D01*
G01X15068Y37560D01*
G01X15069Y37552D01*
G01X15069Y37547D01*
G01X15070Y37545D01*
G01X15070Y37542D01*
G01X15071Y37535D01*
G01X15072Y37529D01*
G01X15073Y37527D01*
G01X15073Y37524D01*
G01X15075Y37518D01*
G01X15076Y37511D01*
G01X15077Y37509D01*
G01X15077Y37507D01*
G01X15079Y37501D01*
G01X15081Y37494D01*
G01X15082Y37491D01*
G01X15082Y37489D01*
G01X15084Y37483D01*
G01X15086Y37476D01*
G01X15087Y37474D01*
G01X15088Y37472D01*
G01X15091Y37466D01*
G01X15093Y37459D01*
G01X15094Y37457D01*
G01X15095Y37455D01*
G01X15098Y37448D01*
G01X15100Y37443D01*
G01X15101Y37441D01*
G01X15102Y37439D01*
G01X15106Y37432D01*
G01X15108Y37427D01*
G01X15109Y37425D01*
G01X15110Y37422D01*
G01X15114Y37416D01*
G01X15117Y37411D01*
G01X15118Y37409D01*
G01X15119Y37407D01*
G01X15123Y37401D01*
G01X15127Y37395D01*
G01X15128Y37393D01*
G01X15129Y37392D01*
G01X15133Y37386D01*
G01X15137Y37380D01*
G01X15139Y37379D01*
G01X15140Y37377D01*
G01X15144Y37371D01*
G01X15148Y37366D01*
G01X15150Y37365D01*
G01X15151Y37363D01*
G01X15156Y37357D01*
G01X15160Y37352D01*
G01X15162Y37351D01*
G01X15163Y37349D01*
G01X15167Y37345D01*
G01X15173Y37339D01*
G01X16497Y36015D01*
G01X16495Y35996D01*
G01X16495Y35941D01*
G01X16500Y35885D01*
G01X16511Y35830D01*
G01X16528Y35777D01*
G01X16549Y35726D01*
G01X16576Y35677D01*
G01X16607Y35631D01*
G01X16643Y35588D01*
G01X16683Y35549D01*
G01X16727Y35515D01*
G01X16774Y35484D01*
G01X16823Y35459D01*
G01X16875Y35439D01*
G01X16929Y35423D01*
G01X16984Y35414D01*
G01X17039Y35410D01*
G37*
G36*
G01X32953Y33118D02*
G01X34955Y33118D01*
G01X34965Y33118D01*
G01X34976Y33119D01*
G01X34986Y33120D01*
G01X34997Y33121D01*
G01X35007Y33123D01*
G01X35017Y33126D01*
G01X35027Y33129D01*
G01X35037Y33132D01*
G01X35047Y33135D01*
G01X35057Y33139D01*
G01X35066Y33144D01*
G01X35076Y33149D01*
G01X35085Y33154D01*
G01X35094Y33159D01*
G01X35102Y33165D01*
G01X35111Y33172D01*
G01X35119Y33178D01*
G01X35127Y33185D01*
G01X35134Y33192D01*
G01X35142Y33200D01*
G01X35149Y33208D01*
G01X35155Y33216D01*
G01X35161Y33224D01*
G01X35167Y33233D01*
G01X35173Y33242D01*
G01X35178Y33251D01*
G01X35183Y33260D01*
G01X35187Y33270D01*
G01X35191Y33280D01*
G01X35195Y33290D01*
G01X35198Y33300D01*
G01X35201Y33310D01*
G01X35203Y33320D01*
G01X35205Y33330D01*
G01X35207Y33341D01*
G01X35208Y33351D01*
G01X35209Y33362D01*
G01X35209Y33372D01*
G01X35209Y34571D01*
G01X35209Y34581D01*
G01X35208Y34592D01*
G01X35207Y34602D01*
G01X35205Y34613D01*
G01X35203Y34623D01*
G01X35201Y34633D01*
G01X35198Y34643D01*
G01X35195Y34653D01*
G01X35191Y34663D01*
G01X35187Y34673D01*
G01X35183Y34682D01*
G01X35178Y34692D01*
G01X35173Y34701D01*
G01X35167Y34710D01*
G01X35161Y34719D01*
G01X35155Y34727D01*
G01X35149Y34735D01*
G01X35142Y34743D01*
G01X35134Y34751D01*
G01X35127Y34758D01*
G01X35119Y34765D01*
G01X35111Y34771D01*
G01X35102Y34778D01*
G01X35094Y34784D01*
G01X35085Y34789D01*
G01X35076Y34794D01*
G01X35066Y34799D01*
G01X35057Y34804D01*
G01X35047Y34808D01*
G01X35037Y34811D01*
G01X35027Y34814D01*
G01X35017Y34817D01*
G01X35007Y34819D01*
G01X34997Y34821D01*
G01X34986Y34823D01*
G01X34976Y34824D01*
G01X34965Y34825D01*
G01X34955Y34825D01*
G01X32953Y34825D01*
G01X32943Y34825D01*
G01X32932Y34824D01*
G01X32922Y34823D01*
G01X32911Y34821D01*
G01X32901Y34819D01*
G01X32891Y34817D01*
G01X32881Y34814D01*
G01X32871Y34811D01*
G01X32861Y34808D01*
G01X32851Y34804D01*
G01X32842Y34799D01*
G01X32832Y34794D01*
G01X32823Y34789D01*
G01X32814Y34784D01*
G01X32806Y34778D01*
G01X32797Y34771D01*
G01X32789Y34765D01*
G01X32781Y34758D01*
G01X32774Y34751D01*
G01X32766Y34743D01*
G01X32759Y34735D01*
G01X32753Y34727D01*
G01X32747Y34719D01*
G01X32741Y34710D01*
G01X32735Y34701D01*
G01X32730Y34692D01*
G01X32725Y34682D01*
G01X32721Y34673D01*
G01X32717Y34663D01*
G01X32713Y34653D01*
G01X32710Y34643D01*
G01X32707Y34633D01*
G01X32705Y34623D01*
G01X32703Y34613D01*
G01X32701Y34602D01*
G01X32700Y34592D01*
G01X32699Y34581D01*
G01X32699Y34571D01*
G01X32699Y34316D01*
G01X31075Y34316D01*
G01X29132Y36259D01*
G01X29122Y36268D01*
G01X29113Y36277D01*
G01X29103Y36285D01*
G01X29092Y36293D01*
G01X29082Y36300D01*
G01X29071Y36308D01*
G01X29060Y36315D01*
G01X29049Y36321D01*
G01X29037Y36327D01*
G01X29025Y36333D01*
G01X29014Y36338D01*
G01X29001Y36343D01*
G01X28989Y36347D01*
G01X28977Y36351D01*
G01X28964Y36354D01*
G01X28952Y36357D01*
G01X28939Y36360D01*
G01X28926Y36362D01*
G01X28913Y36363D01*
G01X28900Y36365D01*
G01X28887Y36365D01*
G01X28874Y36365D01*
G01X21983Y36365D01*
G01X21970Y36365D01*
G01X21957Y36365D01*
G01X21944Y36363D01*
G01X21931Y36362D01*
G01X21919Y36360D01*
G01X21906Y36357D01*
G01X21893Y36354D01*
G01X21881Y36351D01*
G01X21868Y36347D01*
G01X21856Y36343D01*
G01X21844Y36338D01*
G01X21832Y36333D01*
G01X21820Y36327D01*
G01X21809Y36321D01*
G01X21797Y36315D01*
G01X21786Y36308D01*
G01X21776Y36300D01*
G01X21765Y36293D01*
G01X21755Y36285D01*
G01X21745Y36277D01*
G01X21735Y36268D01*
G01X21726Y36259D01*
G01X21116Y35649D01*
G01X21107Y35640D01*
G01X21098Y35630D01*
G01X21090Y35620D01*
G01X21082Y35610D01*
G01X21075Y35599D01*
G01X21067Y35589D01*
G01X21061Y35578D01*
G01X21054Y35566D01*
G01X21048Y35555D01*
G01X21042Y35543D01*
G01X21037Y35531D01*
G01X21033Y35519D01*
G01X21028Y35507D01*
G01X21024Y35494D01*
G01X21021Y35482D01*
G01X21018Y35469D01*
G01X21015Y35457D01*
G01X21013Y35444D01*
G01X21012Y35431D01*
G01X21011Y35418D01*
G01X21010Y35405D01*
G01X21010Y35392D01*
G01X21010Y35247D01*
G01X21002Y35246D01*
G01X20992Y35245D01*
G01X20981Y35244D01*
G01X20971Y35242D01*
G01X20961Y35239D01*
G01X20951Y35237D01*
G01X20941Y35233D01*
G01X20931Y35230D01*
G01X20921Y35226D01*
G01X20912Y35221D01*
G01X20902Y35216D01*
G01X20893Y35211D01*
G01X20884Y35206D01*
G01X20875Y35200D01*
G01X20867Y35194D01*
G01X20859Y35187D01*
G01X20851Y35180D01*
G01X20843Y35173D01*
G01X20836Y35165D01*
G01X20829Y35157D01*
G01X20823Y35149D01*
G01X20816Y35141D01*
G01X20810Y35132D01*
G01X20805Y35123D01*
G01X20800Y35114D01*
G01X20795Y35105D01*
G01X20790Y35095D01*
G01X20786Y35085D01*
G01X20783Y35076D01*
G01X20780Y35066D01*
G01X20777Y35055D01*
G01X20774Y35045D01*
G01X20773Y35035D01*
G01X20771Y35024D01*
G01X20770Y35014D01*
G01X20769Y35004D01*
G01X20769Y34993D01*
G01X20769Y34908D01*
G01X19257Y34908D01*
G01X19224Y34944D01*
G01X19182Y34981D01*
G01X19137Y35013D01*
G01X19089Y35041D01*
G01X19038Y35064D01*
G01X18985Y35082D01*
G01X18931Y35094D01*
G01X18875Y35101D01*
G01X18820Y35102D01*
G01X18764Y35098D01*
G01X18709Y35088D01*
G01X18656Y35073D01*
G01X18604Y35053D01*
G01X18554Y35028D01*
G01X18537Y35017D01*
G01X18537Y37139D01*
G01X18537Y37152D01*
G01X18536Y37165D01*
G01X18535Y37178D01*
G01X18533Y37191D01*
G01X18531Y37204D01*
G01X18529Y37217D01*
G01X18526Y37229D01*
G01X18522Y37242D01*
G01X18519Y37254D01*
G01X18514Y37267D01*
G01X18509Y37279D01*
G01X18504Y37291D01*
G01X18499Y37302D01*
G01X18493Y37314D01*
G01X18486Y37325D01*
G01X18479Y37336D01*
G01X18472Y37347D01*
G01X18465Y37358D01*
G01X18457Y37368D01*
G01X18448Y37378D01*
G01X18440Y37387D01*
G01X18431Y37397D01*
G01X18221Y37607D01*
G01X18315Y37607D01*
G01X18326Y37607D01*
G01X18336Y37608D01*
G01X18347Y37609D01*
G01X18357Y37610D01*
G01X18368Y37612D01*
G01X18378Y37615D01*
G01X18388Y37617D01*
G01X18398Y37621D01*
G01X18408Y37624D01*
G01X18417Y37628D01*
G01X18427Y37633D01*
G01X18436Y37637D01*
G01X18445Y37643D01*
G01X18454Y37648D01*
G01X18463Y37654D01*
G01X18471Y37660D01*
G01X18480Y37667D01*
G01X18487Y37674D01*
G01X18495Y37681D01*
G01X18502Y37689D01*
G01X18509Y37697D01*
G01X18516Y37705D01*
G01X18522Y37713D01*
G01X18528Y37722D01*
G01X18534Y37731D01*
G01X18539Y37740D01*
G01X18544Y37749D01*
G01X18548Y37759D01*
G01X18552Y37768D01*
G01X18556Y37778D01*
G01X18559Y37788D01*
G01X18562Y37798D01*
G01X18564Y37809D01*
G01X18566Y37819D01*
G01X18567Y37829D01*
G01X18569Y37840D01*
G01X18569Y37850D01*
G01X18569Y37861D01*
G01X18569Y39862D01*
G01X18569Y39873D01*
G01X18569Y39883D01*
G01X18567Y39894D01*
G01X18566Y39904D01*
G01X18564Y39914D01*
G01X18562Y39925D01*
G01X18559Y39935D01*
G01X18556Y39945D01*
G01X18552Y39955D01*
G01X18548Y39964D01*
G01X18544Y39974D01*
G01X18539Y39983D01*
G01X18534Y39992D01*
G01X18528Y40001D01*
G01X18522Y40010D01*
G01X18516Y40018D01*
G01X18509Y40026D01*
G01X18502Y40034D01*
G01X18495Y40042D01*
G01X18487Y40049D01*
G01X18480Y40056D01*
G01X18471Y40063D01*
G01X18463Y40069D01*
G01X18454Y40075D01*
G01X18445Y40080D01*
G01X18436Y40086D01*
G01X18427Y40090D01*
G01X18417Y40095D01*
G01X18408Y40099D01*
G01X18398Y40102D01*
G01X18388Y40106D01*
G01X18378Y40108D01*
G01X18368Y40111D01*
G01X18357Y40113D01*
G01X18347Y40114D01*
G01X18336Y40115D01*
G01X18326Y40116D01*
G01X18315Y40116D01*
G01X17117Y40116D01*
G01X17106Y40116D01*
G01X17096Y40115D01*
G01X17085Y40114D01*
G01X17075Y40113D01*
G01X17064Y40111D01*
G01X17054Y40108D01*
G01X17044Y40106D01*
G01X17034Y40102D01*
G01X17024Y40099D01*
G01X17015Y40095D01*
G01X17005Y40090D01*
G01X16996Y40086D01*
G01X16987Y40080D01*
G01X16978Y40075D01*
G01X16969Y40069D01*
G01X16961Y40063D01*
G01X16952Y40056D01*
G01X16945Y40049D01*
G01X16937Y40042D01*
G01X16930Y40034D01*
G01X16923Y40026D01*
G01X16916Y40018D01*
G01X16910Y40010D01*
G01X16904Y40001D01*
G01X16898Y39992D01*
G01X16893Y39983D01*
G01X16888Y39974D01*
G01X16884Y39964D01*
G01X16880Y39955D01*
G01X16876Y39945D01*
G01X16873Y39935D01*
G01X16870Y39925D01*
G01X16868Y39914D01*
G01X16866Y39904D01*
G01X16865Y39894D01*
G01X16863Y39883D01*
G01X16863Y39873D01*
G01X16863Y39862D01*
G01X16863Y37861D01*
G01X16863Y37850D01*
G01X16863Y37840D01*
G01X16865Y37829D01*
G01X16866Y37819D01*
G01X16868Y37809D01*
G01X16870Y37798D01*
G01X16873Y37788D01*
G01X16876Y37778D01*
G01X16880Y37768D01*
G01X16884Y37759D01*
G01X16888Y37749D01*
G01X16893Y37740D01*
G01X16898Y37731D01*
G01X16904Y37722D01*
G01X16910Y37713D01*
G01X16916Y37705D01*
G01X16923Y37697D01*
G01X16930Y37689D01*
G01X16937Y37681D01*
G01X16945Y37674D01*
G01X16952Y37667D01*
G01X16961Y37660D01*
G01X16969Y37654D01*
G01X16978Y37648D01*
G01X16987Y37643D01*
G01X16996Y37637D01*
G01X17005Y37633D01*
G01X17015Y37628D01*
G01X17024Y37624D01*
G01X17034Y37621D01*
G01X17044Y37617D01*
G01X17054Y37615D01*
G01X17064Y37612D01*
G01X17075Y37610D01*
G01X17085Y37609D01*
G01X17096Y37608D01*
G01X17106Y37607D01*
G01X17117Y37607D01*
G01X17352Y37607D01*
G01X17352Y37597D01*
G01X17352Y37590D01*
G01X17352Y37583D01*
G01X17352Y37581D01*
G01X17352Y37578D01*
G01X17353Y37572D01*
G01X17353Y37565D01*
G01X17354Y37563D01*
G01X17354Y37560D01*
G01X17355Y37552D01*
G01X17355Y37547D01*
G01X17356Y37545D01*
G01X17356Y37542D01*
G01X17357Y37535D01*
G01X17358Y37529D01*
G01X17359Y37527D01*
G01X17359Y37524D01*
G01X17361Y37518D01*
G01X17362Y37511D01*
G01X17363Y37509D01*
G01X17363Y37507D01*
G01X17365Y37501D01*
G01X17367Y37494D01*
G01X17368Y37491D01*
G01X17368Y37489D01*
G01X17370Y37483D01*
G01X17372Y37476D01*
G01X17373Y37474D01*
G01X17374Y37472D01*
G01X17377Y37466D01*
G01X17379Y37459D01*
G01X17380Y37457D01*
G01X17381Y37455D01*
G01X17384Y37448D01*
G01X17386Y37443D01*
G01X17387Y37441D01*
G01X17388Y37439D01*
G01X17392Y37432D01*
G01X17394Y37427D01*
G01X17395Y37425D01*
G01X17396Y37422D01*
G01X17400Y37416D01*
G01X17403Y37411D01*
G01X17404Y37409D01*
G01X17405Y37407D01*
G01X17409Y37401D01*
G01X17413Y37395D01*
G01X17414Y37393D01*
G01X17415Y37392D01*
G01X17419Y37386D01*
G01X17423Y37380D01*
G01X17425Y37379D01*
G01X17426Y37377D01*
G01X17430Y37371D01*
G01X17434Y37366D01*
G01X17436Y37365D01*
G01X17437Y37363D01*
G01X17442Y37357D01*
G01X17446Y37352D01*
G01X17448Y37351D01*
G01X17449Y37349D01*
G01X17453Y37345D01*
G01X17459Y37339D01*
G01X17809Y36989D01*
G01X17809Y34990D01*
G01X17781Y35003D01*
G01X17728Y35021D01*
G01X17673Y35033D01*
G01X17618Y35040D01*
G01X17562Y35041D01*
G01X17507Y35037D01*
G01X17452Y35028D01*
G01X17398Y35012D01*
G01X17346Y34992D01*
G01X17297Y34967D01*
G01X17250Y34936D01*
G01X17206Y34902D01*
G01X17167Y34863D01*
G01X17131Y34820D01*
G01X17128Y34816D01*
G01X15505Y34816D01*
G01X13508Y36813D01*
G01X13508Y37607D01*
G01X13743Y37607D01*
G01X13754Y37607D01*
G01X13764Y37608D01*
G01X13775Y37609D01*
G01X13785Y37610D01*
G01X13796Y37612D01*
G01X13806Y37615D01*
G01X13816Y37617D01*
G01X13826Y37621D01*
G01X13836Y37624D01*
G01X13845Y37628D01*
G01X13855Y37633D01*
G01X13864Y37637D01*
G01X13873Y37643D01*
G01X13882Y37648D01*
G01X13891Y37654D01*
G01X13899Y37660D01*
G01X13908Y37667D01*
G01X13915Y37674D01*
G01X13923Y37681D01*
G01X13930Y37689D01*
G01X13937Y37697D01*
G01X13944Y37705D01*
G01X13950Y37713D01*
G01X13956Y37722D01*
G01X13962Y37731D01*
G01X13967Y37740D01*
G01X13972Y37749D01*
G01X13976Y37759D01*
G01X13980Y37768D01*
G01X13984Y37778D01*
G01X13987Y37788D01*
G01X13990Y37798D01*
G01X13992Y37809D01*
G01X13994Y37819D01*
G01X13995Y37829D01*
G01X13997Y37840D01*
G01X13997Y37850D01*
G01X13997Y37861D01*
G01X13997Y39862D01*
G01X13997Y39873D01*
G01X13997Y39883D01*
G01X13995Y39894D01*
G01X13994Y39904D01*
G01X13992Y39914D01*
G01X13990Y39925D01*
G01X13987Y39935D01*
G01X13984Y39945D01*
G01X13980Y39955D01*
G01X13976Y39964D01*
G01X13972Y39974D01*
G01X13967Y39983D01*
G01X13962Y39992D01*
G01X13956Y40001D01*
G01X13950Y40010D01*
G01X13944Y40018D01*
G01X13937Y40026D01*
G01X13930Y40034D01*
G01X13923Y40042D01*
G01X13915Y40049D01*
G01X13908Y40056D01*
G01X13899Y40063D01*
G01X13891Y40069D01*
G01X13882Y40075D01*
G01X13873Y40080D01*
G01X13864Y40086D01*
G01X13855Y40090D01*
G01X13845Y40095D01*
G01X13836Y40099D01*
G01X13826Y40102D01*
G01X13816Y40106D01*
G01X13806Y40108D01*
G01X13796Y40111D01*
G01X13785Y40113D01*
G01X13775Y40114D01*
G01X13764Y40115D01*
G01X13754Y40116D01*
G01X13743Y40116D01*
G01X12545Y40116D01*
G01X12534Y40116D01*
G01X12524Y40115D01*
G01X12513Y40114D01*
G01X12503Y40113D01*
G01X12492Y40111D01*
G01X12482Y40108D01*
G01X12472Y40106D01*
G01X12462Y40102D01*
G01X12452Y40099D01*
G01X12443Y40095D01*
G01X12433Y40090D01*
G01X12424Y40086D01*
G01X12415Y40080D01*
G01X12406Y40075D01*
G01X12397Y40069D01*
G01X12389Y40063D01*
G01X12380Y40056D01*
G01X12373Y40049D01*
G01X12365Y40042D01*
G01X12358Y40034D01*
G01X12351Y40026D01*
G01X12344Y40018D01*
G01X12338Y40010D01*
G01X12332Y40001D01*
G01X12326Y39992D01*
G01X12321Y39983D01*
G01X12316Y39974D01*
G01X12312Y39964D01*
G01X12308Y39955D01*
G01X12304Y39945D01*
G01X12301Y39935D01*
G01X12298Y39925D01*
G01X12296Y39914D01*
G01X12294Y39904D01*
G01X12293Y39894D01*
G01X12291Y39883D01*
G01X12291Y39873D01*
G01X12291Y39862D01*
G01X12291Y37861D01*
G01X12291Y37850D01*
G01X12291Y37840D01*
G01X12293Y37829D01*
G01X12294Y37819D01*
G01X12296Y37809D01*
G01X12298Y37798D01*
G01X12301Y37788D01*
G01X12304Y37778D01*
G01X12308Y37768D01*
G01X12312Y37759D01*
G01X12316Y37749D01*
G01X12321Y37740D01*
G01X12326Y37731D01*
G01X12332Y37722D01*
G01X12338Y37713D01*
G01X12344Y37705D01*
G01X12351Y37697D01*
G01X12358Y37689D01*
G01X12365Y37681D01*
G01X12373Y37674D01*
G01X12380Y37667D01*
G01X12389Y37660D01*
G01X12397Y37654D01*
G01X12406Y37648D01*
G01X12415Y37643D01*
G01X12424Y37637D01*
G01X12433Y37633D01*
G01X12443Y37628D01*
G01X12452Y37624D01*
G01X12462Y37621D01*
G01X12472Y37617D01*
G01X12482Y37615D01*
G01X12492Y37612D01*
G01X12503Y37610D01*
G01X12513Y37609D01*
G01X12524Y37608D01*
G01X12534Y37607D01*
G01X12545Y37607D01*
G01X12780Y37607D01*
G01X12780Y36662D01*
G01X12780Y36649D01*
G01X12781Y36636D01*
G01X12782Y36623D01*
G01X12784Y36610D01*
G01X12786Y36597D01*
G01X12788Y36584D01*
G01X12791Y36572D01*
G01X12795Y36559D01*
G01X12799Y36547D01*
G01X12803Y36535D01*
G01X12808Y36523D01*
G01X12813Y36511D01*
G01X12818Y36499D01*
G01X12825Y36487D01*
G01X12831Y36476D01*
G01X12838Y36465D01*
G01X12845Y36454D01*
G01X12853Y36444D01*
G01X12861Y36433D01*
G01X12869Y36423D01*
G01X12878Y36414D01*
G01X12887Y36404D01*
G01X15096Y34195D01*
G01X15106Y34186D01*
G01X15115Y34177D01*
G01X15125Y34169D01*
G01X15136Y34161D01*
G01X15146Y34153D01*
G01X15157Y34146D01*
G01X15168Y34139D01*
G01X15179Y34133D01*
G01X15191Y34127D01*
G01X15203Y34121D01*
G01X15215Y34116D01*
G01X15227Y34111D01*
G01X15239Y34107D01*
G01X15251Y34103D01*
G01X15264Y34099D01*
G01X15276Y34096D01*
G01X15289Y34094D01*
G01X15302Y34092D01*
G01X15315Y34090D01*
G01X15328Y34089D01*
G01X15341Y34088D01*
G01X15354Y34088D01*
G01X17181Y34088D01*
G01X17206Y34063D01*
G01X17250Y34029D01*
G01X17297Y33998D01*
G01X17346Y33973D01*
G01X17398Y33953D01*
G01X17452Y33938D01*
G01X17507Y33928D01*
G01X17562Y33924D01*
G01X17618Y33925D01*
G01X17673Y33932D01*
G01X17728Y33944D01*
G01X17781Y33962D01*
G01X17831Y33985D01*
G01X17880Y34013D01*
G01X17891Y34021D01*
G01X17898Y34013D01*
G01X17907Y34003D01*
G01X17916Y33994D01*
G01X18457Y33453D01*
G01X18466Y33444D01*
G01X18476Y33435D01*
G01X18486Y33427D01*
G01X18496Y33419D01*
G01X18507Y33411D01*
G01X18517Y33404D01*
G01X18528Y33397D01*
G01X18540Y33391D01*
G01X18551Y33385D01*
G01X18563Y33379D01*
G01X18575Y33374D01*
G01X18587Y33369D01*
G01X18599Y33365D01*
G01X18612Y33361D01*
G01X18624Y33358D01*
G01X18637Y33355D01*
G01X18650Y33352D01*
G01X18662Y33350D01*
G01X18675Y33348D01*
G01X18688Y33347D01*
G01X18701Y33347D01*
G01X18714Y33346D01*
G01X21861Y33346D01*
G01X21874Y33347D01*
G01X21887Y33347D01*
G01X21900Y33348D01*
G01X21913Y33350D01*
G01X21926Y33352D01*
G01X21939Y33355D01*
G01X21951Y33358D01*
G01X21964Y33361D01*
G01X21976Y33365D01*
G01X21988Y33369D01*
G01X22001Y33374D01*
G01X22012Y33379D01*
G01X22024Y33385D01*
G01X22036Y33391D01*
G01X22047Y33397D01*
G01X22058Y33404D01*
G01X22069Y33411D01*
G01X22079Y33419D01*
G01X22090Y33427D01*
G01X22100Y33435D01*
G01X22109Y33444D01*
G01X22119Y33453D01*
G01X22506Y33840D01*
G01X23045Y33840D01*
G01X23055Y33840D01*
G01X23066Y33841D01*
G01X23076Y33842D01*
G01X23087Y33843D01*
G01X23097Y33845D01*
G01X23107Y33848D01*
G01X23117Y33850D01*
G01X23127Y33854D01*
G01X23137Y33857D01*
G01X23147Y33861D01*
G01X23156Y33866D01*
G01X23166Y33871D01*
G01X23175Y33876D01*
G01X23184Y33881D01*
G01X23193Y33887D01*
G01X23201Y33893D01*
G01X23209Y33900D01*
G01X23217Y33907D01*
G01X23225Y33914D01*
G01X23232Y33922D01*
G01X23239Y33930D01*
G01X23245Y33938D01*
G01X23252Y33946D01*
G01X23258Y33955D01*
G01X23263Y33964D01*
G01X23268Y33973D01*
G01X23273Y33982D01*
G01X23278Y33992D01*
G01X23282Y34002D01*
G01X23285Y34011D01*
G01X23288Y34021D01*
G01X23291Y34032D01*
G01X23294Y34042D01*
G01X23295Y34052D01*
G01X23297Y34063D01*
G01X23298Y34073D01*
G01X23299Y34083D01*
G01X23299Y34094D01*
G01X23299Y34993D01*
G01X23299Y35004D01*
G01X23298Y35014D01*
G01X23297Y35024D01*
G01X23295Y35035D01*
G01X23294Y35045D01*
G01X23291Y35055D01*
G01X23288Y35066D01*
G01X23285Y35076D01*
G01X23282Y35085D01*
G01X23278Y35095D01*
G01X23273Y35105D01*
G01X23268Y35114D01*
G01X23263Y35123D01*
G01X23258Y35132D01*
G01X23252Y35141D01*
G01X23245Y35149D01*
G01X23239Y35157D01*
G01X23232Y35165D01*
G01X23225Y35173D01*
G01X23217Y35180D01*
G01X23209Y35187D01*
G01X23201Y35194D01*
G01X23193Y35200D01*
G01X23184Y35206D01*
G01X23175Y35211D01*
G01X23166Y35216D01*
G01X23156Y35221D01*
G01X23147Y35226D01*
G01X23137Y35230D01*
G01X23127Y35233D01*
G01X23117Y35237D01*
G01X23107Y35239D01*
G01X23097Y35242D01*
G01X23087Y35244D01*
G01X23076Y35245D01*
G01X23066Y35246D01*
G01X23055Y35247D01*
G01X23045Y35247D01*
G01X22344Y35247D01*
G01X22333Y35247D01*
G01X22323Y35246D01*
G01X22312Y35245D01*
G01X22302Y35244D01*
G01X22292Y35242D01*
G01X22282Y35239D01*
G01X22271Y35237D01*
G01X22261Y35233D01*
G01X22252Y35230D01*
G01X22242Y35226D01*
G01X22232Y35221D01*
G01X22223Y35216D01*
G01X22214Y35211D01*
G01X22205Y35206D01*
G01X22196Y35200D01*
G01X22188Y35194D01*
G01X22180Y35187D01*
G01X22172Y35180D01*
G01X22164Y35173D01*
G01X22157Y35165D01*
G01X22150Y35157D01*
G01X22143Y35149D01*
G01X22137Y35141D01*
G01X22131Y35132D01*
G01X22126Y35123D01*
G01X22120Y35114D01*
G01X22116Y35105D01*
G01X22111Y35095D01*
G01X22107Y35085D01*
G01X22104Y35076D01*
G01X22100Y35066D01*
G01X22098Y35055D01*
G01X22095Y35045D01*
G01X22093Y35035D01*
G01X22092Y35024D01*
G01X22091Y35014D01*
G01X22090Y35004D01*
G01X22090Y34993D01*
G01X22090Y34454D01*
G01X21994Y34358D01*
G01X21996Y34362D01*
G01X22005Y34377D01*
G01X22013Y34394D01*
G01X22020Y34411D01*
G01X22026Y34428D01*
G01X22031Y34445D01*
G01X22036Y34462D01*
G01X22039Y34480D01*
G01X22042Y34498D01*
G01X22044Y34516D01*
G01X22045Y34534D01*
G01X22045Y34553D01*
G01X22044Y34571D01*
G01X22042Y34589D01*
G01X22039Y34607D01*
G01X22036Y34625D01*
G01X22031Y34642D01*
G01X22026Y34659D01*
G01X22020Y34676D01*
G01X22013Y34693D01*
G01X22005Y34710D01*
G01X21996Y34726D01*
G01X21987Y34741D01*
G01X21978Y34754D01*
G01X21978Y34993D01*
G01X21978Y35004D01*
G01X21977Y35014D01*
G01X21976Y35024D01*
G01X21975Y35035D01*
G01X21973Y35045D01*
G01X21970Y35055D01*
G01X21968Y35066D01*
G01X21964Y35076D01*
G01X21961Y35085D01*
G01X21957Y35095D01*
G01X21952Y35105D01*
G01X21948Y35114D01*
G01X21942Y35123D01*
G01X21937Y35132D01*
G01X21931Y35141D01*
G01X21925Y35149D01*
G01X21918Y35157D01*
G01X21911Y35165D01*
G01X21904Y35173D01*
G01X21896Y35180D01*
G01X21888Y35187D01*
G01X21880Y35194D01*
G01X21872Y35200D01*
G01X21863Y35206D01*
G01X21854Y35211D01*
G01X21845Y35216D01*
G01X21836Y35221D01*
G01X21826Y35226D01*
G01X21816Y35230D01*
G01X21807Y35233D01*
G01X21797Y35237D01*
G01X21786Y35239D01*
G01X21776Y35242D01*
G01X21766Y35244D01*
G01X21756Y35245D01*
G01X21745Y35246D01*
G01X21743Y35246D01*
G01X22134Y35637D01*
G01X28723Y35637D01*
G01X30667Y33694D01*
G01X30676Y33685D01*
G01X30686Y33677D01*
G01X30696Y33668D01*
G01X30706Y33660D01*
G01X30716Y33653D01*
G01X30727Y33645D01*
G01X30738Y33639D01*
G01X30750Y33632D01*
G01X30761Y33626D01*
G01X30773Y33621D01*
G01X30785Y33615D01*
G01X30797Y33611D01*
G01X30809Y33606D01*
G01X30821Y33602D01*
G01X30834Y33599D01*
G01X30847Y33596D01*
G01X30859Y33593D01*
G01X30872Y33591D01*
G01X30885Y33590D01*
G01X30898Y33589D01*
G01X30911Y33588D01*
G01X30924Y33588D01*
G01X32699Y33588D01*
G01X32699Y33372D01*
G01X32699Y33362D01*
G01X32700Y33351D01*
G01X32701Y33341D01*
G01X32703Y33330D01*
G01X32705Y33320D01*
G01X32707Y33310D01*
G01X32710Y33300D01*
G01X32713Y33290D01*
G01X32717Y33280D01*
G01X32721Y33270D01*
G01X32725Y33260D01*
G01X32730Y33251D01*
G01X32735Y33242D01*
G01X32741Y33233D01*
G01X32747Y33224D01*
G01X32753Y33216D01*
G01X32759Y33208D01*
G01X32766Y33200D01*
G01X32774Y33192D01*
G01X32781Y33185D01*
G01X32789Y33178D01*
G01X32797Y33172D01*
G01X32806Y33165D01*
G01X32814Y33159D01*
G01X32823Y33154D01*
G01X32832Y33149D01*
G01X32842Y33144D01*
G01X32851Y33139D01*
G01X32861Y33135D01*
G01X32871Y33132D01*
G01X32881Y33129D01*
G01X32891Y33126D01*
G01X32901Y33123D01*
G01X32911Y33121D01*
G01X32922Y33120D01*
G01X32932Y33119D01*
G01X32943Y33118D01*
G01X32953Y33118D01*
G37*
G36*
G01X21508Y24907D02*
G01X21564Y24908D01*
G01X21620Y24915D01*
G01X21674Y24927D01*
G01X21727Y24945D01*
G01X21777Y24968D01*
G01X21826Y24996D01*
G01X21871Y25028D01*
G01X21913Y25065D01*
G01X21951Y25106D01*
G01X21984Y25151D01*
G01X22013Y25198D01*
G01X22038Y25248D01*
G01X22057Y25301D01*
G01X22070Y25355D01*
G01X22079Y25410D01*
G01X22081Y25466D01*
G01X22079Y25507D01*
G01X24981Y28409D01*
G01X30371Y28409D01*
G01X30385Y28392D01*
G01X30425Y28353D01*
G01X30468Y28319D01*
G01X30515Y28289D01*
G01X30565Y28263D01*
G01X30616Y28243D01*
G01X30670Y28228D01*
G01X30725Y28218D01*
G01X30781Y28214D01*
G01X30836Y28215D01*
G01X30892Y28222D01*
G01X30946Y28235D01*
G01X30999Y28252D01*
G01X31049Y28275D01*
G01X31098Y28303D01*
G01X31143Y28336D01*
G01X31185Y28372D01*
G01X31223Y28413D01*
G01X31256Y28458D01*
G01X31285Y28505D01*
G01X31310Y28555D01*
G01X31329Y28608D01*
G01X31342Y28662D01*
G01X31351Y28717D01*
G01X31353Y28773D01*
G01X31351Y28828D01*
G01X31342Y28883D01*
G01X31329Y28937D01*
G01X31310Y28990D01*
G01X31285Y29040D01*
G01X31256Y29088D01*
G01X31223Y29132D01*
G01X31185Y29173D01*
G01X31143Y29210D01*
G01X31098Y29242D01*
G01X31049Y29270D01*
G01X30999Y29293D01*
G01X30946Y29311D01*
G01X30892Y29323D01*
G01X30836Y29330D01*
G01X30781Y29331D01*
G01X30725Y29327D01*
G01X30670Y29318D01*
G01X30616Y29303D01*
G01X30565Y29282D01*
G01X30515Y29257D01*
G01X30468Y29226D01*
G01X30425Y29192D01*
G01X30385Y29153D01*
G01X30371Y29137D01*
G01X24831Y29137D01*
G01X24818Y29136D01*
G01X24805Y29136D01*
G01X24792Y29135D01*
G01X24779Y29133D01*
G01X24766Y29131D01*
G01X24753Y29128D01*
G01X24741Y29125D01*
G01X24728Y29122D01*
G01X24716Y29118D01*
G01X24703Y29114D01*
G01X24691Y29109D01*
G01X24679Y29104D01*
G01X24668Y29098D01*
G01X24656Y29092D01*
G01X24645Y29086D01*
G01X24634Y29079D01*
G01X24623Y29072D01*
G01X24612Y29064D01*
G01X24602Y29056D01*
G01X24592Y29048D01*
G01X24583Y29039D01*
G01X24573Y29030D01*
G01X21566Y26023D01*
G01X21564Y26023D01*
G01X21508Y26024D01*
G01X21453Y26020D01*
G01X21398Y26011D01*
G01X21344Y25995D01*
G01X21293Y25975D01*
G01X21243Y25950D01*
G01X21196Y25919D01*
G01X21153Y25885D01*
G01X21113Y25846D01*
G01X21077Y25803D01*
G01X21045Y25757D01*
G01X21019Y25708D01*
G01X20997Y25657D01*
G01X20981Y25603D01*
G01X20970Y25549D01*
G01X20964Y25493D01*
G01X20964Y25438D01*
G01X20970Y25382D01*
G01X20981Y25328D01*
G01X20997Y25274D01*
G01X21019Y25223D01*
G01X21045Y25174D01*
G01X21077Y25128D01*
G01X21113Y25085D01*
G01X21153Y25046D01*
G01X21196Y25012D01*
G01X21243Y24981D01*
G01X21293Y24956D01*
G01X21344Y24936D01*
G01X21398Y24921D01*
G01X21453Y24911D01*
G01X21508Y24907D01*
G37*
G36*
G01X32478Y24672D02*
G01X33608Y24672D01*
G01X33608Y25975D01*
G01X33608Y25976D01*
G01X32732Y25976D01*
G01X32722Y25976D01*
G01X32711Y25975D01*
G01X32701Y25974D01*
G01X32691Y25973D01*
G01X32680Y25971D01*
G01X32670Y25968D01*
G01X32660Y25966D01*
G01X32650Y25962D01*
G01X32640Y25959D01*
G01X32630Y25955D01*
G01X32621Y25950D01*
G01X32612Y25945D01*
G01X32602Y25940D01*
G01X32594Y25935D01*
G01X32585Y25929D01*
G01X32576Y25923D01*
G01X32568Y25916D01*
G01X32560Y25909D01*
G01X32553Y25902D01*
G01X32546Y25894D01*
G01X32539Y25886D01*
G01X32532Y25878D01*
G01X32526Y25870D01*
G01X32520Y25861D01*
G01X32514Y25852D01*
G01X32509Y25843D01*
G01X32504Y25834D01*
G01X32500Y25824D01*
G01X32496Y25814D01*
G01X32492Y25805D01*
G01X32489Y25795D01*
G01X32486Y25784D01*
G01X32484Y25774D01*
G01X32482Y25764D01*
G01X32480Y25753D01*
G01X32479Y25743D01*
G01X32479Y25733D01*
G01X32478Y25722D01*
G01X32478Y24672D01*
G37*
G36*
G01X35358Y24672D02*
G01X36487Y24672D01*
G01X36487Y25722D01*
G01X36486Y25733D01*
G01X36486Y25743D01*
G01X36485Y25753D01*
G01X36483Y25764D01*
G01X36481Y25774D01*
G01X36479Y25784D01*
G01X36476Y25795D01*
G01X36473Y25805D01*
G01X36469Y25814D01*
G01X36465Y25824D01*
G01X36461Y25834D01*
G01X36456Y25843D01*
G01X36451Y25852D01*
G01X36445Y25861D01*
G01X36439Y25870D01*
G01X36433Y25878D01*
G01X36426Y25886D01*
G01X36419Y25894D01*
G01X36412Y25902D01*
G01X36405Y25909D01*
G01X36397Y25916D01*
G01X36389Y25923D01*
G01X36380Y25929D01*
G01X36372Y25935D01*
G01X36363Y25940D01*
G01X36353Y25945D01*
G01X36344Y25950D01*
G01X36335Y25955D01*
G01X36325Y25959D01*
G01X36315Y25962D01*
G01X36305Y25966D01*
G01X36295Y25968D01*
G01X36285Y25971D01*
G01X36274Y25973D01*
G01X36264Y25974D01*
G01X36254Y25975D01*
G01X36243Y25976D01*
G01X36233Y25976D01*
G01X35358Y25976D01*
G01X35358Y25975D01*
G01X35358Y24672D01*
G37*
G36*
G01X26318Y932D02*
G01X26453Y935D01*
G01X26587Y952D01*
G01X26719Y982D01*
G01X26847Y1025D01*
G01X26970Y1081D01*
G01X27087Y1148D01*
G01X27196Y1227D01*
G01X27297Y1316D01*
G01X27389Y1415D01*
G01X27471Y1523D01*
G01X27541Y1638D01*
G01X27600Y1760D01*
G01X27646Y1886D01*
G01X27679Y2017D01*
G01X27699Y2151D01*
G01X27706Y2286D01*
G01X27699Y2420D01*
G01X27679Y2554D01*
G01X27646Y2685D01*
G01X27600Y2811D01*
G01X27541Y2933D01*
G01X27471Y3048D01*
G01X27389Y3156D01*
G01X27297Y3255D01*
G01X27196Y3344D01*
G01X27087Y3423D01*
G01X26970Y3490D01*
G01X26847Y3546D01*
G01X26719Y3589D01*
G01X26587Y3619D01*
G01X26453Y3636D01*
G01X26318Y3639D01*
G01X26184Y3629D01*
G01X26051Y3606D01*
G01X25921Y3569D01*
G01X25795Y3520D01*
G01X25675Y3458D01*
G01X25562Y3385D01*
G01X25456Y3301D01*
G01X25359Y3206D01*
G01X25273Y3103D01*
G01X25197Y2992D01*
G01X25132Y2873D01*
G01X25080Y2749D01*
G01X25040Y2620D01*
G01X25013Y2487D01*
G01X25000Y2353D01*
G01X25000Y2218D01*
G01X25013Y2084D01*
G01X25040Y1951D01*
G01X25080Y1822D01*
G01X25132Y1698D01*
G01X25197Y1579D01*
G01X25273Y1468D01*
G01X25359Y1365D01*
G01X25456Y1270D01*
G01X25562Y1186D01*
G01X25675Y1113D01*
G01X25795Y1051D01*
G01X25921Y1002D01*
G01X26051Y965D01*
G01X26184Y942D01*
G01X26318Y932D01*
G37*
G36*
G01X35358Y21267D02*
G01X36233Y21267D01*
G01X36243Y21267D01*
G01X36254Y21268D01*
G01X36264Y21269D01*
G01X36274Y21270D01*
G01X36285Y21272D01*
G01X36295Y21275D01*
G01X36305Y21277D01*
G01X36315Y21281D01*
G01X36325Y21284D01*
G01X36335Y21288D01*
G01X36344Y21293D01*
G01X36353Y21298D01*
G01X36363Y21303D01*
G01X36372Y21308D01*
G01X36380Y21314D01*
G01X36389Y21320D01*
G01X36397Y21327D01*
G01X36405Y21334D01*
G01X36412Y21341D01*
G01X36419Y21349D01*
G01X36426Y21357D01*
G01X36433Y21365D01*
G01X36439Y21373D01*
G01X36445Y21382D01*
G01X36451Y21391D01*
G01X36456Y21400D01*
G01X36461Y21409D01*
G01X36465Y21419D01*
G01X36469Y21429D01*
G01X36473Y21438D01*
G01X36476Y21448D01*
G01X36479Y21459D01*
G01X36481Y21469D01*
G01X36483Y21479D01*
G01X36485Y21490D01*
G01X36486Y21500D01*
G01X36486Y21510D01*
G01X36487Y21521D01*
G01X36487Y22571D01*
G01X35358Y22571D01*
G01X35358Y21268D01*
G01X35358Y21267D01*
G37*
G36*
G01X32732Y21267D02*
G01X33608Y21267D01*
G01X33608Y21268D01*
G01X33608Y22571D01*
G01X32478Y22571D01*
G01X32478Y21521D01*
G01X32479Y21510D01*
G01X32479Y21500D01*
G01X32480Y21490D01*
G01X32482Y21479D01*
G01X32484Y21469D01*
G01X32486Y21459D01*
G01X32489Y21448D01*
G01X32492Y21438D01*
G01X32496Y21429D01*
G01X32500Y21419D01*
G01X32504Y21409D01*
G01X32509Y21400D01*
G01X32514Y21391D01*
G01X32520Y21382D01*
G01X32526Y21373D01*
G01X32532Y21365D01*
G01X32539Y21357D01*
G01X32546Y21349D01*
G01X32553Y21341D01*
G01X32560Y21334D01*
G01X32568Y21327D01*
G01X32576Y21320D01*
G01X32585Y21314D01*
G01X32594Y21308D01*
G01X32602Y21303D01*
G01X32612Y21298D01*
G01X32621Y21293D01*
G01X32630Y21288D01*
G01X32640Y21284D01*
G01X32650Y21281D01*
G01X32660Y21277D01*
G01X32670Y21275D01*
G01X32680Y21272D01*
G01X32691Y21270D01*
G01X32701Y21269D01*
G01X32711Y21268D01*
G01X32722Y21267D01*
G01X32732Y21267D01*
G37*

%LPD*%
G54D11*
G01X6522Y23622D02*
G01X7345Y22799D01*
G01X8412Y22799D01*
G01X10858Y38862D02*
G01X10858Y37597D01*
G01X6522Y23622D02*
G01X6522Y33261D01*
G01X10858Y37597D01*
G01X4508Y23622D02*
G01X6522Y23622D01*
G01X29552Y23622D02*
G01X29552Y16979D01*
G01X23850Y11280D01*
G01X23096Y11280D01*
G01X23096Y11280D02*
G01X14823Y11280D01*
G01X13782Y10238D01*
G01X13934Y9906D01*
G01X13754Y9906D01*
G01X34483Y23622D02*
G01X29552Y23622D01*
G01X23710Y9906D02*
G01X33210Y9906D01*
G01X35491Y23622D02*
G01X34483Y23622D01*
G01X23515Y9906D02*
G01X23710Y9906D01*
G01X13754Y9906D02*
G01X14124Y9900D01*
G01X17716Y37597D02*
G01X18173Y37139D01*
G01X18173Y34251D01*
G01X18714Y33710D01*
G01X21861Y33710D01*
G01X22694Y34544D01*
G01X17716Y38862D02*
G01X17716Y37597D01*
G01X15430Y37597D02*
G01X17053Y35974D01*
G01X17053Y35968D01*
G01X15430Y38862D02*
G01X15430Y37597D01*
G01X13144Y38862D02*
G01X13144Y37597D01*
G01X17716Y9906D02*
G01X17716Y8641D01*
G01X21374Y34544D02*
G01X18834Y34544D01*
G01X21681Y34544D02*
G01X21374Y34544D01*
G01X21681Y34544D02*
G01X21374Y34544D01*
G01X34025Y40642D02*
G01X11765Y40642D01*
G01X11445Y40322D01*
G01X20546Y32052D02*
G01X7134Y32052D01*
G01X23126Y19133D02*
G01X21341Y19133D01*
G01X20546Y19928D01*
G01X20546Y32052D01*
G01X23129Y20266D02*
G01X23129Y20744D01*
G01X27912Y25527D01*
G01X30449Y25527D01*
G01X36454Y31531D01*
G01X36454Y34968D01*
G01X35250Y36172D01*
G01X1821Y25537D02*
G01X1821Y21104D01*
G01X4005Y18923D01*
G01X18211Y18923D01*
G01X18874Y18260D01*
G01X23512Y18260D01*
G01X23924Y18671D01*
G01X23924Y19484D01*
G01X23129Y20266D01*
G01X23129Y20266D02*
G01X21247Y20266D01*
G01X33985Y36172D02*
G01X35250Y36172D01*
G01X30794Y28773D02*
G01X24831Y28773D01*
G01X21523Y25466D01*
G01X28935Y17853D02*
G01X17233Y17853D01*
G01X23766Y12654D02*
G01X21849Y12654D01*
G01X18046Y16456D01*
G01X10393Y13093D02*
G01X19646Y13093D01*
G01X20434Y17066D02*
G01X5953Y17066D01*
G01X27330Y24104D02*
G01X25580Y22354D01*
G01X25580Y19481D01*
G54D12*
G01X17716Y8641D02*
G01X17716Y8470D01*
G01X15463Y8470D01*
G01X15044Y8892D01*
G01X15044Y9875D01*
G01X15074Y9906D01*
G01X37320Y25354D02*
G01X36215Y25354D01*
G01X34483Y23622D01*
G01X16243Y7104D02*
G01X31335Y7104D01*
G01X31683Y7452D01*
G01X31683Y8379D01*
G01X31772Y8468D01*
G01X22390Y9906D02*
G01X20256Y9906D01*
G01X23710Y9906D02*
G01X23710Y11252D01*
G01X23682Y11280D01*
G01X13144Y37597D02*
G01X13144Y36662D01*
G01X15354Y34452D01*
G01X17546Y34452D01*
G01X17576Y34483D01*
G01X21374Y34544D02*
G01X21374Y35392D01*
G01X21983Y36001D01*
G01X28874Y36001D01*
G01X30924Y33952D01*
G01X33934Y33952D01*
G01X33954Y33972D01*
G01X7251Y37056D02*
G01X6370Y37056D01*
G01X6283Y37142D01*
G01X6283Y38859D01*
G01X6286Y38862D01*
G01X33985Y38351D02*
G01X32953Y38351D01*
G01X31823Y39481D01*
G01X31904Y39563D01*
G01X24485Y31772D02*
G01X20568Y31772D01*
G01X20546Y31747D01*
G01X36370Y38295D02*
G01X36370Y38295D01*
G01X34023Y40642D01*
G54D22*
G01X4508Y23622D03*
G01X34483Y23622D03*
G36*
G01X33101Y10835D02*
G01X32280Y10015D01*
G01X33319Y8976D01*
G01X34140Y9796D01*
G01X33101Y10835D01*
G37*
G36*
G01X31663Y9398D02*
G01X30843Y8577D01*
G01X31882Y7538D01*
G01X32702Y8359D01*
G01X31663Y9398D01*
G37*
G54D24*
G01X17716Y38862D03*
G01X15430Y38862D03*
G01X13144Y38862D03*
G01X10858Y38862D03*
G01X8572Y38862D03*
G01X6286Y38862D03*
G01X17716Y9906D03*
G01X20256Y9906D03*
G54D17*
G01X22694Y34544D03*
G01X21374Y34544D03*
G01X23710Y9906D03*
G01X22390Y9906D03*
G01X13754Y9906D03*
G01X15074Y9906D03*
G54D25*
G01X34024Y40642D03*
G01X33984Y38351D03*
G01X33984Y36171D03*
G01X33954Y33971D03*
G54D13*
G01X12890Y44704D03*
G01X17462Y44704D03*
G01X22034Y44704D03*
G01X26352Y44704D03*
G01X12890Y2286D03*
G01X17462Y2286D03*
G01X22034Y2286D03*
G01X26352Y2286D03*
G01X2184Y40292D03*
G01X36886Y40280D03*
G01X2156Y6958D03*
G01X36858Y6946D03*
G54D14*
G01X16243Y7104D03*
G01X8412Y22799D03*
G01X29552Y23622D03*
G01X37321Y25353D03*
G01X7251Y37056D03*
G01X17053Y35968D03*
G01X17576Y34483D03*
G01X18834Y34544D03*
G01X36370Y38295D03*
G01X11445Y40322D03*
G01X23126Y19133D03*
G01X7134Y32052D03*
G01X1820Y25536D03*
G01X21247Y20266D03*
G01X30794Y28773D03*
G01X21522Y25466D03*
G01X28935Y17853D03*
G01X17233Y17853D03*
G01X18046Y16456D03*
G01X23767Y12654D03*
G01X10393Y13093D03*
G01X19646Y13093D03*
G01X5953Y17066D03*
G01X20434Y17066D03*
G01X25580Y19481D03*
G01X27330Y24104D03*
G01X31904Y39562D03*
G01X24484Y31771D03*
M00*
M02*
