G04 ---------------------------- Layer name :TOP PASTER LAYER*
G04 EasyEDA v5.6.15, Sun, 19 Aug 2018 09:15:10 GMT*
G04 20d6072df84a40519853f38576b9eb16*
G04 Gerber Generator version 0.2*
G04 Scale: 100 percent, Rotated: No, Reflected: No *
G04 Dimensions in millimeters *
G04 leading zeros omitted , absolute positions ,3 integer and 3 decimal *
%FSLAX33Y33*%
%MOMM*%
G90*
G71D02*

%ADD15R,0.500380X0.599440*%
%ADD16R,0.899160X0.701040*%
%ADD17R,0.701040X0.899160*%
%ADD18R,0.599440X0.500380*%
%ADD19R,1.499997X1.999996*%
%ADD20R,1.270000X0.558800*%
%ADD21R,0.558800X1.270000*%

%LPD*%
G36*
G01X30038Y37818D02*
G01X29789Y37383D01*
G01X29270Y37683D01*
G01X29519Y38117D01*
G01X30038Y37818D01*
G37*
G36*
G01X30546Y38699D02*
G01X30297Y38265D01*
G01X29778Y38564D01*
G01X30027Y38999D01*
G01X30546Y38699D01*
G37*
G54D16*
G01X28638Y24119D03*
G01X28638Y22799D03*
G01X9334Y24119D03*
G01X9334Y22799D03*
G54D17*
G01X19244Y39971D03*
G01X20564Y39971D03*
G54D18*
G01X19240Y41240D03*
G01X19240Y42256D03*
G36*
G01X28904Y37106D02*
G01X29511Y36755D01*
G01X29061Y35978D01*
G01X28454Y36328D01*
G01X28904Y37106D01*
G37*
G36*
G01X30047Y36445D02*
G01X30654Y36095D01*
G01X30204Y35317D01*
G01X29597Y35668D01*
G01X30047Y36445D01*
G37*
G36*
G01X33857Y31191D02*
G01X34208Y30584D01*
G01X33430Y30135D01*
G01X33080Y30742D01*
G01X33857Y31191D01*
G37*
G36*
G01X34518Y30048D02*
G01X34868Y29441D01*
G01X34091Y28992D01*
G01X33740Y29599D01*
G01X34518Y30048D01*
G37*
G36*
G01X35168Y31198D02*
G01X34734Y30949D01*
G01X34434Y31468D01*
G01X34869Y31716D01*
G01X35168Y31198D01*
G37*
G36*
G01X36050Y31706D02*
G01X35615Y31457D01*
G01X35316Y31976D01*
G01X35750Y32224D01*
G01X36050Y31706D01*
G37*
G54D16*
G01X35424Y23632D03*
G01X35424Y22311D03*
G54D15*
G01X36767Y23622D03*
G01X37783Y23622D03*
G36*
G01X33688Y15342D02*
G01X33338Y14735D01*
G01X32560Y15184D01*
G01X32911Y15791D01*
G01X33688Y15342D01*
G37*
G36*
G01X33028Y14199D02*
G01X32677Y13592D01*
G01X31900Y14041D01*
G01X32250Y14648D01*
G01X33028Y14199D01*
G37*
G36*
G01X34361Y14185D02*
G01X33926Y14434D01*
G01X34226Y14952D01*
G01X34660Y14704D01*
G01X34361Y14185D01*
G37*
G36*
G01X35242Y13677D02*
G01X34808Y13926D01*
G01X35107Y14444D01*
G01X35542Y14196D01*
G01X35242Y13677D01*
G37*
G36*
G01X27964Y9628D02*
G01X27357Y9278D01*
G01X26907Y10055D01*
G01X27514Y10406D01*
G01X27964Y9628D01*
G37*
G36*
G01X26821Y8968D02*
G01X26214Y8617D01*
G01X25764Y9395D01*
G01X26371Y9745D01*
G01X26821Y8968D01*
G37*
G36*
G01X27995Y8293D02*
G01X27746Y8727D01*
G01X28265Y9027D01*
G01X28514Y8592D01*
G01X27995Y8293D01*
G37*
G36*
G01X28503Y7411D02*
G01X28254Y7846D01*
G01X28773Y8145D01*
G01X29022Y7711D01*
G01X28503Y7411D01*
G37*
G54D17*
G01X19214Y7301D03*
G01X17894Y7301D03*
G54D18*
G01X19240Y5934D03*
G01X19240Y4918D03*
G36*
G01X11614Y8827D02*
G01X11007Y9178D01*
G01X11457Y9955D01*
G01X12064Y9605D01*
G01X11614Y8827D01*
G37*
G36*
G01X10471Y9488D02*
G01X9864Y9838D01*
G01X10314Y10616D01*
G01X10921Y10265D01*
G01X10471Y9488D01*
G37*
G36*
G01X10474Y8084D02*
G01X10723Y8519D01*
G01X11242Y8219D01*
G01X10993Y7785D01*
G01X10474Y8084D01*
G37*
G36*
G01X9966Y7203D02*
G01X10215Y7637D01*
G01X10734Y7338D01*
G01X10485Y6903D01*
G01X9966Y7203D01*
G37*
G36*
G01X5531Y14832D02*
G01X5180Y15439D01*
G01X5958Y15888D01*
G01X6308Y15281D01*
G01X5531Y14832D01*
G37*
G36*
G01X4871Y15975D02*
G01X4520Y16582D01*
G01X5297Y17031D01*
G01X5648Y16424D01*
G01X4871Y15975D01*
G37*
G36*
G01X4074Y14704D02*
G01X4508Y14952D01*
G01X4808Y14434D01*
G01X4373Y14185D01*
G01X4074Y14704D01*
G37*
G36*
G01X3192Y14196D02*
G01X3627Y14444D01*
G01X3926Y13926D01*
G01X3492Y13677D01*
G01X3192Y14196D01*
G37*
G54D16*
G01X3444Y23451D03*
G01X3444Y24772D03*
G54D15*
G01X1969Y23459D03*
G01X953Y23459D03*
G36*
G01X4630Y30831D02*
G01X4980Y31438D01*
G01X5758Y30989D01*
G01X5407Y30382D01*
G01X4630Y30831D01*
G37*
G36*
G01X5290Y31974D02*
G01X5641Y32581D01*
G01X6418Y32132D01*
G01X6068Y31525D01*
G01X5290Y31974D01*
G37*
G36*
G01X3865Y31970D02*
G01X4300Y31722D01*
G01X4000Y31203D01*
G01X3566Y31452D01*
G01X3865Y31970D01*
G37*
G36*
G01X2984Y32478D02*
G01X3418Y32230D01*
G01X3119Y31711D01*
G01X2684Y31960D01*
G01X2984Y32478D01*
G37*
G36*
G01X9723Y38371D02*
G01X9972Y37937D01*
G01X9453Y37637D01*
G01X9204Y38072D01*
G01X9723Y38371D01*
G37*
G36*
G01X9215Y39253D02*
G01X9464Y38818D01*
G01X8945Y38519D01*
G01X8696Y38953D01*
G01X9215Y39253D01*
G37*
G36*
G01X9774Y37075D02*
G01X10381Y37425D01*
G01X10831Y36648D01*
G01X10224Y36297D01*
G01X9774Y37075D01*
G37*
G36*
G01X10917Y37735D02*
G01X11524Y38086D01*
G01X11974Y37308D01*
G01X11367Y36958D01*
G01X10917Y37735D01*
G37*
G54D19*
G01X15342Y14660D03*
G01X23344Y14661D03*
G54D16*
G01X26606Y15229D03*
G01X26606Y13909D03*
G54D20*
G01X14947Y26253D03*
G01X14947Y25466D03*
G01X14947Y24653D03*
G01X14947Y23865D03*
G01X14947Y23053D03*
G01X14947Y22265D03*
G01X14947Y21452D03*
G01X14947Y20665D03*
G54D21*
G01X16446Y19166D03*
G01X17233Y19166D03*
G01X18046Y19166D03*
G01X18834Y19166D03*
G01X19646Y19166D03*
G01X20434Y19166D03*
G01X21247Y19166D03*
G01X22034Y19166D03*
G54D20*
G01X23533Y20665D03*
G01X23533Y21452D03*
G01X23533Y22265D03*
G01X23533Y23053D03*
G01X23533Y23865D03*
G01X23533Y24653D03*
G01X23533Y25466D03*
G01X23533Y26253D03*
G54D21*
G01X22034Y27752D03*
G01X21247Y27752D03*
G01X20434Y27752D03*
G01X19646Y27752D03*
G01X18834Y27752D03*
G01X18046Y27752D03*
G01X17233Y27752D03*
G01X16446Y27752D03*
M00*
M02*
