;PTH Drill file created by EasyEDA 
M48
METRIC,LZ,000.000
;Holesize 1 = 0.306 METRIC
T01C0.306
;Holesize 2 = 2.000 METRIC
T02C2.000
%
G05
G90
T01
X016243Y007104
X008412Y022799
X029552Y023622
X037321Y025353
X007251Y037056
X017053Y035968
X017576Y034483
X018834Y034544
X036370Y038295
X011445Y040322
X023126Y019133
X007134Y032052
X001820Y025536
X021247Y020266
X030794Y028773
X021522Y025466
X028935Y017853
X017233Y017853
X018046Y016456
X023767Y012654
X010393Y013093
X019646Y013093
X005953Y017066
X020434Y017066
X025580Y019481
X027330Y024104
X031904Y039562
X024484Y031771
T02
X012890Y044704
X017462Y044704
X022034Y044704
X026352Y044704
X012890Y002286
X017462Y002286
X022034Y002286
X026352Y002286
X002184Y040292
X036886Y040280
X002156Y006958
X036858Y006946
M30
