G04 ---------------------------- Layer name :BOTTOM SILK LAYER*
G04 EasyEDA v5.6.15, Sun, 19 Aug 2018 09:15:10 GMT*
G04 20d6072df84a40519853f38576b9eb16*
G04 Gerber Generator version 0.2*
G04 Scale: 100 percent, Rotated: No, Reflected: No *
G04 Dimensions in millimeters *
G04 leading zeros omitted , absolute positions ,3 integer and 3 decimal *
%FSLAX33Y33*%
%MOMM*%
G90*
G71D02*

%ADD10C,0.254000*%
%ADD26C,0.406399*%
%ADD28C,0.203200*%
%ADD30C,0.177800*%
%ADD31C,0.199898*%

%LPD*%

%LPD*%
G36*
G01X4019Y5018D02*
G01X3953Y5018D01*
G01X3890Y5020D01*
G01X3831Y5026D01*
G01X3779Y5035D01*
G01X3732Y5048D01*
G01X3694Y5064D01*
G01X3650Y5089D01*
G01X3605Y5119D01*
G01X3559Y5153D01*
G01X3513Y5190D01*
G01X3466Y5232D01*
G01X3419Y5276D01*
G01X3373Y5322D01*
G01X3327Y5371D01*
G01X3283Y5421D01*
G01X3240Y5473D01*
G01X3198Y5525D01*
G01X3158Y5576D01*
G01X3121Y5628D01*
G01X3087Y5679D01*
G01X3056Y5729D01*
G01X3028Y5777D01*
G01X3004Y5823D01*
G01X2985Y5866D01*
G01X2969Y5906D01*
G01X2959Y5943D01*
G01X2953Y5976D01*
G01X2953Y6004D01*
G01X2959Y6027D01*
G01X2971Y6045D01*
G01X2996Y6080D01*
G01X3010Y6121D01*
G01X3014Y6165D01*
G01X3006Y6206D01*
G01X2999Y6248D01*
G01X3005Y6297D01*
G01X3022Y6346D01*
G01X3050Y6390D01*
G01X3077Y6431D01*
G01X3094Y6475D01*
G01X3098Y6515D01*
G01X3089Y6547D01*
G01X3078Y6575D01*
G01X3081Y6604D01*
G01X3093Y6630D01*
G01X3116Y6651D01*
G01X3141Y6680D01*
G01X3163Y6727D01*
G01X3177Y6786D01*
G01X3182Y6851D01*
G01X3187Y6912D01*
G01X3200Y6963D01*
G01X3219Y6997D01*
G01X3243Y7009D01*
G01X3273Y7021D01*
G01X3297Y7054D01*
G01X3315Y7104D01*
G01X3326Y7168D01*
G01X3329Y7242D01*
G01X3325Y7321D01*
G01X3313Y7403D01*
G01X3291Y7484D01*
G01X3283Y7515D01*
G01X3276Y7553D01*
G01X3272Y7595D01*
G01X3269Y7643D01*
G01X3268Y7695D01*
G01X3268Y7752D01*
G01X3272Y7814D01*
G01X3276Y7880D01*
G01X3283Y7949D01*
G01X3291Y8023D01*
G01X3301Y8100D01*
G01X3313Y8181D01*
G01X3328Y8284D01*
G01X3341Y8375D01*
G01X3351Y8456D01*
G01X3357Y8527D01*
G01X3361Y8590D01*
G01X3361Y8648D01*
G01X3358Y8700D01*
G01X3352Y8749D01*
G01X3343Y8797D01*
G01X3330Y8843D01*
G01X3314Y8892D01*
G01X3294Y8942D01*
G01X3281Y8979D01*
G01X3266Y9021D01*
G01X3252Y9068D01*
G01X3238Y9118D01*
G01X3224Y9171D01*
G01X3211Y9227D01*
G01X3197Y9284D01*
G01X3185Y9342D01*
G01X3174Y9400D01*
G01X3164Y9457D01*
G01X3155Y9512D01*
G01X3148Y9565D01*
G01X3135Y9658D01*
G01X3122Y9735D01*
G01X3107Y9797D01*
G01X3092Y9846D01*
G01X3076Y9881D01*
G01X3058Y9903D01*
G01X3038Y9912D01*
G01X3017Y9910D01*
G01X2986Y9903D01*
G01X2954Y9906D01*
G01X2922Y9918D01*
G01X2888Y9940D01*
G01X2854Y9972D01*
G01X2819Y10014D01*
G01X2784Y10065D01*
G01X2748Y10125D01*
G01X2711Y10196D01*
G01X2674Y10276D01*
G01X2636Y10365D01*
G01X2597Y10464D01*
G01X2577Y10519D01*
G01X2559Y10571D01*
G01X2544Y10623D01*
G01X2529Y10673D01*
G01X2517Y10723D01*
G01X2506Y10774D01*
G01X2497Y10826D01*
G01X2490Y10879D01*
G01X2484Y10935D01*
G01X2480Y10994D01*
G01X2477Y11056D01*
G01X2474Y11122D01*
G01X2474Y11192D01*
G01X2474Y11268D01*
G01X2475Y11351D01*
G01X2478Y11439D01*
G01X2482Y11564D01*
G01X2487Y11670D01*
G01X2492Y11761D01*
G01X2498Y11838D01*
G01X2506Y11901D01*
G01X2516Y11953D01*
G01X2527Y11994D01*
G01X2541Y12027D01*
G01X2558Y12053D01*
G01X2578Y12074D01*
G01X2600Y12090D01*
G01X2627Y12103D01*
G01X2649Y12114D01*
G01X2668Y12125D01*
G01X2684Y12139D01*
G01X2699Y12157D01*
G01X2711Y12179D01*
G01X2722Y12206D01*
G01X2732Y12239D01*
G01X2739Y12279D01*
G01X2746Y12329D01*
G01X2751Y12387D01*
G01X2756Y12455D01*
G01X2759Y12534D01*
G01X2763Y12625D01*
G01X2765Y12729D01*
G01X2767Y12847D01*
G01X2769Y12980D01*
G01X2771Y13056D01*
G01X2772Y13131D01*
G01X2775Y13204D01*
G01X2778Y13277D01*
G01X2781Y13349D01*
G01X2785Y13419D01*
G01X2789Y13489D01*
G01X2795Y13558D01*
G01X2800Y13626D01*
G01X2806Y13693D01*
G01X2812Y13759D01*
G01X2819Y13824D01*
G01X2827Y13888D01*
G01X2835Y13951D01*
G01X2844Y14013D01*
G01X2853Y14075D01*
G01X2863Y14135D01*
G01X2873Y14195D01*
G01X2884Y14254D01*
G01X2896Y14312D01*
G01X2908Y14369D01*
G01X2920Y14425D01*
G01X2933Y14481D01*
G01X2947Y14535D01*
G01X2961Y14589D01*
G01X2976Y14642D01*
G01X2991Y14694D01*
G01X3007Y14745D01*
G01X3023Y14796D01*
G01X3040Y14845D01*
G01X3058Y14894D01*
G01X3075Y14942D01*
G01X3094Y14990D01*
G01X3133Y15083D01*
G01X3153Y15127D01*
G01X3173Y15168D01*
G01X3195Y15210D01*
G01X3218Y15252D01*
G01X3244Y15295D01*
G01X3271Y15338D01*
G01X3299Y15382D01*
G01X3329Y15426D01*
G01X3361Y15470D01*
G01X3395Y15515D01*
G01X3430Y15560D01*
G01X3467Y15605D01*
G01X3505Y15650D01*
G01X3544Y15696D01*
G01X3584Y15741D01*
G01X3626Y15786D01*
G01X3668Y15831D01*
G01X3712Y15876D01*
G01X3757Y15921D01*
G01X3802Y15965D01*
G01X3849Y16010D01*
G01X3897Y16053D01*
G01X3945Y16097D01*
G01X3994Y16140D01*
G01X4044Y16182D01*
G01X4094Y16224D01*
G01X4145Y16265D01*
G01X4247Y16345D01*
G01X4300Y16384D01*
G01X4352Y16422D01*
G01X4405Y16459D01*
G01X4458Y16495D01*
G01X4511Y16530D01*
G01X4564Y16565D01*
G01X4617Y16597D01*
G01X4670Y16629D01*
G01X4723Y16660D01*
G01X4776Y16689D01*
G01X4829Y16717D01*
G01X4881Y16743D01*
G01X4958Y16780D01*
G01X5035Y16816D01*
G01X5110Y16850D01*
G01X5184Y16881D01*
G01X5255Y16911D01*
G01X5322Y16937D01*
G01X5384Y16960D01*
G01X5442Y16980D01*
G01X5493Y16996D01*
G01X5537Y17007D01*
G01X5572Y17015D01*
G01X5599Y17017D01*
G01X5638Y17014D01*
G01X5687Y17005D01*
G01X5744Y16990D01*
G01X5808Y16971D01*
G01X5877Y16947D01*
G01X5947Y16921D01*
G01X6017Y16892D01*
G01X6086Y16860D01*
G01X6134Y16837D01*
G01X6181Y16812D01*
G01X6228Y16787D01*
G01X6274Y16761D01*
G01X6320Y16735D01*
G01X6365Y16707D01*
G01X6410Y16679D01*
G01X6456Y16649D01*
G01X6500Y16619D01*
G01X6544Y16588D01*
G01X6588Y16556D01*
G01X6631Y16523D01*
G01X6674Y16490D01*
G01X6716Y16455D01*
G01X6758Y16420D01*
G01X6800Y16384D01*
G01X6841Y16346D01*
G01X6882Y16309D01*
G01X6922Y16270D01*
G01X6962Y16231D01*
G01X7002Y16190D01*
G01X7041Y16149D01*
G01X7080Y16107D01*
G01X7118Y16064D01*
G01X7156Y16020D01*
G01X7194Y15976D01*
G01X7231Y15930D01*
G01X7267Y15884D01*
G01X7304Y15837D01*
G01X7340Y15789D01*
G01X7375Y15740D01*
G01X7411Y15691D01*
G01X7445Y15640D01*
G01X7479Y15589D01*
G01X7513Y15537D01*
G01X7547Y15484D01*
G01X7580Y15431D01*
G01X7612Y15376D01*
G01X7644Y15321D01*
G01X7676Y15264D01*
G01X7707Y15207D01*
G01X7738Y15150D01*
G01X7769Y15091D01*
G01X7799Y15032D01*
G01X7828Y14972D01*
G01X7858Y14911D01*
G01X7886Y14849D01*
G01X7915Y14786D01*
G01X7943Y14723D01*
G01X7970Y14658D01*
G01X7997Y14593D01*
G01X8024Y14527D01*
G01X8050Y14461D01*
G01X8076Y14393D01*
G01X8101Y14325D01*
G01X8126Y14256D01*
G01X8144Y14204D01*
G01X8161Y14153D01*
G01X8176Y14103D01*
G01X8190Y14053D01*
G01X8204Y14002D01*
G01X8217Y13951D01*
G01X8229Y13899D01*
G01X8240Y13847D01*
G01X8250Y13793D01*
G01X8260Y13738D01*
G01X8268Y13681D01*
G01X8276Y13622D01*
G01X8283Y13562D01*
G01X8290Y13498D01*
G01X8296Y13432D01*
G01X8302Y13363D01*
G01X8307Y13291D01*
G01X8312Y13216D01*
G01X8316Y13136D01*
G01X8320Y13054D01*
G01X8325Y12952D01*
G01X8331Y12853D01*
G01X8337Y12758D01*
G01X8344Y12667D01*
G01X8352Y12583D01*
G01X8359Y12505D01*
G01X8367Y12435D01*
G01X8376Y12374D01*
G01X8384Y12323D01*
G01X8392Y12282D01*
G01X8400Y12253D01*
G01X8416Y12221D01*
G01X8423Y12192D01*
G01X8430Y12151D01*
G01X8437Y12099D01*
G01X8444Y12037D01*
G01X8450Y11966D01*
G01X8455Y11888D01*
G01X8460Y11803D01*
G01X8464Y11711D01*
G01X8468Y11615D01*
G01X8470Y11515D01*
G01X8472Y11413D01*
G01X8473Y11297D01*
G01X8474Y11193D01*
G01X8473Y11098D01*
G01X8472Y11013D01*
G01X8470Y10936D01*
G01X8466Y10867D01*
G01X8462Y10805D01*
G01X8456Y10748D01*
G01X8449Y10697D01*
G01X8439Y10650D01*
G01X8429Y10606D01*
G01X8417Y10565D01*
G01X8402Y10525D01*
G01X8387Y10487D01*
G01X8368Y10449D01*
G01X8348Y10409D01*
G01X8329Y10371D01*
G01X8309Y10326D01*
G01X8289Y10275D01*
G01X8268Y10218D01*
G01X8247Y10156D01*
G01X8226Y10091D01*
G01X8206Y10023D01*
G01X8186Y9953D01*
G01X8167Y9883D01*
G01X8150Y9812D01*
G01X8134Y9742D01*
G01X8120Y9674D01*
G01X8111Y9633D01*
G01X8102Y9591D01*
G01X8091Y9547D01*
G01X8079Y9503D01*
G01X8067Y9457D01*
G01X8053Y9410D01*
G01X8038Y9362D01*
G01X8022Y9313D01*
G01X8005Y9262D01*
G01X7987Y9211D01*
G01X7968Y9158D01*
G01X7948Y9104D01*
G01X7927Y9050D01*
G01X7905Y8994D01*
G01X7882Y8936D01*
G01X7857Y8878D01*
G01X7832Y8818D01*
G01X7805Y8758D01*
G01X7778Y8696D01*
G01X7750Y8633D01*
G01X7720Y8570D01*
G01X7690Y8505D01*
G01X7658Y8438D01*
G01X7625Y8371D01*
G01X7579Y8278D01*
G01X7534Y8188D01*
G01X7491Y8103D01*
G01X7449Y8021D01*
G01X7407Y7942D01*
G01X7367Y7867D01*
G01X7328Y7796D01*
G01X7289Y7728D01*
G01X7251Y7663D01*
G01X7214Y7602D01*
G01X7178Y7543D01*
G01X7141Y7488D01*
G01X7105Y7436D01*
G01X7070Y7387D01*
G01X7035Y7341D01*
G01X7000Y7297D01*
G01X6964Y7256D01*
G01X6929Y7218D01*
G01X6894Y7182D01*
G01X6858Y7149D01*
G01X6822Y7118D01*
G01X6786Y7089D01*
G01X6749Y7063D01*
G01X6711Y7038D01*
G01X6673Y7016D01*
G01X6634Y6996D01*
G01X6595Y6978D01*
G01X6554Y6961D01*
G01X6513Y6946D01*
G01X6469Y6934D01*
G01X6426Y6923D01*
G01X6380Y6912D01*
G01X6334Y6904D01*
G01X6286Y6897D01*
G01X6236Y6892D01*
G01X6185Y6887D01*
G01X6132Y6883D01*
G01X6077Y6881D01*
G01X6021Y6880D01*
G01X5962Y6879D01*
G01X5874Y6878D01*
G01X5792Y6874D01*
G01X5719Y6869D01*
G01X5656Y6861D01*
G01X5603Y6851D01*
G01X5565Y6840D01*
G01X5540Y6828D01*
G01X5532Y6814D01*
G01X5524Y6789D01*
G01X5504Y6769D01*
G01X5474Y6754D01*
G01X5438Y6749D01*
G01X5397Y6740D01*
G01X5361Y6713D01*
G01X5330Y6673D01*
G01X5307Y6621D01*
G01X5290Y6562D01*
G01X5284Y6498D01*
G01X5286Y6432D01*
G01X5300Y6367D01*
G01X5310Y6312D01*
G01X5303Y6266D01*
G01X5277Y6230D01*
G01X5235Y6205D01*
G01X5192Y6179D01*
G01X5167Y6143D01*
G01X5161Y6094D01*
G01X5172Y6035D01*
G01X5184Y5981D01*
G01X5182Y5940D01*
G01X5166Y5914D01*
G01X5136Y5904D01*
G01X5108Y5895D01*
G01X5091Y5868D01*
G01X5086Y5827D01*
G01X5094Y5774D01*
G01X5100Y5720D01*
G01X5092Y5668D01*
G01X5072Y5625D01*
G01X5040Y5596D01*
G01X5007Y5567D01*
G01X4982Y5523D01*
G01X4967Y5471D01*
G01X4965Y5417D01*
G01X4961Y5357D01*
G01X4937Y5313D01*
G01X4891Y5283D01*
G01X4819Y5265D01*
G01X4751Y5250D01*
G01X4683Y5224D01*
G01X4622Y5192D01*
G01X4576Y5158D01*
G01X4547Y5134D01*
G01X4509Y5113D01*
G01X4462Y5093D01*
G01X4409Y5075D01*
G01X4351Y5060D01*
G01X4289Y5046D01*
G01X4223Y5035D01*
G01X4155Y5027D01*
G01X4086Y5021D01*
G01X4019Y5018D01*
G37*

%LPC*%
G36*
G01X4608Y5530D02*
G01X4654Y5515D01*
G01X4700Y5521D01*
G01X4713Y5546D01*
G01X4692Y5599D01*
G01X4637Y5689D01*
G01X4574Y5788D01*
G01X4557Y5835D01*
G01X4590Y5843D01*
G01X4679Y5822D01*
G01X4744Y5812D01*
G01X4812Y5812D01*
G01X4879Y5823D01*
G01X4940Y5842D01*
G01X4994Y5868D01*
G01X5037Y5901D01*
G01X5065Y5939D01*
G01X5074Y5979D01*
G01X5062Y5999D01*
G01X5028Y5999D01*
G01X4977Y5980D01*
G01X4911Y5943D01*
G01X4848Y5907D01*
G01X4796Y5886D01*
G01X4761Y5882D01*
G01X4748Y5898D01*
G01X4745Y5930D01*
G01X4736Y5974D01*
G01X4721Y6023D01*
G01X4705Y6072D01*
G01X4689Y6121D01*
G01X4690Y6148D01*
G01X4708Y6152D01*
G01X4744Y6135D01*
G01X4781Y6116D01*
G01X4795Y6122D01*
G01X4786Y6155D01*
G01X4755Y6217D01*
G01X4720Y6288D01*
G01X4698Y6347D01*
G01X4687Y6396D01*
G01X4688Y6434D01*
G01X4701Y6460D01*
G01X4725Y6476D01*
G01X4762Y6480D01*
G01X4810Y6471D01*
G01X4873Y6466D01*
G01X4924Y6488D01*
G01X4966Y6544D01*
G01X5006Y6637D01*
G01X5032Y6712D01*
G01X5049Y6768D01*
G01X5056Y6809D01*
G01X5051Y6840D01*
G01X5032Y6865D01*
G01X4998Y6886D01*
G01X4946Y6910D01*
G01X4876Y6938D01*
G01X4812Y6962D01*
G01X4752Y6979D01*
G01X4698Y6990D01*
G01X4648Y6995D01*
G01X4604Y6993D01*
G01X4564Y6984D01*
G01X4529Y6969D01*
G01X4500Y6947D01*
G01X4475Y6919D01*
G01X4456Y6885D01*
G01X4442Y6845D01*
G01X4434Y6798D01*
G01X4421Y6729D01*
G01X4401Y6672D01*
G01X4377Y6633D01*
G01X4353Y6619D01*
G01X4329Y6612D01*
G01X4309Y6591D01*
G01X4296Y6560D01*
G01X4292Y6522D01*
G01X4297Y6484D01*
G01X4311Y6453D01*
G01X4331Y6432D01*
G01X4357Y6425D01*
G01X4382Y6429D01*
G01X4403Y6443D01*
G01X4417Y6463D01*
G01X4422Y6487D01*
G01X4430Y6509D01*
G01X4451Y6521D01*
G01X4482Y6523D01*
G01X4520Y6513D01*
G01X4555Y6494D01*
G01X4579Y6471D01*
G01X4589Y6446D01*
G01X4584Y6422D01*
G01X4576Y6398D01*
G01X4580Y6372D01*
G01X4593Y6348D01*
G01X4617Y6328D01*
G01X4658Y6297D01*
G01X4682Y6268D01*
G01X4689Y6243D01*
G01X4680Y6224D01*
G01X4657Y6212D01*
G01X4622Y6207D01*
G01X4576Y6213D01*
G01X4520Y6230D01*
G01X4455Y6252D01*
G01X4407Y6264D01*
G01X4377Y6265D01*
G01X4365Y6254D01*
G01X4370Y6231D01*
G01X4393Y6194D01*
G01X4433Y6145D01*
G01X4490Y6081D01*
G01X4534Y6028D01*
G01X4560Y5984D01*
G01X4568Y5949D01*
G01X4559Y5925D01*
G01X4535Y5912D01*
G01X4496Y5913D01*
G01X4442Y5927D01*
G01X4377Y5956D01*
G01X4327Y5977D01*
G01X4277Y5989D01*
G01X4230Y5992D01*
G01X4186Y5987D01*
G01X4150Y5975D01*
G01X4121Y5955D01*
G01X4102Y5928D01*
G01X4096Y5895D01*
G01X4106Y5873D01*
G01X4133Y5861D01*
G01X4173Y5860D01*
G01X4223Y5871D01*
G01X4289Y5880D01*
G01X4345Y5860D01*
G01X4398Y5805D01*
G01X4453Y5713D01*
G01X4500Y5636D01*
G01X4554Y5573D01*
G01X4608Y5530D01*
G37*
G36*
G01X3931Y5823D02*
G01X3974Y5808D01*
G01X4003Y5816D01*
G01X4021Y5845D01*
G01X4024Y5879D01*
G01X4014Y5913D01*
G01X3991Y5944D01*
G01X3960Y5971D01*
G01X3924Y5990D01*
G01X3885Y6001D01*
G01X3847Y6001D01*
G01X3812Y5988D01*
G01X3797Y5966D01*
G01X3804Y5934D01*
G01X3830Y5898D01*
G01X3873Y5860D01*
G01X3931Y5823D01*
G37*
G36*
G01X3957Y6183D02*
G01X4024Y6178D01*
G01X4098Y6178D01*
G01X4170Y6185D01*
G01X4232Y6196D01*
G01X4275Y6212D01*
G01X4292Y6233D01*
G01X4274Y6248D01*
G01X4226Y6260D01*
G01X4155Y6267D01*
G01X4069Y6268D01*
G01X3985Y6262D01*
G01X3921Y6249D01*
G01X3883Y6233D01*
G01X3878Y6213D01*
G01X3906Y6195D01*
G01X3957Y6183D01*
G37*
G36*
G01X5027Y6364D02*
G01X5060Y6361D01*
G01X5093Y6372D01*
G01X5128Y6403D01*
G01X5164Y6451D01*
G01X5197Y6510D01*
G01X5226Y6576D01*
G01X5249Y6644D01*
G01X5262Y6710D01*
G01X5265Y6770D01*
G01X5258Y6784D01*
G01X5241Y6767D01*
G01X5218Y6721D01*
G01X5190Y6652D01*
G01X5157Y6573D01*
G01X5120Y6500D01*
G01X5082Y6443D01*
G01X5049Y6409D01*
G01X5022Y6388D01*
G01X5014Y6373D01*
G01X5027Y6364D01*
G37*
G36*
G01X4125Y6411D02*
G01X4190Y6392D01*
G01X4219Y6407D01*
G01X4226Y6455D01*
G01X4212Y6515D01*
G01X4169Y6551D01*
G01X4094Y6566D01*
G01X3985Y6560D01*
G01X3944Y6567D01*
G01X3903Y6594D01*
G01X3866Y6638D01*
G01X3833Y6692D01*
G01X3808Y6753D01*
G01X3793Y6816D01*
G01X3790Y6877D01*
G01X3800Y6931D01*
G01X3813Y6969D01*
G01X3816Y6993D01*
G01X3810Y7001D01*
G01X3796Y6992D01*
G01X3770Y6982D01*
G01X3738Y6993D01*
G01X3702Y7020D01*
G01X3666Y7059D01*
G01X3632Y7107D01*
G01X3603Y7160D01*
G01X3583Y7214D01*
G01X3576Y7264D01*
G01X3567Y7303D01*
G01X3545Y7351D01*
G01X3514Y7406D01*
G01X3476Y7460D01*
G01X3436Y7512D01*
G01X3396Y7554D01*
G01X3360Y7583D01*
G01X3333Y7594D01*
G01X3329Y7584D01*
G01X3336Y7555D01*
G01X3353Y7513D01*
G01X3379Y7462D01*
G01X3404Y7401D01*
G01X3418Y7333D01*
G01X3421Y7266D01*
G01X3412Y7210D01*
G01X3403Y7157D01*
G01X3411Y7112D01*
G01X3435Y7076D01*
G01X3474Y7052D01*
G01X3512Y7030D01*
G01X3544Y6998D01*
G01X3566Y6962D01*
G01X3574Y6924D01*
G01X3578Y6890D01*
G01X3589Y6853D01*
G01X3608Y6815D01*
G01X3633Y6775D01*
G01X3665Y6734D01*
G01X3702Y6693D01*
G01X3744Y6652D01*
G01X3791Y6611D01*
G01X3842Y6571D01*
G01X3896Y6533D01*
G01X3954Y6498D01*
G01X4014Y6465D01*
G01X4125Y6411D01*
G37*
G36*
G01X4827Y5599D02*
G01X4864Y5583D01*
G01X4926Y5599D01*
G01X5009Y5644D01*
G01X5052Y5676D01*
G01X5059Y5695D01*
G01X5029Y5705D01*
G01X4961Y5708D01*
G01X4903Y5704D01*
G01X4856Y5690D01*
G01X4825Y5670D01*
G01X4813Y5644D01*
G01X4827Y5599D01*
G37*
G36*
G01X5890Y7029D02*
G01X5952Y7027D01*
G01X6012Y7027D01*
G01X6072Y7029D01*
G01X6132Y7032D01*
G01X6189Y7037D01*
G01X6246Y7045D01*
G01X6301Y7054D01*
G01X6355Y7066D01*
G01X6407Y7079D01*
G01X6457Y7095D01*
G01X6504Y7113D01*
G01X6550Y7133D01*
G01X6593Y7155D01*
G01X6633Y7180D01*
G01X6671Y7206D01*
G01X6706Y7236D01*
G01X6737Y7267D01*
G01X6761Y7297D01*
G01X6788Y7335D01*
G01X6816Y7379D01*
G01X6844Y7427D01*
G01X6871Y7479D01*
G01X6898Y7533D01*
G01X6922Y7586D01*
G01X6943Y7639D01*
G01X6987Y7748D01*
G01X7011Y7795D01*
G01X7019Y7781D01*
G01X7011Y7708D01*
G01X7003Y7639D01*
G01X7001Y7582D01*
G01X7004Y7543D01*
G01X7012Y7529D01*
G01X7017Y7534D01*
G01X7026Y7547D01*
G01X7039Y7568D01*
G01X7055Y7597D01*
G01X7075Y7633D01*
G01X7098Y7676D01*
G01X7125Y7725D01*
G01X7154Y7781D01*
G01X7185Y7841D01*
G01X7219Y7907D01*
G01X7254Y7977D01*
G01X7292Y8052D01*
G01X7331Y8131D01*
G01X7372Y8212D01*
G01X7414Y8297D01*
G01X7456Y8384D01*
G01X7498Y8469D01*
G01X7537Y8551D01*
G01X7575Y8631D01*
G01X7611Y8709D01*
G01X7645Y8785D01*
G01X7678Y8858D01*
G01X7709Y8929D01*
G01X7738Y8999D01*
G01X7766Y9066D01*
G01X7792Y9131D01*
G01X7817Y9194D01*
G01X7839Y9256D01*
G01X7861Y9315D01*
G01X7881Y9373D01*
G01X7899Y9430D01*
G01X7917Y9484D01*
G01X7932Y9537D01*
G01X7946Y9589D01*
G01X7959Y9638D01*
G01X7970Y9687D01*
G01X7980Y9734D01*
G01X7988Y9780D01*
G01X7995Y9825D01*
G01X8001Y9868D01*
G01X8006Y9911D01*
G01X8009Y9952D01*
G01X8011Y9992D01*
G01X8011Y10031D01*
G01X8014Y10068D01*
G01X8024Y10111D01*
G01X8038Y10159D01*
G01X8058Y10210D01*
G01X8081Y10264D01*
G01X8108Y10318D01*
G01X8138Y10371D01*
G01X8170Y10421D01*
G01X8196Y10460D01*
G01X8219Y10496D01*
G01X8239Y10532D01*
G01X8257Y10566D01*
G01X8271Y10602D01*
G01X8283Y10640D01*
G01X8293Y10681D01*
G01X8301Y10726D01*
G01X8307Y10777D01*
G01X8310Y10834D01*
G01X8312Y10899D01*
G01X8313Y10973D01*
G01X8312Y11058D01*
G01X8310Y11153D01*
G01X8307Y11261D01*
G01X8303Y11382D01*
G01X8299Y11516D01*
G01X8293Y11634D01*
G01X8287Y11736D01*
G01X8280Y11825D01*
G01X8273Y11900D01*
G01X8265Y11963D01*
G01X8255Y12015D01*
G01X8244Y12056D01*
G01X8232Y12087D01*
G01X8218Y12109D01*
G01X8202Y12123D01*
G01X8185Y12131D01*
G01X8161Y12142D01*
G01X8140Y12168D01*
G01X8120Y12207D01*
G01X8103Y12262D01*
G01X8087Y12333D01*
G01X8073Y12421D01*
G01X8060Y12526D01*
G01X8048Y12651D01*
G01X8036Y12800D01*
G01X8024Y12933D01*
G01X8013Y13054D01*
G01X8003Y13160D01*
G01X7993Y13255D01*
G01X7983Y13338D01*
G01X7973Y13410D01*
G01X7962Y13472D01*
G01X7952Y13524D01*
G01X7940Y13568D01*
G01X7927Y13604D01*
G01X7913Y13633D01*
G01X7898Y13656D01*
G01X7881Y13673D01*
G01X7861Y13686D01*
G01X7839Y13694D01*
G01X7816Y13699D01*
G01X7789Y13702D01*
G01X7759Y13703D01*
G01X7727Y13703D01*
G01X7701Y13702D01*
G01X7668Y13700D01*
G01X7628Y13696D01*
G01X7580Y13690D01*
G01X7527Y13683D01*
G01X7467Y13675D01*
G01X7403Y13666D01*
G01X7333Y13655D01*
G01X7260Y13643D01*
G01X7183Y13631D01*
G01X7103Y13617D01*
G01X7021Y13604D01*
G01X6936Y13589D01*
G01X6850Y13573D01*
G01X6764Y13557D01*
G01X6676Y13541D01*
G01X6567Y13520D01*
G01X6465Y13501D01*
G01X6369Y13483D01*
G01X6278Y13467D01*
G01X6194Y13452D01*
G01X6115Y13439D01*
G01X6040Y13427D01*
G01X5970Y13417D01*
G01X5904Y13409D01*
G01X5842Y13402D01*
G01X5783Y13396D01*
G01X5727Y13393D01*
G01X5673Y13390D01*
G01X5622Y13390D01*
G01X5572Y13391D01*
G01X5523Y13393D01*
G01X5476Y13397D01*
G01X5429Y13403D01*
G01X5383Y13410D01*
G01X5336Y13418D01*
G01X5288Y13428D01*
G01X5240Y13440D01*
G01X5191Y13454D01*
G01X5139Y13469D01*
G01X5086Y13485D01*
G01X5030Y13503D01*
G01X4971Y13522D01*
G01X4909Y13544D01*
G01X4832Y13570D01*
G01X4756Y13595D01*
G01X4682Y13618D01*
G01X4610Y13641D01*
G01X4539Y13662D01*
G01X4470Y13682D01*
G01X4403Y13700D01*
G01X4337Y13718D01*
G01X4273Y13733D01*
G01X4210Y13748D01*
G01X4149Y13762D01*
G01X4090Y13773D01*
G01X4031Y13785D01*
G01X3975Y13794D01*
G01X3920Y13802D01*
G01X3866Y13810D01*
G01X3814Y13816D01*
G01X3763Y13821D01*
G01X3713Y13824D01*
G01X3665Y13826D01*
G01X3463Y13833D01*
G01X3294Y13135D01*
G01X3277Y13062D01*
G01X3259Y12990D01*
G01X3242Y12916D01*
G01X3225Y12844D01*
G01X3209Y12773D01*
G01X3193Y12703D01*
G01X3177Y12635D01*
G01X3162Y12569D01*
G01X3148Y12507D01*
G01X3135Y12448D01*
G01X3123Y12393D01*
G01X3112Y12342D01*
G01X3102Y12296D01*
G01X3094Y12255D01*
G01X3087Y12220D01*
G01X3081Y12192D01*
G01X3061Y12099D01*
G01X3038Y12022D01*
G01X3011Y11964D01*
G01X2981Y11924D01*
G01X2949Y11901D01*
G01X2914Y11896D01*
G01X2877Y11910D01*
G01X2837Y11941D01*
G01X2806Y11971D01*
G01X2779Y11990D01*
G01X2755Y12000D01*
G01X2736Y11999D01*
G01X2718Y11986D01*
G01X2703Y11959D01*
G01X2690Y11918D01*
G01X2679Y11862D01*
G01X2669Y11789D01*
G01X2659Y11699D01*
G01X2650Y11590D01*
G01X2640Y11461D01*
G01X2635Y11369D01*
G01X2632Y11278D01*
G01X2632Y11188D01*
G01X2634Y11101D01*
G01X2639Y11017D01*
G01X2646Y10936D01*
G01X2654Y10858D01*
G01X2665Y10784D01*
G01X2678Y10715D01*
G01X2692Y10650D01*
G01X2709Y10591D01*
G01X2726Y10537D01*
G01X2746Y10489D01*
G01X2766Y10448D01*
G01X2788Y10413D01*
G01X2811Y10386D01*
G01X2835Y10366D01*
G01X2860Y10354D01*
G01X2886Y10351D01*
G01X2913Y10357D01*
G01X2947Y10366D01*
G01X2980Y10367D01*
G01X3011Y10361D01*
G01X3042Y10346D01*
G01X3072Y10325D01*
G01X3100Y10296D01*
G01X3128Y10259D01*
G01X3154Y10215D01*
G01X3178Y10165D01*
G01X3201Y10106D01*
G01X3223Y10041D01*
G01X3243Y9969D01*
G01X3262Y9890D01*
G01X3279Y9804D01*
G01X3294Y9712D01*
G01X3308Y9613D01*
G01X3321Y9514D01*
G01X3335Y9421D01*
G01X3350Y9335D01*
G01X3364Y9255D01*
G01X3380Y9183D01*
G01X3396Y9118D01*
G01X3412Y9060D01*
G01X3429Y9008D01*
G01X3446Y8964D01*
G01X3464Y8928D01*
G01X3482Y8898D01*
G01X3500Y8876D01*
G01X3519Y8862D01*
G01X3538Y8854D01*
G01X3557Y8855D01*
G01X3576Y8863D01*
G01X3597Y8871D01*
G01X3610Y8865D01*
G01X3613Y8846D01*
G01X3605Y8816D01*
G01X3605Y8800D01*
G01X3613Y8774D01*
G01X3630Y8740D01*
G01X3654Y8698D01*
G01X3684Y8650D01*
G01X3721Y8595D01*
G01X3763Y8535D01*
G01X3811Y8470D01*
G01X3863Y8402D01*
G01X3920Y8330D01*
G01X3981Y8257D01*
G01X4044Y8181D01*
G01X4147Y8061D01*
G01X4235Y7960D01*
G01X4307Y7878D01*
G01X4367Y7814D01*
G01X4416Y7766D01*
G01X4455Y7733D01*
G01X4485Y7714D01*
G01X4508Y7708D01*
G01X4526Y7714D01*
G01X4541Y7731D01*
G01X4553Y7757D01*
G01X4565Y7791D01*
G01X4593Y7879D01*
G01X4606Y7907D01*
G01X4605Y7873D01*
G01X4593Y7776D01*
G01X4591Y7737D01*
G01X4593Y7699D01*
G01X4599Y7662D01*
G01X4611Y7626D01*
G01X4625Y7590D01*
G01X4644Y7554D01*
G01X4666Y7519D01*
G01X4692Y7486D01*
G01X4722Y7453D01*
G01X4754Y7421D01*
G01X4790Y7390D01*
G01X4829Y7360D01*
G01X4870Y7331D01*
G01X4914Y7304D01*
G01X4960Y7277D01*
G01X5009Y7251D01*
G01X5059Y7226D01*
G01X5112Y7203D01*
G01X5166Y7181D01*
G01X5222Y7160D01*
G01X5279Y7141D01*
G01X5337Y7123D01*
G01X5396Y7106D01*
G01X5457Y7091D01*
G01X5518Y7077D01*
G01X5579Y7065D01*
G01X5641Y7055D01*
G01X5704Y7046D01*
G01X5766Y7039D01*
G01X5828Y7033D01*
G01X5890Y7029D01*
G37*
G36*
G01X4455Y7251D02*
G01X4781Y7155D01*
G01X4307Y7647D01*
G01X4259Y7699D01*
G01X4209Y7751D01*
G01X4112Y7855D01*
G01X4065Y7908D01*
G01X4018Y7959D01*
G01X3973Y8009D01*
G01X3930Y8057D01*
G01X3889Y8105D01*
G01X3851Y8149D01*
G01X3815Y8192D01*
G01X3782Y8231D01*
G01X3753Y8267D01*
G01X3727Y8299D01*
G01X3705Y8328D01*
G01X3688Y8352D01*
G01X3641Y8420D01*
G01X3604Y8469D01*
G01X3576Y8501D01*
G01X3554Y8516D01*
G01X3537Y8515D01*
G01X3522Y8498D01*
G01X3507Y8467D01*
G01X3489Y8422D01*
G01X3478Y8387D01*
G01X3468Y8341D01*
G01X3457Y8287D01*
G01X3448Y8226D01*
G01X3440Y8161D01*
G01X3433Y8092D01*
G01X3427Y8023D01*
G01X3423Y7955D01*
G01X3411Y7631D01*
G01X3769Y7488D01*
G01X3821Y7469D01*
G01X3876Y7448D01*
G01X3934Y7426D01*
G01X3995Y7404D01*
G01X4056Y7382D01*
G01X4119Y7360D01*
G01X4180Y7339D01*
G01X4241Y7318D01*
G01X4300Y7299D01*
G01X4355Y7281D01*
G01X4407Y7265D01*
G01X4455Y7251D01*
G37*
G36*
G01X4326Y5210D02*
G01X4388Y5207D01*
G01X4446Y5209D01*
G01X4498Y5215D01*
G01X4541Y5228D01*
G01X4570Y5247D01*
G01X4611Y5275D01*
G01X4666Y5298D01*
G01X4730Y5314D01*
G01X4794Y5320D01*
G01X4852Y5325D01*
G01X4900Y5339D01*
G01X4932Y5358D01*
G01X4944Y5383D01*
G01X4923Y5406D01*
G01X4865Y5421D01*
G01X4778Y5426D01*
G01X4671Y5421D01*
G01X4572Y5415D01*
G01X4502Y5417D01*
G01X4469Y5427D01*
G01X4479Y5444D01*
G01X4504Y5466D01*
G01X4517Y5489D01*
G01X4515Y5514D01*
G01X4501Y5539D01*
G01X4477Y5564D01*
G01X4441Y5588D01*
G01X4397Y5611D01*
G01X4345Y5632D01*
G01X4285Y5649D01*
G01X4220Y5664D01*
G01X4149Y5675D01*
G01X4075Y5681D01*
G01X3979Y5688D01*
G01X3890Y5699D01*
G01X3808Y5712D01*
G01X3734Y5730D01*
G01X3668Y5751D01*
G01X3609Y5774D01*
G01X3560Y5800D01*
G01X3518Y5830D01*
G01X3486Y5862D01*
G01X3462Y5897D01*
G01X3448Y5935D01*
G01X3443Y5975D01*
G01X3449Y6035D01*
G01X3467Y6072D01*
G01X3497Y6085D01*
G01X3542Y6076D01*
G01X3588Y6065D01*
G01X3612Y6079D01*
G01X3615Y6122D01*
G01X3600Y6200D01*
G01X3584Y6278D01*
G01X3588Y6321D01*
G01X3614Y6334D01*
G01X3664Y6321D01*
G01X3705Y6307D01*
G01X3738Y6301D01*
G01X3761Y6302D01*
G01X3769Y6310D01*
G01X3760Y6357D01*
G01X3733Y6421D01*
G01X3694Y6496D01*
G01X3647Y6576D01*
G01X3595Y6654D01*
G01X3543Y6724D01*
G01X3495Y6778D01*
G01X3455Y6812D01*
G01X3391Y6845D01*
G01X3341Y6866D01*
G01X3303Y6875D01*
G01X3280Y6871D01*
G01X3274Y6857D01*
G01X3283Y6833D01*
G01X3312Y6799D01*
G01X3359Y6755D01*
G01X3412Y6706D01*
G01X3448Y6659D01*
G01X3467Y6620D01*
G01X3462Y6595D01*
G01X3452Y6579D01*
G01X3457Y6566D01*
G01X3474Y6558D01*
G01X3501Y6554D01*
G01X3529Y6549D01*
G01X3546Y6535D01*
G01X3550Y6515D01*
G01X3541Y6489D01*
G01X3515Y6465D01*
G01X3480Y6457D01*
G01X3434Y6465D01*
G01X3378Y6489D01*
G01X3319Y6518D01*
G01X3270Y6538D01*
G01X3231Y6549D01*
G01X3205Y6550D01*
G01X3193Y6543D01*
G01X3195Y6527D01*
G01X3214Y6503D01*
G01X3251Y6471D01*
G01X3299Y6427D01*
G01X3342Y6375D01*
G01X3376Y6322D01*
G01X3400Y6271D01*
G01X3412Y6227D01*
G01X3411Y6195D01*
G01X3395Y6178D01*
G01X3362Y6183D01*
G01X3323Y6200D01*
G01X3276Y6218D01*
G01X3227Y6238D01*
G01X3182Y6256D01*
G01X3152Y6263D01*
G01X3126Y6257D01*
G01X3104Y6241D01*
G01X3088Y6215D01*
G01X3074Y6181D01*
G01X3066Y6140D01*
G01X3061Y6094D01*
G01X3061Y6044D01*
G01X3064Y5992D01*
G01X3072Y5938D01*
G01X3084Y5883D01*
G01X3099Y5830D01*
G01X3119Y5780D01*
G01X3142Y5734D01*
G01X3169Y5693D01*
G01X3200Y5658D01*
G01X3249Y5616D01*
G01X3302Y5577D01*
G01X3356Y5541D01*
G01X3411Y5509D01*
G01X3465Y5481D01*
G01X3518Y5459D01*
G01X3567Y5442D01*
G01X3611Y5431D01*
G01X3650Y5426D01*
G01X3681Y5428D01*
G01X3704Y5439D01*
G01X3718Y5457D01*
G01X3738Y5481D01*
G01X3780Y5489D01*
G01X3840Y5480D01*
G01X3922Y5454D01*
G01X3989Y5422D01*
G01X4039Y5387D01*
G01X4066Y5352D01*
G01X4065Y5323D01*
G01X4061Y5300D01*
G01X4077Y5279D01*
G01X4108Y5260D01*
G01X4151Y5243D01*
G01X4204Y5228D01*
G01X4263Y5217D01*
G01X4326Y5210D01*
G37*
G36*
G01X4001Y6855D02*
G01X4046Y6851D01*
G01X4090Y6871D01*
G01X4128Y6909D01*
G01X4157Y6960D01*
G01X4176Y7015D01*
G01X4180Y7070D01*
G01X4168Y7119D01*
G01X4137Y7155D01*
G01X4065Y7193D01*
G01X4013Y7197D01*
G01X3973Y7168D01*
G01X3940Y7101D01*
G01X3908Y7003D01*
G01X3906Y6935D01*
G01X3936Y6889D01*
G01X4001Y6855D01*
G37*

%LPD*%
G36*
G01X6607Y8340D02*
G01X6584Y8339D01*
G01X6546Y8349D01*
G01X6479Y8382D01*
G01X6449Y8410D01*
G01X6457Y8431D01*
G01X6506Y8439D01*
G01X6533Y8434D01*
G01X6561Y8420D01*
G01X6587Y8400D01*
G01X6608Y8375D01*
G01X6616Y8352D01*
G01X6607Y8340D01*
G37*

%LPC*%

%LPD*%
G36*
G01X5833Y8385D02*
G01X5798Y8382D01*
G01X5767Y8388D01*
G01X5745Y8400D01*
G01X5739Y8415D01*
G01X5754Y8426D01*
G01X5785Y8433D01*
G01X5830Y8434D01*
G01X5876Y8430D01*
G01X5898Y8421D01*
G01X5896Y8409D01*
G01X5870Y8395D01*
G01X5833Y8385D01*
G37*

%LPC*%

%LPD*%
G36*
G01X6001Y8488D02*
G01X5922Y8488D01*
G01X5837Y8489D01*
G01X5744Y8490D01*
G01X5646Y8493D01*
G01X5546Y8497D01*
G01X5450Y8501D01*
G01X5357Y8506D01*
G01X5269Y8511D01*
G01X5188Y8517D01*
G01X5114Y8523D01*
G01X5046Y8529D01*
G01X4989Y8535D01*
G01X4940Y8542D01*
G01X4903Y8548D01*
G01X4877Y8555D01*
G01X4864Y8561D01*
G01X4868Y8576D01*
G01X4912Y8586D01*
G01X4989Y8589D01*
G01X5093Y8585D01*
G01X5368Y8565D01*
G01X5140Y8696D01*
G01X4911Y8828D01*
G01X5179Y8789D01*
G01X5244Y8780D01*
G01X5311Y8773D01*
G01X5380Y8766D01*
G01X5450Y8759D01*
G01X5521Y8754D01*
G01X5593Y8750D01*
G01X5664Y8747D01*
G01X5735Y8745D01*
G01X5805Y8743D01*
G01X5874Y8743D01*
G01X5941Y8743D01*
G01X6006Y8745D01*
G01X6068Y8747D01*
G01X6128Y8750D01*
G01X6183Y8754D01*
G01X6235Y8759D01*
G01X6283Y8765D01*
G01X6326Y8772D01*
G01X6364Y8779D01*
G01X6396Y8788D01*
G01X6490Y8812D01*
G01X6545Y8810D01*
G01X6569Y8776D01*
G01X6576Y8706D01*
G01X6566Y8638D01*
G01X6533Y8595D01*
G01X6468Y8573D01*
G01X6363Y8564D01*
G01X6274Y8560D01*
G01X6229Y8550D01*
G01X6227Y8535D01*
G01X6266Y8515D01*
G01X6275Y8509D01*
G01X6270Y8503D01*
G01X6252Y8499D01*
G01X6223Y8495D01*
G01X6182Y8492D01*
G01X6132Y8490D01*
G01X6071Y8488D01*
G01X6001Y8488D01*
G37*

%LPC*%

%LPD*%
G36*
G01X5842Y9225D02*
G01X5792Y9225D01*
G01X5744Y9230D01*
G01X5685Y9244D01*
G01X5623Y9262D01*
G01X5564Y9284D01*
G01X5434Y9340D01*
G01X5564Y9344D01*
G01X5623Y9340D01*
G01X5685Y9327D01*
G01X5744Y9308D01*
G01X5792Y9284D01*
G01X5842Y9251D01*
G01X5858Y9232D01*
G01X5842Y9225D01*
G37*

%LPC*%

%LPD*%
G36*
G01X3082Y10463D02*
G01X3060Y10454D01*
G01X3030Y10463D01*
G01X2993Y10487D01*
G01X2952Y10523D01*
G01X2913Y10567D01*
G01X2868Y10626D01*
G01X2855Y10649D01*
G01X2876Y10639D01*
G01X2931Y10597D01*
G01X2987Y10559D01*
G01X3025Y10546D01*
G01X3051Y10559D01*
G01X3073Y10597D01*
G01X3088Y10625D01*
G01X3099Y10629D01*
G01X3107Y10610D01*
G01X3112Y10567D01*
G01X3109Y10523D01*
G01X3098Y10487D01*
G01X3082Y10463D01*
G37*

%LPC*%

%LPD*%
G36*
G01X2836Y10818D02*
G01X2826Y10809D01*
G01X2813Y10828D01*
G01X2802Y10866D01*
G01X2799Y10909D01*
G01X2802Y10952D01*
G01X2813Y10990D01*
G01X2826Y11009D01*
G01X2836Y11000D01*
G01X2843Y10966D01*
G01X2845Y10909D01*
G01X2843Y10852D01*
G01X2836Y10818D01*
G37*

%LPC*%

%LPD*%
G36*
G01X7035Y10975D02*
G01X6946Y10975D01*
G01X6889Y10976D01*
G01X6832Y10980D01*
G01X6777Y10987D01*
G01X6725Y10995D01*
G01X6677Y11005D01*
G01X6635Y11016D01*
G01X6601Y11029D01*
G01X6576Y11042D01*
G01X6537Y11071D01*
G01X6534Y11086D01*
G01X6568Y11085D01*
G01X6641Y11070D01*
G01X6726Y11057D01*
G01X6775Y11068D01*
G01X6798Y11114D01*
G01X6804Y11198D01*
G01X6802Y11262D01*
G01X6798Y11315D01*
G01X6791Y11351D01*
G01X6783Y11363D01*
G01X6753Y11357D01*
G01X6710Y11338D01*
G01X6657Y11310D01*
G01X6600Y11277D01*
G01X6545Y11240D01*
G01X6494Y11203D01*
G01X6455Y11170D01*
G01X6430Y11143D01*
G01X6408Y11115D01*
G01X6393Y11107D01*
G01X6384Y11119D01*
G01X6380Y11151D01*
G01X6385Y11179D01*
G01X6396Y11207D01*
G01X6416Y11234D01*
G01X6441Y11260D01*
G01X6473Y11285D01*
G01X6512Y11309D01*
G01X6555Y11331D01*
G01X6602Y11352D01*
G01X6654Y11372D01*
G01X6709Y11390D01*
G01X6768Y11406D01*
G01X6828Y11420D01*
G01X6891Y11433D01*
G01X6954Y11443D01*
G01X7019Y11451D01*
G01X7083Y11456D01*
G01X7147Y11459D01*
G01X7211Y11459D01*
G01X7272Y11457D01*
G01X7331Y11452D01*
G01X7388Y11444D01*
G01X7442Y11433D01*
G01X7493Y11418D01*
G01X7538Y11401D01*
G01X7616Y11362D01*
G01X7675Y11325D01*
G01X7717Y11289D01*
G01X7740Y11256D01*
G01X7744Y11224D01*
G01X7730Y11195D01*
G01X7698Y11168D01*
G01X7647Y11143D01*
G01X7552Y11113D01*
G01X7501Y11107D01*
G01X7500Y11125D01*
G01X7552Y11166D01*
G01X7590Y11193D01*
G01X7610Y11218D01*
G01X7615Y11241D01*
G01X7603Y11263D01*
G01X7574Y11286D01*
G01X7527Y11309D01*
G01X7460Y11333D01*
G01X7375Y11359D01*
G01X7310Y11377D01*
G01X7262Y11387D01*
G01X7228Y11389D01*
G01X7205Y11379D01*
G01X7193Y11357D01*
G01X7189Y11320D01*
G01X7191Y11266D01*
G01X7198Y11195D01*
G01X7204Y11122D01*
G01X7205Y11068D01*
G01X7198Y11029D01*
G01X7181Y11002D01*
G01X7150Y10986D01*
G01X7102Y10978D01*
G01X7035Y10975D01*
G37*

%LPC*%

%LPD*%
G36*
G01X4808Y10978D02*
G01X4711Y10977D01*
G01X4638Y10979D01*
G01X4585Y10987D01*
G01X4550Y11000D01*
G01X4529Y11024D01*
G01X4519Y11058D01*
G01X4517Y11106D01*
G01X4520Y11169D01*
G01X4519Y11245D01*
G01X4507Y11306D01*
G01X4487Y11348D01*
G01X4460Y11363D01*
G01X4412Y11357D01*
G01X4367Y11343D01*
G01X4327Y11322D01*
G01X4292Y11296D01*
G01X4266Y11267D01*
G01X4249Y11236D01*
G01X4245Y11205D01*
G01X4255Y11176D01*
G01X4280Y11120D01*
G01X4268Y11106D01*
G01X4226Y11133D01*
G01X4164Y11197D01*
G01X4134Y11248D01*
G01X4140Y11292D01*
G01X4188Y11338D01*
G01X4283Y11392D01*
G01X4325Y11410D01*
G01X4374Y11427D01*
G01X4430Y11442D01*
G01X4491Y11455D01*
G01X4556Y11467D01*
G01X4622Y11477D01*
G01X4687Y11485D01*
G01X4751Y11490D01*
G01X4811Y11494D01*
G01X4865Y11495D01*
G01X4912Y11494D01*
G01X4950Y11489D01*
G01X4977Y11483D01*
G01X4992Y11473D01*
G01X4992Y11460D01*
G01X4977Y11444D01*
G01X4945Y11407D01*
G01X4924Y11355D01*
G01X4914Y11293D01*
G01X4914Y11227D01*
G01X4924Y11161D01*
G01X4944Y11103D01*
G01X4972Y11056D01*
G01X5009Y11027D01*
G01X5024Y11009D01*
G01X4991Y10995D01*
G01X4916Y10983D01*
G01X4808Y10978D01*
G37*

%LPC*%

%LPD*%
G36*
G01X5368Y11119D02*
G01X5349Y11116D01*
G01X5347Y11128D01*
G01X5360Y11156D01*
G01X5364Y11192D01*
G01X5340Y11235D01*
G01X5292Y11281D01*
G01X5223Y11325D01*
G01X5159Y11364D01*
G01X5117Y11395D01*
G01X5102Y11417D01*
G01X5116Y11426D01*
G01X5157Y11418D01*
G01X5213Y11393D01*
G01X5276Y11355D01*
G01X5339Y11309D01*
G01X5406Y11249D01*
G01X5438Y11203D01*
G01X5436Y11168D01*
G01X5402Y11136D01*
G01X5368Y11119D01*
G37*

%LPC*%

%LPD*%
G36*
G01X2913Y11424D02*
G01X2916Y11376D01*
G01X2894Y11383D01*
G01X2848Y11450D01*
G01X2823Y11498D01*
G01X2808Y11543D01*
G01X2803Y11578D01*
G01X2809Y11599D01*
G01X2824Y11602D01*
G01X2843Y11590D01*
G01X2862Y11562D01*
G01X2880Y11523D01*
G01X2913Y11424D01*
G37*

%LPC*%

%LPD*%
G36*
G01X6648Y11456D02*
G01X6576Y11438D01*
G01X6533Y11439D01*
G01X6517Y11459D01*
G01X6523Y11500D01*
G01X6555Y11541D01*
G01X6620Y11586D01*
G01X6708Y11630D01*
G01X6809Y11667D01*
G01X6861Y11680D01*
G01X6922Y11693D01*
G01X6990Y11704D01*
G01X7063Y11714D01*
G01X7141Y11723D01*
G01X7223Y11731D01*
G01X7307Y11737D01*
G01X7392Y11741D01*
G01X7478Y11745D01*
G01X7562Y11748D01*
G01X7644Y11748D01*
G01X7722Y11748D01*
G01X7795Y11745D01*
G01X7863Y11741D01*
G01X7923Y11737D01*
G01X7975Y11730D01*
G01X8018Y11722D01*
G01X8049Y11712D01*
G01X8070Y11701D01*
G01X8076Y11689D01*
G01X8068Y11675D01*
G01X8045Y11663D01*
G01X8007Y11652D01*
G01X7958Y11642D01*
G01X7897Y11634D01*
G01X7828Y11628D01*
G01X7752Y11624D01*
G01X7669Y11622D01*
G01X7600Y11622D01*
G01X7535Y11620D01*
G01X7473Y11617D01*
G01X7413Y11614D01*
G01X7354Y11609D01*
G01X7296Y11603D01*
G01X7239Y11596D01*
G01X7181Y11587D01*
G01X7123Y11577D01*
G01X7063Y11565D01*
G01X7002Y11551D01*
G01X6938Y11536D01*
G01X6871Y11519D01*
G01X6801Y11500D01*
G01X6727Y11479D01*
G01X6648Y11456D01*
G37*

%LPC*%

%LPD*%
G36*
G01X5452Y11443D02*
G01X5425Y11439D01*
G01X5384Y11444D01*
G01X5328Y11459D01*
G01X5288Y11471D01*
G01X5235Y11484D01*
G01X5171Y11499D01*
G01X5098Y11515D01*
G01X5019Y11532D01*
G01X4935Y11548D01*
G01X4850Y11565D01*
G01X4765Y11580D01*
G01X4683Y11595D01*
G01X4606Y11611D01*
G01X4537Y11628D01*
G01X4477Y11645D01*
G01X4427Y11661D01*
G01X4389Y11676D01*
G01X4365Y11690D01*
G01X4357Y11702D01*
G01X4363Y11716D01*
G01X4383Y11727D01*
G01X4413Y11736D01*
G01X4453Y11742D01*
G01X4502Y11746D01*
G01X4557Y11749D01*
G01X4619Y11749D01*
G01X4684Y11746D01*
G01X4753Y11742D01*
G01X4823Y11736D01*
G01X4894Y11728D01*
G01X4963Y11719D01*
G01X5029Y11707D01*
G01X5092Y11694D01*
G01X5150Y11679D01*
G01X5201Y11663D01*
G01X5263Y11638D01*
G01X5319Y11609D01*
G01X5367Y11580D01*
G01X5407Y11550D01*
G01X5437Y11521D01*
G01X5458Y11495D01*
G01X5468Y11472D01*
G01X5466Y11455D01*
G01X5452Y11443D01*
G37*

%LPC*%

%LPD*%
G36*
G01X4017Y11575D02*
G01X3947Y11566D01*
G01X3890Y11568D01*
G01X3856Y11581D01*
G01X3846Y11600D01*
G01X3845Y11625D01*
G01X3851Y11655D01*
G01X3864Y11685D01*
G01X3898Y11712D01*
G01X3953Y11733D01*
G01X4023Y11746D01*
G01X4098Y11752D01*
G01X4170Y11750D01*
G01X4232Y11739D01*
G01X4275Y11721D01*
G01X4292Y11694D01*
G01X4275Y11667D01*
G01X4231Y11640D01*
G01X4168Y11614D01*
G01X4094Y11592D01*
G01X4017Y11575D01*
G37*

%LPC*%

%LPD*%
G36*
G01X5610Y12284D02*
G01X5532Y12281D01*
G01X5453Y12284D01*
G01X5384Y12293D01*
G01X5351Y12304D01*
G01X5367Y12312D01*
G01X5429Y12319D01*
G01X5532Y12321D01*
G01X5634Y12319D01*
G01X5696Y12312D01*
G01X5712Y12304D01*
G01X5678Y12293D01*
G01X5610Y12284D01*
G37*

%LPC*%

%LPD*%
G54D10*
G01X27675Y30302D02*
G01X27675Y29718D01*
G01X11419Y30327D02*
G01X11419Y29743D01*
G01X27726Y17526D02*
G01X27726Y16941D01*
G01X11369Y17551D02*
G01X11369Y16967D01*
G01X11216Y16967D01*
G01X14671Y16967D01*
G01X31562Y22098D02*
G01X31562Y20828D01*
G01X29580Y20828D01*
G01X29580Y26314D01*
G01X27371Y26314D01*
G01X27371Y25552D01*
G01X27371Y21513D02*
G01X27371Y20828D01*
G01X28133Y20828D01*
G01X28133Y21564D01*
G01X29580Y21564D01*
G01X28260Y24477D02*
G01X28260Y22682D01*
G01X26050Y25552D02*
G01X26050Y24688D01*
G01X26578Y24688D01*
G01X28559Y24434D01*
G01X26482Y25552D02*
G01X26482Y24688D01*
G01X26050Y24688D02*
G01X25694Y24688D01*
G01X28615Y25552D02*
G01X25694Y25552D01*
G01X28534Y22682D02*
G01X26410Y22410D01*
G01X26456Y21564D02*
G01X26456Y22428D01*
G01X26024Y22428D01*
G01X26024Y21564D01*
G01X26024Y22428D02*
G01X25669Y22428D01*
G01X28590Y25476D02*
G01X28590Y21564D01*
G01X25669Y21564D01*
G01X29479Y25552D02*
G01X28031Y25552D01*
G01X28031Y26289D01*
G01X28945Y26263D02*
G01X28945Y25552D01*
G01X29047Y21539D02*
G01X29047Y20828D01*
G01X29580Y20828D02*
G01X28133Y20828D01*
G01X33492Y26162D02*
G01X33492Y20802D01*
G01X33086Y26339D02*
G01X33086Y20828D01*
G01X30876Y26289D02*
G01X30876Y20878D01*
G01X30266Y26314D02*
G01X30266Y20828D01*
G01X34455Y26342D02*
G01X29580Y26342D01*
G01X34508Y20802D02*
G01X32374Y20802D01*
G01X32374Y22072D01*
G01X31587Y22072D01*
G01X8752Y26517D02*
G01X8752Y25933D01*
G01X9464Y26421D02*
G01X9464Y25882D01*
G01X8321Y25882D01*
G01X11216Y26441D02*
G01X11216Y25298D01*
G01X11800Y26441D02*
G01X11800Y25298D01*
G01X11826Y21869D02*
G01X11826Y20726D01*
G01X11242Y21869D02*
G01X11242Y20726D01*
G01X30596Y19812D02*
G01X30596Y16662D01*
G01X29555Y15621D01*
G01X8397Y15621D01*
G01X8371Y15646D01*
G01X8371Y19837D01*
G01X4536Y19837D01*
G01X4536Y21285D01*
G01X34508Y21285D02*
G01X34508Y19837D01*
G01X30596Y19837D01*
G01X8422Y27406D02*
G01X4511Y27406D01*
G01X4511Y25958D01*
G01X34483Y25984D02*
G01X34483Y27406D01*
G01X30647Y27406D01*
G01X30647Y31597D01*
G01X30622Y31623D01*
G01X8422Y31623D01*
G01X8422Y27432D01*
G01X30012Y30429D02*
G01X28768Y30429D01*
G01X29352Y31064D02*
G01X29352Y29794D01*
G01X10302Y16916D02*
G01X9006Y16916D01*
G01X14493Y19405D02*
G01X9845Y19405D01*
G01X14594Y27863D02*
G01X9895Y27863D01*
G01X14772Y30302D02*
G01X11318Y30302D01*
G01X29149Y19431D02*
G01X24450Y19431D01*
G01X27726Y16992D02*
G01X24272Y16992D01*
G01X29072Y27838D02*
G01X24373Y27838D01*
G01X27650Y30276D02*
G01X24196Y30276D01*
G01X8321Y26466D02*
G01X8321Y20726D01*
G01X4511Y26543D02*
G01X4536Y26517D01*
G01X6543Y26517D01*
G01X7178Y26517D01*
G01X7559Y26517D01*
G01X15864Y26517D01*
G01X15915Y26466D01*
G01X15915Y20726D01*
G01X7584Y20726D01*
G01X7203Y20726D01*
G01X7203Y21920D01*
G01X6466Y21920D01*
G01X6466Y20726D01*
G01X4561Y20726D01*
G01X4536Y20701D01*
G01X5704Y26492D02*
G01X5704Y20726D01*
G01X5323Y26517D02*
G01X5323Y20726D01*
G01X7838Y26416D02*
G01X7838Y20802D01*
G01X9464Y20822D02*
G01X9464Y21361D01*
G01X8321Y21361D01*
G01X8752Y21310D02*
G01X8752Y20726D01*
G01X10403Y23926D02*
G01X13578Y24333D01*
G01X13782Y24333D01*
G01X13985Y24536D01*
G01X14747Y24536D01*
G01X14747Y24739D01*
G01X14747Y25247D01*
G01X8346Y25247D01*
G01X13578Y25222D02*
G01X13578Y24333D01*
G01X13934Y25247D02*
G01X13934Y24485D01*
G01X10403Y23190D02*
G01X13578Y22783D01*
G01X13782Y22783D01*
G01X13985Y22580D01*
G01X14747Y22580D01*
G01X14747Y22377D01*
G01X14747Y21869D01*
G01X8346Y21869D01*
G01X13578Y22783D02*
G01X13578Y21894D01*
G01X13934Y22631D02*
G01X13934Y21869D01*
G54D31*
G01X32832Y8064D02*
G01X31897Y7129D01*
G01X30434Y8592D01*
G01X31369Y9527D01*
G01X33632Y8864D02*
G01X34564Y9796D01*
G01X33101Y11259D01*
G01X32169Y10327D01*
G54D26*
G01X22034Y34569D02*
G01X22034Y34518D01*
G54D30*
G01X30873Y11002D02*
G01X30927Y11107D01*
G01X31031Y11211D01*
G01X31132Y11262D01*
G01X31341Y11262D01*
G01X31445Y11211D01*
G01X31549Y11107D01*
G01X31602Y11002D01*
G01X31653Y10848D01*
G01X31653Y10588D01*
G01X31602Y10431D01*
G01X31549Y10327D01*
G01X31445Y10223D01*
G01X31341Y10172D01*
G01X31132Y10172D01*
G01X31031Y10223D01*
G01X30927Y10327D01*
G01X30873Y10431D01*
G01X30426Y11262D02*
G01X29855Y11262D01*
G01X30167Y10848D01*
G01X30012Y10848D01*
G01X29908Y10794D01*
G01X29855Y10743D01*
G01X29804Y10588D01*
G01X29804Y10484D01*
G01X29855Y10327D01*
G01X29959Y10223D01*
G01X30116Y10172D01*
G01X30271Y10172D01*
G01X30426Y10223D01*
G01X30480Y10276D01*
G01X30530Y10380D01*
G01X17207Y37338D02*
G01X18298Y37338D01*
G01X17207Y37338D02*
G01X17207Y36974D01*
G01X17259Y36818D01*
G01X17363Y36714D01*
G01X17467Y36662D01*
G01X17622Y36610D01*
G01X17882Y36610D01*
G01X18038Y36662D01*
G01X18142Y36714D01*
G01X18246Y36818D01*
G01X18298Y36974D01*
G01X18298Y37338D01*
G01X17207Y35904D02*
G01X18298Y35904D01*
G01X17207Y36267D02*
G01X17207Y35540D01*
G01X17207Y35197D02*
G01X18298Y35197D01*
G01X17207Y35197D02*
G01X17207Y34729D01*
G01X17259Y34574D01*
G01X17311Y34522D01*
G01X17415Y34470D01*
G01X17519Y34470D01*
G01X17622Y34522D01*
G01X17674Y34574D01*
G01X17726Y34729D01*
G01X17726Y35197D01*
G01X17726Y34833D02*
G01X18298Y34470D01*
G01X14921Y36974D02*
G01X16012Y36974D01*
G01X14921Y37338D02*
G01X14921Y36610D01*
G01X14921Y36267D02*
G01X16012Y35540D01*
G01X14921Y35540D02*
G01X16012Y36267D01*
G01X12381Y37338D02*
G01X13472Y37338D01*
G01X12381Y37338D02*
G01X12381Y36870D01*
G01X12433Y36714D01*
G01X12485Y36662D01*
G01X12589Y36610D01*
G01X12693Y36610D01*
G01X12796Y36662D01*
G01X12848Y36714D01*
G01X12900Y36870D01*
G01X12900Y37338D01*
G01X12900Y36974D02*
G01X13472Y36610D01*
G01X12381Y36267D02*
G01X13472Y35540D01*
G01X12381Y35540D02*
G01X13472Y36267D01*
G01X10334Y37411D02*
G01X11425Y36996D01*
G01X10334Y36580D02*
G01X11425Y36996D01*
G01X10854Y35614D02*
G01X10750Y35718D01*
G01X10698Y35822D01*
G01X10698Y35978D01*
G01X10750Y36081D01*
G01X10854Y36185D01*
G01X11009Y36237D01*
G01X11113Y36237D01*
G01X11269Y36185D01*
G01X11373Y36081D01*
G01X11425Y35978D01*
G01X11425Y35822D01*
G01X11373Y35718D01*
G01X11269Y35614D01*
G01X10854Y34647D02*
G01X10750Y34751D01*
G01X10698Y34855D01*
G01X10698Y35011D01*
G01X10750Y35115D01*
G01X10854Y35219D01*
G01X11009Y35271D01*
G01X11113Y35271D01*
G01X11269Y35219D01*
G01X11373Y35115D01*
G01X11425Y35011D01*
G01X11425Y34855D01*
G01X11373Y34751D01*
G01X11269Y34647D01*
G01X8063Y37338D02*
G01X9154Y37338D01*
G01X8063Y37338D02*
G01X9154Y36610D01*
G01X8063Y36610D02*
G01X9154Y36610D01*
G01X8323Y35488D02*
G01X8219Y35540D01*
G01X8115Y35644D01*
G01X8063Y35748D01*
G01X8063Y35956D01*
G01X8115Y36059D01*
G01X8219Y36163D01*
G01X8323Y36215D01*
G01X8478Y36267D01*
G01X8738Y36267D01*
G01X8894Y36215D01*
G01X8998Y36163D01*
G01X9102Y36059D01*
G01X9154Y35956D01*
G01X9154Y35748D01*
G01X9102Y35644D01*
G01X8998Y35540D01*
G01X8894Y35488D01*
G01X6037Y36558D02*
G01X5933Y36610D01*
G01X5829Y36714D01*
G01X5777Y36818D01*
G01X5777Y37026D01*
G01X5829Y37130D01*
G01X5933Y37234D01*
G01X6037Y37286D01*
G01X6192Y37338D01*
G01X6452Y37338D01*
G01X6608Y37286D01*
G01X6712Y37234D01*
G01X6816Y37130D01*
G01X6868Y37026D01*
G01X6868Y36818D01*
G01X6816Y36714D01*
G01X6712Y36610D01*
G01X6608Y36558D01*
G01X6452Y36558D01*
G01X6452Y36818D02*
G01X6452Y36558D01*
G01X5777Y36215D02*
G01X6868Y36215D01*
G01X5777Y36215D02*
G01X6868Y35488D01*
G01X5777Y35488D02*
G01X6868Y35488D01*
G01X5777Y35145D02*
G01X6868Y35145D01*
G01X5777Y35145D02*
G01X5777Y34781D01*
G01X5829Y34625D01*
G01X5933Y34522D01*
G01X6037Y34470D01*
G01X6192Y34418D01*
G01X6452Y34418D01*
G01X6608Y34470D01*
G01X6712Y34522D01*
G01X6816Y34625D01*
G01X6868Y34781D01*
G01X6868Y35145D01*
G01X17184Y15212D02*
G01X18275Y15212D01*
G01X17184Y14484D02*
G01X18275Y14484D01*
G01X17704Y15212D02*
G01X17704Y14484D01*
G01X17184Y13830D02*
G01X17236Y13933D01*
G01X17340Y14037D01*
G01X17444Y14089D01*
G01X17600Y14141D01*
G01X17859Y14141D01*
G01X18015Y14089D01*
G01X18119Y14037D01*
G01X18223Y13933D01*
G01X18275Y13830D01*
G01X18275Y13622D01*
G01X18223Y13518D01*
G01X18119Y13414D01*
G01X18015Y13362D01*
G01X17859Y13310D01*
G01X17600Y13310D01*
G01X17444Y13362D01*
G01X17340Y13414D01*
G01X17236Y13518D01*
G01X17184Y13622D01*
G01X17184Y13830D01*
G01X17184Y12967D02*
G01X17963Y12967D01*
G01X18119Y12915D01*
G01X18223Y12811D01*
G01X18275Y12655D01*
G01X18275Y12551D01*
G01X18223Y12396D01*
G01X18119Y12292D01*
G01X17963Y12240D01*
G01X17184Y12240D01*
G01X17184Y11897D02*
G01X18275Y11897D01*
G01X17184Y11897D02*
G01X17184Y11429D01*
G01X17236Y11273D01*
G01X17288Y11221D01*
G01X17392Y11169D01*
G01X17496Y11169D01*
G01X17600Y11221D01*
G01X17652Y11273D01*
G01X17704Y11429D01*
G01X17704Y11897D01*
G01X17704Y11533D02*
G01X18275Y11169D01*
G01X19675Y13588D02*
G01X20766Y13588D01*
G01X19675Y13588D02*
G01X20766Y13172D01*
G01X19675Y12756D02*
G01X20766Y13172D01*
G01X19675Y12756D02*
G01X20766Y12756D01*
G01X19675Y12413D02*
G01X20766Y12413D01*
G01X19675Y12070D02*
G01X20766Y12070D01*
G01X19675Y12070D02*
G01X20766Y11343D01*
G01X19675Y11343D02*
G01X20766Y11343D01*
G01X22253Y33612D02*
G01X22307Y33717D01*
G01X22411Y33821D01*
G01X22512Y33871D01*
G01X22721Y33871D01*
G01X22825Y33821D01*
G01X22929Y33717D01*
G01X22982Y33612D01*
G01X23033Y33457D01*
G01X23033Y33198D01*
G01X22982Y33041D01*
G01X22929Y32937D01*
G01X22825Y32833D01*
G01X22721Y32782D01*
G01X22512Y32782D01*
G01X22411Y32833D01*
G01X22307Y32937D01*
G01X22253Y33041D01*
G01X21860Y33612D02*
G01X21860Y33666D01*
G01X21806Y33770D01*
G01X21756Y33821D01*
G01X21651Y33871D01*
G01X21443Y33871D01*
G01X21339Y33821D01*
G01X21288Y33770D01*
G01X21235Y33666D01*
G01X21235Y33562D01*
G01X21288Y33457D01*
G01X21392Y33300D01*
G01X21910Y32782D01*
G01X21184Y32782D01*
G01X24434Y8890D02*
G01X24434Y7800D01*
G01X24434Y8890D02*
G01X23967Y8890D01*
G01X23812Y8839D01*
G01X23759Y8788D01*
G01X23708Y8684D01*
G01X23708Y8580D01*
G01X23759Y8475D01*
G01X23812Y8422D01*
G01X23967Y8371D01*
G01X24434Y8371D01*
G01X24071Y8371D02*
G01X23708Y7800D01*
G01X23365Y8684D02*
G01X23261Y8735D01*
G01X23103Y8890D01*
G01X23103Y7800D01*
G01X22656Y8890D02*
G01X22085Y8890D01*
G01X22397Y8475D01*
G01X22242Y8475D01*
G01X22138Y8422D01*
G01X22085Y8371D01*
G01X22034Y8216D01*
G01X22034Y8112D01*
G01X22085Y7955D01*
G01X22189Y7851D01*
G01X22346Y7800D01*
G01X22501Y7800D01*
G01X22656Y7851D01*
G01X22710Y7904D01*
G01X22760Y8008D01*
G01X15505Y11942D02*
G01X15505Y10852D01*
G01X15505Y11942D02*
G01X15038Y11942D01*
G01X14883Y11891D01*
G01X14829Y11840D01*
G01X14779Y11736D01*
G01X14779Y11632D01*
G01X14829Y11527D01*
G01X14883Y11474D01*
G01X15038Y11423D01*
G01X15505Y11423D01*
G01X15142Y11423D02*
G01X14779Y10852D01*
G01X14436Y11736D02*
G01X14332Y11787D01*
G01X14174Y11942D01*
G01X14174Y10852D01*
G01X13313Y11942D02*
G01X13831Y11215D01*
G01X13054Y11215D01*
G01X13313Y11942D02*
G01X13313Y10852D01*
G54D28*
G01X31472Y41174D02*
G01X31656Y41359D01*
G01X31934Y41451D01*
G01X32303Y41451D01*
G01X32580Y41359D01*
G01X32765Y41174D01*
G01X32765Y40990D01*
G01X32672Y40805D01*
G01X32580Y40713D01*
G01X32395Y40620D01*
G01X31841Y40435D01*
G01X31656Y40343D01*
G01X31564Y40251D01*
G01X31472Y40066D01*
G01X31472Y39789D01*
G01X31656Y39604D01*
G01X31934Y39512D01*
G01X32303Y39512D01*
G01X32580Y39604D01*
G01X32765Y39789D01*
G01X29477Y40990D02*
G01X29569Y41174D01*
G01X29754Y41359D01*
G01X29938Y41451D01*
G01X30308Y41451D01*
G01X30493Y41359D01*
G01X30677Y41174D01*
G01X30770Y40990D01*
G01X30862Y40713D01*
G01X30862Y40251D01*
G01X30770Y39974D01*
G01X30677Y39789D01*
G01X30493Y39604D01*
G01X30308Y39512D01*
G01X29938Y39512D01*
G01X29754Y39604D01*
G01X29569Y39789D01*
G01X29477Y39974D01*
G01X28867Y41451D02*
G01X28867Y39512D01*
G01X27574Y41451D02*
G01X28867Y40158D01*
G01X28405Y40620D02*
G01X27574Y39512D01*
G01X32701Y39181D02*
G01X32701Y37242D01*
G01X32701Y39181D02*
G01X31963Y37242D01*
G01X31224Y39181D02*
G01X31963Y37242D01*
G01X31224Y39181D02*
G01X31224Y37242D01*
G01X30614Y39181D02*
G01X30614Y37242D01*
G01X28711Y38904D02*
G01X28896Y39089D01*
G01X29173Y39181D01*
G01X29543Y39181D01*
G01X29820Y39089D01*
G01X30004Y38904D01*
G01X30004Y38720D01*
G01X29912Y38535D01*
G01X29820Y38443D01*
G01X29635Y38350D01*
G01X29081Y38165D01*
G01X28896Y38073D01*
G01X28804Y37981D01*
G01X28711Y37796D01*
G01X28711Y37519D01*
G01X28896Y37334D01*
G01X29173Y37242D01*
G01X29543Y37242D01*
G01X29820Y37334D01*
G01X30004Y37519D01*
G01X27548Y39181D02*
G01X27732Y39089D01*
G01X27917Y38904D01*
G01X28009Y38720D01*
G01X28102Y38443D01*
G01X28102Y37981D01*
G01X28009Y37704D01*
G01X27917Y37519D01*
G01X27732Y37334D01*
G01X27548Y37242D01*
G01X27178Y37242D01*
G01X26993Y37334D01*
G01X26809Y37519D01*
G01X26716Y37704D01*
G01X26624Y37981D01*
G01X26624Y38443D01*
G01X26716Y38720D01*
G01X26809Y38904D01*
G01X26993Y39089D01*
G01X27178Y39181D01*
G01X27548Y39181D01*
G01X32682Y36921D02*
G01X32682Y34982D01*
G01X32682Y36921D02*
G01X31943Y34982D01*
G01X31204Y36921D02*
G01X31943Y34982D01*
G01X31204Y36921D02*
G01X31204Y34982D01*
G01X30040Y36921D02*
G01X30225Y36829D01*
G01X30409Y36644D01*
G01X30502Y36460D01*
G01X30594Y36183D01*
G01X30594Y35721D01*
G01X30502Y35444D01*
G01X30409Y35259D01*
G01X30225Y35074D01*
G01X30040Y34982D01*
G01X29670Y34982D01*
G01X29486Y35074D01*
G01X29301Y35259D01*
G01X29209Y35444D01*
G01X29116Y35721D01*
G01X29116Y36183D01*
G01X29209Y36460D01*
G01X29301Y36644D01*
G01X29486Y36829D01*
G01X29670Y36921D01*
G01X30040Y36921D01*
G01X27214Y36644D02*
G01X27398Y36829D01*
G01X27675Y36921D01*
G01X28045Y36921D01*
G01X28322Y36829D01*
G01X28507Y36644D01*
G01X28507Y36460D01*
G01X28414Y36275D01*
G01X28322Y36183D01*
G01X28137Y36090D01*
G01X27583Y35905D01*
G01X27398Y35813D01*
G01X27306Y35721D01*
G01X27214Y35536D01*
G01X27214Y35259D01*
G01X27398Y35074D01*
G01X27675Y34982D01*
G01X28045Y34982D01*
G01X28322Y35074D01*
G01X28507Y35259D01*
G01X26604Y36921D02*
G01X26604Y34982D01*
G01X31287Y34350D02*
G01X31379Y34534D01*
G01X31564Y34719D01*
G01X31749Y34811D01*
G01X32118Y34811D01*
G01X32303Y34719D01*
G01X32487Y34534D01*
G01X32580Y34350D01*
G01X32672Y34073D01*
G01X32672Y33611D01*
G01X32580Y33334D01*
G01X32487Y33149D01*
G01X32303Y32964D01*
G01X32118Y32872D01*
G01X31749Y32872D01*
G01X31564Y32964D01*
G01X31379Y33149D01*
G01X31287Y33334D01*
G01X29384Y34534D02*
G01X29569Y34719D01*
G01X29846Y34811D01*
G01X30215Y34811D01*
G01X30492Y34719D01*
G01X30677Y34534D01*
G01X30677Y34350D01*
G01X30585Y34165D01*
G01X30492Y34073D01*
G01X30308Y33980D01*
G01X29753Y33795D01*
G01X29569Y33703D01*
G01X29476Y33611D01*
G01X29384Y33426D01*
G01X29384Y33149D01*
G01X29569Y32964D01*
G01X29846Y32872D01*
G01X30215Y32872D01*
G01X30492Y32964D01*
G01X30677Y33149D01*
G01X18986Y27247D02*
G01X18986Y26231D01*
G01X19725Y26785D01*
G01X19725Y26508D01*
G01X19817Y26323D01*
G01X19910Y26231D01*
G01X20187Y26138D01*
G01X20371Y26138D01*
G01X20649Y26231D01*
G01X20833Y26415D01*
G01X20926Y26693D01*
G01X20926Y26970D01*
G01X20833Y27247D01*
G01X20741Y27339D01*
G01X20556Y27431D01*
G01X18986Y25529D02*
G01X20926Y24790D01*
G01X18986Y24051D02*
G01X20926Y24790D01*
G01X19910Y20911D02*
G01X19725Y21095D01*
G01X19633Y21280D01*
G01X19633Y21557D01*
G01X19725Y21742D01*
G01X19910Y21927D01*
G01X20187Y22019D01*
G01X20371Y22019D01*
G01X20649Y21927D01*
G01X20833Y21742D01*
G01X20926Y21557D01*
G01X20926Y21280D01*
G01X20833Y21095D01*
G01X20649Y20911D01*
G01X20187Y20301D02*
G01X20187Y19193D01*
G01X20002Y19193D01*
G01X19817Y19285D01*
G01X19725Y19377D01*
G01X19633Y19562D01*
G01X19633Y19839D01*
G01X19725Y20024D01*
G01X19910Y20209D01*
G01X20187Y20301D01*
G01X20371Y20301D01*
G01X20649Y20209D01*
G01X20833Y20024D01*
G01X20926Y19839D01*
G01X20926Y19562D01*
G01X20833Y19377D01*
G01X20649Y19193D01*
G01X18986Y18583D02*
G01X20926Y18583D01*
G01X18986Y17973D02*
G01X20926Y17973D01*
G01X22553Y6492D02*
G01X22553Y5062D01*
G01X22553Y6492D02*
G01X21667Y6492D01*
G01X22553Y5811D02*
G01X22010Y5811D01*
G01X22553Y5062D02*
G01X21667Y5062D01*
G01X21217Y6492D02*
G01X21217Y5062D01*
G01X21217Y5062D02*
G01X20399Y5062D01*
G01X19950Y6492D02*
G01X19950Y5062D01*
G01X19950Y6492D02*
G01X19063Y6492D01*
G01X19950Y5811D02*
G01X19403Y5811D01*
G01X19950Y5062D02*
G01X19063Y5062D01*
G01X17590Y6151D02*
G01X17659Y6288D01*
G01X17796Y6423D01*
G01X17930Y6492D01*
G01X18205Y6492D01*
G01X18339Y6423D01*
G01X18476Y6288D01*
G01X18545Y6151D01*
G01X18614Y5948D01*
G01X18614Y5605D01*
G01X18545Y5402D01*
G01X18476Y5265D01*
G01X18339Y5128D01*
G01X18205Y5062D01*
G01X17930Y5062D01*
G01X17796Y5128D01*
G01X17659Y5265D01*
G01X17590Y5402D01*
G01X16663Y6492D02*
G01X16663Y5062D01*
G01X17140Y6492D02*
G01X16185Y6492D01*
G01X15736Y6492D02*
G01X15736Y5062D01*
G01X15736Y6492D02*
G01X15121Y6492D01*
G01X14918Y6423D01*
G01X14849Y6357D01*
G01X14781Y6220D01*
G01X14781Y6083D01*
G01X14849Y5948D01*
G01X14918Y5879D01*
G01X15121Y5811D01*
G01X15736Y5811D01*
G01X15258Y5811D02*
G01X14781Y5062D01*
G01X13922Y6492D02*
G01X14059Y6423D01*
G01X14194Y6288D01*
G01X14263Y6151D01*
G01X14331Y5948D01*
G01X14331Y5605D01*
G01X14263Y5402D01*
G01X14194Y5265D01*
G01X14059Y5128D01*
G01X13922Y5062D01*
G01X13650Y5062D01*
G01X13513Y5128D01*
G01X13376Y5265D01*
G01X13307Y5402D01*
G01X13241Y5605D01*
G01X13241Y5948D01*
G01X13307Y6151D01*
G01X13376Y6288D01*
G01X13513Y6423D01*
G01X13650Y6492D01*
G01X13922Y6492D01*
G01X12789Y6492D02*
G01X12789Y5062D01*
G01X12789Y6492D02*
G01X11837Y5062D01*
G01X11837Y6492D02*
G01X11837Y5062D01*
G01X10976Y6492D02*
G01X11113Y6423D01*
G01X11250Y6288D01*
G01X11319Y6151D01*
G01X11385Y5948D01*
G01X11385Y5605D01*
G01X11319Y5402D01*
G01X11250Y5265D01*
G01X11113Y5128D01*
G01X10976Y5062D01*
G01X10704Y5062D01*
G01X10567Y5128D01*
G01X10432Y5265D01*
G01X10364Y5402D01*
G01X10295Y5605D01*
G01X10295Y5948D01*
G01X10364Y6151D01*
G01X10432Y6288D01*
G01X10567Y6423D01*
G01X10704Y6492D01*
G01X10976Y6492D01*
G01X9437Y6492D02*
G01X9571Y6423D01*
G01X9708Y6288D01*
G01X9777Y6151D01*
G01X9845Y5948D01*
G01X9845Y5605D01*
G01X9777Y5402D01*
G01X9708Y5265D01*
G01X9571Y5128D01*
G01X9437Y5062D01*
G01X9162Y5062D01*
G01X9028Y5128D01*
G01X8890Y5265D01*
G01X8822Y5402D01*
G01X8753Y5605D01*
G01X8753Y5948D01*
G01X8822Y6151D01*
G01X8890Y6288D01*
G01X9028Y6423D01*
G01X9162Y6492D01*
G01X9437Y6492D01*
G01X8304Y6492D02*
G01X8304Y5062D01*
G01X8304Y6492D02*
G01X7692Y6492D01*
G01X7486Y6423D01*
G01X7417Y6357D01*
G01X7349Y6220D01*
G01X7349Y6083D01*
G01X7417Y5948D01*
G01X7486Y5879D01*
G01X7692Y5811D01*
G01X8304Y5811D02*
G01X7692Y5811D01*
G01X7486Y5742D01*
G01X7417Y5674D01*
G01X7349Y5536D01*
G01X7349Y5333D01*
G01X7417Y5196D01*
G01X7486Y5128D01*
G01X7692Y5062D01*
G01X8304Y5062D01*
G01X5944Y6288D02*
G01X6081Y6423D01*
G01X6287Y6492D01*
G01X6559Y6492D01*
G01X6762Y6423D01*
G01X6899Y6288D01*
G01X6899Y6151D01*
G01X6830Y6014D01*
G01X6762Y5948D01*
G01X6627Y5879D01*
G01X6218Y5742D01*
G01X6081Y5674D01*
G01X6013Y5605D01*
G01X5944Y5470D01*
G01X5944Y5265D01*
G01X6081Y5128D01*
G01X6287Y5062D01*
G01X6559Y5062D01*
G01X6762Y5128D01*
G01X6899Y5265D01*
G54D10*
G75*
G01X28793Y27864D02*
G2X27675Y29718I24183J15840D01*
G01*
G75*
G01X11419Y29743D02*
G2X10302Y27889I-25301J13986D01*
G01*
G75*
G01X27726Y17526D02*
G2X28844Y19380I25301J-13986D01*
G01*
G75*
G01X10251Y19406D02*
G2X11368Y17551I-24183J-15840D01*
G01*
G75*
G01X25694Y24689D02*
G2X25694Y25552I84J432D01*
G01*
G75*
G01X25669Y21565D02*
G2X25669Y22428I84J432D01*
G01*
G75*
G01X29580Y25552D02*
G2X29529Y25603I0J51D01*
G01*
G75*
G01X33492Y26162D02*
G2X33543Y26213I51J0D01*
G01*
G75*
G01X30825Y26340D02*
G2X30876Y26289I0J-51D01*
G01*
G75*
G01X30241Y26340D02*
G2X30266Y26314I0J-25D01*
G01*
G75*
G01X34454Y26342D02*
G2X34482Y26314I1J-27D01*
G01*
G75*
G01X29557Y26342D02*
G2X29631Y26266I-1J-75D01*
G01*
G75*
G01X26710Y31572D02*
G2X29557Y26342I-8215J-7863D01*
G01*
G75*
G01X29682Y20828D02*
G2X29631Y20879I0J51D01*
G01*
G75*
G01X31587Y22073D02*
G2X31561Y22098I0J25D01*
G01*
G75*
G01X9636Y16251D02*
G2X9649Y16251I6J665D01*
G01*
G75*
G01X9636Y29764D02*
G2X9649Y29764I6J665D01*
G01*
G75*
G01X29346Y29764D02*
G2X29359Y29764I6J665D01*
G01*
G75*
G01X29346Y16124D02*
G2X29359Y16124I6J665D01*
G01*
G75*
G01X12461Y15621D02*
G2X9379Y20739I7860J8218D01*
G01*
G75*
G01X29631Y20879D02*
G2X26784Y15649I-11063J2633D01*
G01*
G75*
G01X14493Y19406D02*
G2X14670Y16967I-58J-1230D01*
G01*
G75*
G01X14747Y30302D02*
G2X14569Y27864I-236J-1209D01*
G01*
G75*
G01X24272Y16993D02*
G2X24449Y19431I236J1209D01*
G01*
G75*
G01X24373Y27838D02*
G2X24195Y30277I58J1230D01*
G01*
G75*
G01X9463Y26568D02*
G2X12450Y31580I10935J-3122D01*
G01*
G75*
G01X10403Y23190D02*
G2X10403Y23927I368J368D01*
G01*
M00*
M02*
