G04 EAGLE Gerber RS-274X export*
G75*
%MOMM*%
%FSLAX34Y34*%
%LPD*%
%INBottom Silkscreen*%
%IPPOS*%
%AMOC8*
5,1,8,0,0,1.08239X$1,22.5*%
G01*
%ADD10C,0.025400*%
%ADD11C,0.101600*%
%ADD12C,0.203200*%


D10*
X29295Y175387D02*
X29295Y179197D01*
X30353Y179197D02*
X28236Y179197D01*
X24611Y179197D02*
X27151Y175387D01*
X24611Y175387D02*
X27151Y179197D01*
X27813Y156337D02*
X27813Y152527D01*
X27813Y156337D02*
X26755Y156337D01*
X26691Y156335D01*
X26627Y156329D01*
X26564Y156320D01*
X26502Y156306D01*
X26440Y156289D01*
X26380Y156268D01*
X26321Y156244D01*
X26263Y156216D01*
X26208Y156184D01*
X26154Y156150D01*
X26103Y156112D01*
X26053Y156071D01*
X26007Y156027D01*
X25963Y155981D01*
X25922Y155931D01*
X25884Y155880D01*
X25850Y155826D01*
X25818Y155771D01*
X25790Y155713D01*
X25766Y155654D01*
X25745Y155594D01*
X25728Y155532D01*
X25714Y155470D01*
X25705Y155407D01*
X25699Y155343D01*
X25697Y155279D01*
X25699Y155215D01*
X25705Y155151D01*
X25714Y155088D01*
X25728Y155026D01*
X25745Y154964D01*
X25766Y154904D01*
X25790Y154845D01*
X25818Y154787D01*
X25850Y154732D01*
X25884Y154678D01*
X25922Y154627D01*
X25963Y154577D01*
X26007Y154531D01*
X26053Y154487D01*
X26103Y154446D01*
X26154Y154408D01*
X26208Y154374D01*
X26263Y154342D01*
X26321Y154314D01*
X26380Y154290D01*
X26440Y154269D01*
X26502Y154252D01*
X26564Y154238D01*
X26627Y154229D01*
X26691Y154223D01*
X26755Y154221D01*
X26755Y154220D02*
X27813Y154220D01*
X26543Y154220D02*
X25696Y152527D01*
X24388Y152527D02*
X21848Y156337D01*
X24388Y156337D02*
X21848Y152527D01*
X32893Y198247D02*
X32893Y202057D01*
X31835Y202057D01*
X31771Y202055D01*
X31707Y202049D01*
X31644Y202040D01*
X31582Y202026D01*
X31520Y202009D01*
X31460Y201988D01*
X31401Y201964D01*
X31343Y201936D01*
X31288Y201904D01*
X31234Y201870D01*
X31183Y201832D01*
X31133Y201791D01*
X31087Y201747D01*
X31043Y201701D01*
X31002Y201651D01*
X30964Y201600D01*
X30930Y201546D01*
X30898Y201491D01*
X30870Y201433D01*
X30846Y201374D01*
X30825Y201314D01*
X30808Y201252D01*
X30794Y201190D01*
X30785Y201127D01*
X30779Y201063D01*
X30777Y200999D01*
X30779Y200935D01*
X30785Y200871D01*
X30794Y200808D01*
X30808Y200746D01*
X30825Y200684D01*
X30846Y200624D01*
X30870Y200565D01*
X30898Y200507D01*
X30930Y200452D01*
X30964Y200398D01*
X31002Y200347D01*
X31043Y200297D01*
X31087Y200251D01*
X31133Y200207D01*
X31183Y200166D01*
X31234Y200128D01*
X31288Y200094D01*
X31343Y200062D01*
X31401Y200034D01*
X31460Y200010D01*
X31520Y199989D01*
X31582Y199972D01*
X31644Y199958D01*
X31707Y199949D01*
X31771Y199943D01*
X31835Y199941D01*
X31835Y199940D02*
X32893Y199940D01*
X31623Y199940D02*
X30776Y198247D01*
X28108Y198247D02*
X28053Y198249D01*
X27997Y198254D01*
X27943Y198263D01*
X27889Y198276D01*
X27836Y198292D01*
X27784Y198311D01*
X27733Y198334D01*
X27685Y198360D01*
X27637Y198390D01*
X27592Y198422D01*
X27550Y198457D01*
X27509Y198495D01*
X27471Y198536D01*
X27436Y198578D01*
X27404Y198623D01*
X27374Y198671D01*
X27348Y198719D01*
X27325Y198770D01*
X27306Y198822D01*
X27290Y198875D01*
X27277Y198929D01*
X27268Y198983D01*
X27263Y199039D01*
X27261Y199094D01*
X28108Y198247D02*
X28191Y198249D01*
X28274Y198255D01*
X28356Y198264D01*
X28438Y198278D01*
X28520Y198295D01*
X28600Y198316D01*
X28679Y198341D01*
X28758Y198369D01*
X28834Y198401D01*
X28909Y198437D01*
X28983Y198475D01*
X29054Y198518D01*
X29124Y198563D01*
X29191Y198612D01*
X29256Y198664D01*
X29318Y198719D01*
X29378Y198776D01*
X29273Y201210D02*
X29271Y201265D01*
X29266Y201321D01*
X29257Y201375D01*
X29244Y201429D01*
X29228Y201482D01*
X29209Y201534D01*
X29186Y201585D01*
X29160Y201634D01*
X29130Y201681D01*
X29098Y201726D01*
X29063Y201768D01*
X29025Y201809D01*
X28984Y201847D01*
X28942Y201882D01*
X28897Y201914D01*
X28850Y201944D01*
X28801Y201970D01*
X28750Y201993D01*
X28698Y202012D01*
X28645Y202028D01*
X28591Y202041D01*
X28537Y202050D01*
X28481Y202055D01*
X28426Y202057D01*
X28426Y202058D02*
X28347Y202056D01*
X28269Y202050D01*
X28191Y202041D01*
X28114Y202027D01*
X28037Y202010D01*
X27961Y201988D01*
X27887Y201964D01*
X27813Y201935D01*
X27742Y201903D01*
X27672Y201867D01*
X27603Y201828D01*
X27537Y201786D01*
X27473Y201740D01*
X28850Y200469D02*
X28897Y200499D01*
X28942Y200532D01*
X28985Y200568D01*
X29025Y200606D01*
X29063Y200647D01*
X29098Y200690D01*
X29130Y200736D01*
X29160Y200783D01*
X29186Y200833D01*
X29209Y200884D01*
X29228Y200936D01*
X29244Y200989D01*
X29257Y201044D01*
X29266Y201099D01*
X29271Y201154D01*
X29273Y201210D01*
X27685Y199835D02*
X27638Y199805D01*
X27593Y199772D01*
X27550Y199736D01*
X27510Y199698D01*
X27472Y199657D01*
X27437Y199614D01*
X27405Y199568D01*
X27375Y199521D01*
X27349Y199471D01*
X27326Y199420D01*
X27307Y199368D01*
X27291Y199315D01*
X27278Y199260D01*
X27269Y199205D01*
X27264Y199150D01*
X27262Y199094D01*
X27685Y199835D02*
X28849Y200470D01*
X25028Y202057D02*
X25028Y198247D01*
X26087Y202057D02*
X23970Y202057D01*
X25696Y129244D02*
X26331Y129244D01*
X25696Y129244D02*
X25696Y127127D01*
X26966Y127127D01*
X27021Y127129D01*
X27077Y127134D01*
X27131Y127143D01*
X27185Y127156D01*
X27238Y127172D01*
X27290Y127191D01*
X27341Y127214D01*
X27390Y127240D01*
X27437Y127270D01*
X27482Y127302D01*
X27524Y127337D01*
X27565Y127375D01*
X27603Y127416D01*
X27638Y127458D01*
X27670Y127503D01*
X27700Y127551D01*
X27726Y127599D01*
X27749Y127650D01*
X27768Y127702D01*
X27784Y127755D01*
X27797Y127809D01*
X27806Y127863D01*
X27811Y127919D01*
X27813Y127974D01*
X27813Y130090D01*
X27811Y130148D01*
X27805Y130205D01*
X27795Y130262D01*
X27782Y130319D01*
X27764Y130374D01*
X27743Y130427D01*
X27718Y130480D01*
X27690Y130530D01*
X27658Y130578D01*
X27623Y130625D01*
X27585Y130668D01*
X27544Y130709D01*
X27501Y130747D01*
X27454Y130782D01*
X27406Y130814D01*
X27356Y130842D01*
X27303Y130867D01*
X27250Y130888D01*
X27195Y130906D01*
X27138Y130919D01*
X27081Y130929D01*
X27024Y130935D01*
X26966Y130937D01*
X25696Y130937D01*
X23912Y130937D02*
X23912Y127127D01*
X21795Y127127D02*
X23912Y130937D01*
X21795Y130937D02*
X21795Y127127D01*
X20010Y127127D02*
X20010Y130937D01*
X18952Y130937D01*
X18888Y130935D01*
X18824Y130929D01*
X18761Y130920D01*
X18699Y130906D01*
X18637Y130889D01*
X18577Y130868D01*
X18518Y130844D01*
X18460Y130816D01*
X18405Y130784D01*
X18351Y130750D01*
X18300Y130712D01*
X18250Y130671D01*
X18204Y130627D01*
X18160Y130581D01*
X18119Y130532D01*
X18081Y130480D01*
X18047Y130426D01*
X18015Y130371D01*
X17987Y130313D01*
X17963Y130254D01*
X17942Y130194D01*
X17925Y130132D01*
X17911Y130070D01*
X17902Y130007D01*
X17896Y129943D01*
X17894Y129879D01*
X17894Y128185D01*
X17896Y128121D01*
X17902Y128057D01*
X17911Y127994D01*
X17925Y127932D01*
X17942Y127870D01*
X17963Y127810D01*
X17987Y127751D01*
X18015Y127693D01*
X18047Y127638D01*
X18081Y127584D01*
X18119Y127533D01*
X18160Y127483D01*
X18204Y127437D01*
X18250Y127393D01*
X18300Y127352D01*
X18351Y127314D01*
X18405Y127280D01*
X18460Y127248D01*
X18518Y127220D01*
X18577Y127196D01*
X18637Y127175D01*
X18699Y127158D01*
X18761Y127144D01*
X18825Y127135D01*
X18888Y127129D01*
X18952Y127127D01*
X20010Y127127D01*
X269113Y120777D02*
X269113Y116967D01*
X267843Y118660D02*
X269113Y120777D01*
X267843Y118660D02*
X266573Y120777D01*
X266573Y116967D01*
X264878Y118025D02*
X264878Y119719D01*
X264876Y119783D01*
X264870Y119847D01*
X264861Y119910D01*
X264847Y119972D01*
X264830Y120034D01*
X264809Y120094D01*
X264785Y120153D01*
X264757Y120211D01*
X264725Y120266D01*
X264691Y120320D01*
X264653Y120371D01*
X264612Y120421D01*
X264568Y120467D01*
X264522Y120511D01*
X264472Y120552D01*
X264421Y120590D01*
X264367Y120624D01*
X264312Y120656D01*
X264254Y120684D01*
X264195Y120708D01*
X264135Y120729D01*
X264073Y120746D01*
X264011Y120760D01*
X263948Y120769D01*
X263884Y120775D01*
X263820Y120777D01*
X263756Y120775D01*
X263692Y120769D01*
X263629Y120760D01*
X263567Y120746D01*
X263505Y120729D01*
X263445Y120708D01*
X263386Y120684D01*
X263328Y120656D01*
X263273Y120624D01*
X263219Y120590D01*
X263168Y120552D01*
X263118Y120511D01*
X263072Y120467D01*
X263028Y120421D01*
X262987Y120371D01*
X262949Y120320D01*
X262915Y120266D01*
X262883Y120211D01*
X262855Y120153D01*
X262831Y120094D01*
X262810Y120034D01*
X262793Y119972D01*
X262779Y119910D01*
X262770Y119847D01*
X262764Y119783D01*
X262762Y119719D01*
X262761Y119719D02*
X262761Y118025D01*
X262762Y118025D02*
X262764Y117961D01*
X262770Y117897D01*
X262779Y117834D01*
X262793Y117772D01*
X262810Y117710D01*
X262831Y117650D01*
X262855Y117591D01*
X262883Y117533D01*
X262915Y117478D01*
X262949Y117424D01*
X262987Y117373D01*
X263028Y117323D01*
X263072Y117277D01*
X263118Y117233D01*
X263168Y117192D01*
X263219Y117154D01*
X263273Y117120D01*
X263328Y117088D01*
X263386Y117060D01*
X263445Y117036D01*
X263505Y117015D01*
X263567Y116998D01*
X263629Y116984D01*
X263692Y116975D01*
X263756Y116969D01*
X263820Y116967D01*
X263884Y116969D01*
X263948Y116975D01*
X264011Y116984D01*
X264073Y116998D01*
X264135Y117015D01*
X264195Y117036D01*
X264254Y117060D01*
X264312Y117088D01*
X264367Y117120D01*
X264421Y117154D01*
X264472Y117192D01*
X264522Y117233D01*
X264568Y117277D01*
X264612Y117323D01*
X264653Y117373D01*
X264691Y117424D01*
X264725Y117478D01*
X264757Y117533D01*
X264785Y117591D01*
X264809Y117650D01*
X264830Y117710D01*
X264847Y117772D01*
X264861Y117834D01*
X264870Y117897D01*
X264876Y117961D01*
X264878Y118025D01*
X260072Y116967D02*
X260017Y116969D01*
X259961Y116974D01*
X259907Y116983D01*
X259853Y116996D01*
X259800Y117012D01*
X259748Y117031D01*
X259697Y117054D01*
X259649Y117080D01*
X259601Y117110D01*
X259556Y117142D01*
X259514Y117177D01*
X259473Y117215D01*
X259435Y117256D01*
X259400Y117298D01*
X259368Y117343D01*
X259338Y117391D01*
X259312Y117439D01*
X259289Y117490D01*
X259270Y117542D01*
X259254Y117595D01*
X259241Y117649D01*
X259232Y117703D01*
X259227Y117759D01*
X259225Y117814D01*
X260072Y116967D02*
X260155Y116969D01*
X260238Y116975D01*
X260320Y116984D01*
X260402Y116998D01*
X260484Y117015D01*
X260564Y117036D01*
X260643Y117061D01*
X260722Y117089D01*
X260798Y117121D01*
X260873Y117157D01*
X260947Y117195D01*
X261018Y117238D01*
X261088Y117283D01*
X261155Y117332D01*
X261220Y117384D01*
X261282Y117439D01*
X261342Y117496D01*
X261237Y119930D02*
X261235Y119985D01*
X261230Y120041D01*
X261221Y120095D01*
X261208Y120149D01*
X261192Y120202D01*
X261173Y120254D01*
X261150Y120305D01*
X261124Y120354D01*
X261094Y120401D01*
X261062Y120446D01*
X261027Y120488D01*
X260989Y120529D01*
X260948Y120567D01*
X260906Y120602D01*
X260861Y120634D01*
X260814Y120664D01*
X260765Y120690D01*
X260714Y120713D01*
X260662Y120732D01*
X260609Y120748D01*
X260555Y120761D01*
X260501Y120770D01*
X260445Y120775D01*
X260390Y120777D01*
X260390Y120778D02*
X260311Y120776D01*
X260233Y120770D01*
X260155Y120761D01*
X260078Y120747D01*
X260001Y120730D01*
X259925Y120708D01*
X259851Y120684D01*
X259777Y120655D01*
X259706Y120623D01*
X259636Y120587D01*
X259567Y120548D01*
X259501Y120506D01*
X259437Y120460D01*
X260814Y119189D02*
X260861Y119219D01*
X260906Y119252D01*
X260949Y119288D01*
X260989Y119326D01*
X261027Y119367D01*
X261062Y119410D01*
X261094Y119456D01*
X261124Y119503D01*
X261150Y119553D01*
X261173Y119604D01*
X261192Y119656D01*
X261208Y119709D01*
X261221Y119764D01*
X261230Y119819D01*
X261235Y119874D01*
X261237Y119930D01*
X259649Y118555D02*
X259602Y118525D01*
X259557Y118492D01*
X259514Y118456D01*
X259474Y118418D01*
X259436Y118377D01*
X259401Y118334D01*
X259369Y118288D01*
X259339Y118241D01*
X259313Y118191D01*
X259290Y118140D01*
X259271Y118088D01*
X259255Y118035D01*
X259242Y117980D01*
X259233Y117925D01*
X259228Y117870D01*
X259226Y117814D01*
X259649Y118555D02*
X260813Y119190D01*
X257480Y120777D02*
X257480Y116967D01*
X257903Y116967D02*
X257057Y116967D01*
X257057Y120777D02*
X257903Y120777D01*
X267843Y157607D02*
X267788Y157609D01*
X267732Y157614D01*
X267678Y157623D01*
X267624Y157636D01*
X267571Y157652D01*
X267519Y157671D01*
X267468Y157694D01*
X267420Y157720D01*
X267372Y157750D01*
X267327Y157782D01*
X267285Y157817D01*
X267244Y157855D01*
X267206Y157896D01*
X267171Y157938D01*
X267139Y157983D01*
X267109Y158031D01*
X267083Y158079D01*
X267060Y158130D01*
X267041Y158182D01*
X267025Y158235D01*
X267012Y158289D01*
X267003Y158343D01*
X266998Y158399D01*
X266996Y158454D01*
X267843Y157607D02*
X267926Y157609D01*
X268009Y157615D01*
X268091Y157624D01*
X268173Y157638D01*
X268255Y157655D01*
X268335Y157676D01*
X268414Y157701D01*
X268493Y157729D01*
X268569Y157761D01*
X268644Y157797D01*
X268718Y157835D01*
X268789Y157878D01*
X268859Y157923D01*
X268926Y157972D01*
X268991Y158024D01*
X269053Y158079D01*
X269113Y158136D01*
X269008Y160570D02*
X269006Y160625D01*
X269001Y160681D01*
X268992Y160735D01*
X268979Y160789D01*
X268963Y160842D01*
X268944Y160894D01*
X268921Y160945D01*
X268895Y160994D01*
X268865Y161041D01*
X268833Y161086D01*
X268798Y161128D01*
X268760Y161169D01*
X268719Y161207D01*
X268677Y161242D01*
X268632Y161274D01*
X268585Y161304D01*
X268536Y161330D01*
X268485Y161353D01*
X268433Y161372D01*
X268380Y161388D01*
X268326Y161401D01*
X268272Y161410D01*
X268216Y161415D01*
X268161Y161417D01*
X268161Y161418D02*
X268082Y161416D01*
X268004Y161410D01*
X267926Y161401D01*
X267849Y161387D01*
X267772Y161370D01*
X267696Y161348D01*
X267622Y161324D01*
X267548Y161295D01*
X267477Y161263D01*
X267407Y161227D01*
X267338Y161188D01*
X267272Y161146D01*
X267208Y161100D01*
X268584Y159829D02*
X268631Y159859D01*
X268676Y159892D01*
X268719Y159928D01*
X268759Y159966D01*
X268797Y160007D01*
X268832Y160050D01*
X268864Y160096D01*
X268894Y160143D01*
X268920Y160193D01*
X268943Y160244D01*
X268962Y160296D01*
X268978Y160349D01*
X268991Y160404D01*
X269000Y160459D01*
X269005Y160514D01*
X269007Y160570D01*
X267419Y159195D02*
X267372Y159165D01*
X267327Y159132D01*
X267284Y159096D01*
X267244Y159058D01*
X267206Y159017D01*
X267171Y158974D01*
X267139Y158928D01*
X267109Y158881D01*
X267083Y158831D01*
X267060Y158780D01*
X267041Y158728D01*
X267025Y158675D01*
X267012Y158620D01*
X267003Y158565D01*
X266998Y158510D01*
X266996Y158454D01*
X267420Y159195D02*
X268584Y159830D01*
X264740Y157607D02*
X263894Y157607D01*
X264740Y157607D02*
X264795Y157609D01*
X264851Y157614D01*
X264905Y157623D01*
X264959Y157636D01*
X265012Y157652D01*
X265064Y157671D01*
X265115Y157694D01*
X265164Y157720D01*
X265211Y157750D01*
X265256Y157782D01*
X265298Y157817D01*
X265339Y157855D01*
X265377Y157896D01*
X265412Y157938D01*
X265444Y157983D01*
X265474Y158031D01*
X265500Y158079D01*
X265523Y158130D01*
X265542Y158182D01*
X265558Y158235D01*
X265571Y158289D01*
X265580Y158343D01*
X265585Y158399D01*
X265587Y158454D01*
X265587Y160570D01*
X265585Y160628D01*
X265579Y160685D01*
X265569Y160742D01*
X265556Y160799D01*
X265538Y160854D01*
X265517Y160907D01*
X265492Y160960D01*
X265464Y161010D01*
X265432Y161058D01*
X265397Y161105D01*
X265359Y161148D01*
X265318Y161189D01*
X265275Y161227D01*
X265228Y161262D01*
X265180Y161294D01*
X265130Y161322D01*
X265077Y161347D01*
X265024Y161368D01*
X264969Y161386D01*
X264912Y161399D01*
X264855Y161409D01*
X264798Y161415D01*
X264740Y161417D01*
X263894Y161417D01*
X262359Y161417D02*
X262359Y157607D01*
X262359Y159089D02*
X260243Y161417D01*
X261513Y159935D02*
X260243Y157607D01*
X27813Y105537D02*
X26543Y101727D01*
X25273Y105537D01*
X23107Y101727D02*
X22260Y101727D01*
X23107Y101727D02*
X23162Y101729D01*
X23218Y101734D01*
X23272Y101743D01*
X23326Y101756D01*
X23379Y101772D01*
X23431Y101791D01*
X23482Y101814D01*
X23531Y101840D01*
X23578Y101870D01*
X23623Y101902D01*
X23665Y101937D01*
X23706Y101975D01*
X23744Y102016D01*
X23779Y102058D01*
X23811Y102103D01*
X23841Y102151D01*
X23867Y102199D01*
X23890Y102250D01*
X23909Y102302D01*
X23925Y102355D01*
X23938Y102409D01*
X23947Y102463D01*
X23952Y102519D01*
X23954Y102574D01*
X23953Y102574D02*
X23953Y104690D01*
X23954Y104690D02*
X23952Y104748D01*
X23946Y104805D01*
X23936Y104862D01*
X23923Y104919D01*
X23905Y104974D01*
X23884Y105027D01*
X23859Y105080D01*
X23831Y105130D01*
X23799Y105178D01*
X23764Y105225D01*
X23726Y105268D01*
X23685Y105309D01*
X23642Y105347D01*
X23595Y105382D01*
X23547Y105414D01*
X23497Y105442D01*
X23444Y105467D01*
X23391Y105488D01*
X23336Y105506D01*
X23279Y105519D01*
X23222Y105529D01*
X23165Y105535D01*
X23107Y105537D01*
X22260Y105537D01*
X20059Y101727D02*
X19212Y101727D01*
X20059Y101727D02*
X20114Y101729D01*
X20170Y101734D01*
X20224Y101743D01*
X20278Y101756D01*
X20331Y101772D01*
X20383Y101791D01*
X20434Y101814D01*
X20483Y101840D01*
X20530Y101870D01*
X20575Y101902D01*
X20617Y101937D01*
X20658Y101975D01*
X20696Y102016D01*
X20731Y102058D01*
X20763Y102103D01*
X20793Y102151D01*
X20819Y102199D01*
X20842Y102250D01*
X20861Y102302D01*
X20877Y102355D01*
X20890Y102409D01*
X20899Y102463D01*
X20904Y102519D01*
X20906Y102574D01*
X20905Y102574D02*
X20905Y104690D01*
X20906Y104690D02*
X20904Y104748D01*
X20898Y104805D01*
X20888Y104862D01*
X20875Y104919D01*
X20857Y104974D01*
X20836Y105027D01*
X20811Y105080D01*
X20783Y105130D01*
X20751Y105178D01*
X20716Y105225D01*
X20678Y105268D01*
X20637Y105309D01*
X20594Y105347D01*
X20547Y105382D01*
X20499Y105414D01*
X20449Y105442D01*
X20396Y105467D01*
X20343Y105488D01*
X20288Y105506D01*
X20231Y105519D01*
X20174Y105529D01*
X20117Y105535D01*
X20059Y105537D01*
X19212Y105537D01*
X269113Y137287D02*
X269113Y141097D01*
X267843Y138980D01*
X266573Y141097D01*
X266573Y137287D01*
X264551Y137287D02*
X264551Y141097D01*
X264975Y137287D02*
X264128Y137287D01*
X264128Y141097D02*
X264975Y141097D01*
X261535Y137287D02*
X261480Y137289D01*
X261424Y137294D01*
X261370Y137303D01*
X261316Y137316D01*
X261263Y137332D01*
X261211Y137351D01*
X261160Y137374D01*
X261112Y137400D01*
X261064Y137430D01*
X261019Y137462D01*
X260977Y137497D01*
X260936Y137535D01*
X260898Y137576D01*
X260863Y137618D01*
X260831Y137663D01*
X260801Y137711D01*
X260775Y137759D01*
X260752Y137810D01*
X260733Y137862D01*
X260717Y137915D01*
X260704Y137969D01*
X260695Y138023D01*
X260690Y138079D01*
X260688Y138134D01*
X261535Y137287D02*
X261618Y137289D01*
X261701Y137295D01*
X261783Y137304D01*
X261865Y137318D01*
X261947Y137335D01*
X262027Y137356D01*
X262106Y137381D01*
X262185Y137409D01*
X262261Y137441D01*
X262336Y137477D01*
X262410Y137515D01*
X262481Y137558D01*
X262551Y137603D01*
X262618Y137652D01*
X262683Y137704D01*
X262745Y137759D01*
X262805Y137816D01*
X262700Y140250D02*
X262698Y140305D01*
X262693Y140361D01*
X262684Y140415D01*
X262671Y140469D01*
X262655Y140522D01*
X262636Y140574D01*
X262613Y140625D01*
X262587Y140674D01*
X262557Y140721D01*
X262525Y140766D01*
X262490Y140808D01*
X262452Y140849D01*
X262411Y140887D01*
X262369Y140922D01*
X262324Y140954D01*
X262277Y140984D01*
X262228Y141010D01*
X262177Y141033D01*
X262125Y141052D01*
X262072Y141068D01*
X262018Y141081D01*
X261964Y141090D01*
X261908Y141095D01*
X261853Y141097D01*
X261853Y141098D02*
X261774Y141096D01*
X261696Y141090D01*
X261618Y141081D01*
X261541Y141067D01*
X261464Y141050D01*
X261388Y141028D01*
X261314Y141004D01*
X261240Y140975D01*
X261169Y140943D01*
X261099Y140907D01*
X261030Y140868D01*
X260964Y140826D01*
X260900Y140780D01*
X262277Y139509D02*
X262324Y139539D01*
X262369Y139572D01*
X262412Y139608D01*
X262452Y139646D01*
X262490Y139687D01*
X262525Y139730D01*
X262557Y139776D01*
X262587Y139823D01*
X262613Y139873D01*
X262636Y139924D01*
X262655Y139976D01*
X262671Y140029D01*
X262684Y140084D01*
X262693Y140139D01*
X262698Y140194D01*
X262700Y140250D01*
X261112Y138875D02*
X261065Y138845D01*
X261020Y138812D01*
X260977Y138776D01*
X260937Y138738D01*
X260899Y138697D01*
X260864Y138654D01*
X260832Y138608D01*
X260802Y138561D01*
X260776Y138511D01*
X260753Y138460D01*
X260734Y138408D01*
X260718Y138355D01*
X260705Y138300D01*
X260696Y138245D01*
X260691Y138190D01*
X260689Y138134D01*
X261112Y138875D02*
X262276Y139510D01*
X259270Y140039D02*
X259270Y138345D01*
X259269Y140039D02*
X259267Y140103D01*
X259261Y140167D01*
X259252Y140230D01*
X259238Y140292D01*
X259221Y140354D01*
X259200Y140414D01*
X259176Y140473D01*
X259148Y140531D01*
X259116Y140586D01*
X259082Y140640D01*
X259044Y140691D01*
X259003Y140741D01*
X258959Y140787D01*
X258913Y140831D01*
X258863Y140872D01*
X258812Y140910D01*
X258758Y140944D01*
X258703Y140976D01*
X258645Y141004D01*
X258586Y141028D01*
X258526Y141049D01*
X258464Y141066D01*
X258402Y141080D01*
X258339Y141089D01*
X258275Y141095D01*
X258211Y141097D01*
X258147Y141095D01*
X258083Y141089D01*
X258020Y141080D01*
X257958Y141066D01*
X257896Y141049D01*
X257836Y141028D01*
X257777Y141004D01*
X257719Y140976D01*
X257664Y140944D01*
X257610Y140910D01*
X257559Y140872D01*
X257509Y140831D01*
X257463Y140787D01*
X257419Y140741D01*
X257378Y140691D01*
X257340Y140640D01*
X257306Y140586D01*
X257274Y140531D01*
X257246Y140473D01*
X257222Y140414D01*
X257201Y140354D01*
X257184Y140292D01*
X257170Y140230D01*
X257161Y140167D01*
X257155Y140103D01*
X257153Y140039D01*
X257153Y138345D01*
X257155Y138281D01*
X257161Y138217D01*
X257170Y138154D01*
X257184Y138092D01*
X257201Y138030D01*
X257222Y137970D01*
X257246Y137911D01*
X257274Y137853D01*
X257306Y137798D01*
X257340Y137744D01*
X257378Y137693D01*
X257419Y137643D01*
X257463Y137597D01*
X257509Y137553D01*
X257559Y137512D01*
X257610Y137474D01*
X257664Y137440D01*
X257719Y137408D01*
X257777Y137380D01*
X257836Y137356D01*
X257896Y137335D01*
X257958Y137318D01*
X258020Y137304D01*
X258083Y137295D01*
X258147Y137289D01*
X258211Y137287D01*
X258275Y137289D01*
X258339Y137295D01*
X258402Y137304D01*
X258464Y137318D01*
X258526Y137335D01*
X258586Y137356D01*
X258645Y137380D01*
X258703Y137408D01*
X258758Y137440D01*
X258812Y137474D01*
X258863Y137512D01*
X258913Y137553D01*
X258959Y137597D01*
X259003Y137643D01*
X259044Y137693D01*
X259082Y137744D01*
X259116Y137798D01*
X259148Y137853D01*
X259176Y137911D01*
X259200Y137970D01*
X259221Y138030D01*
X259238Y138092D01*
X259252Y138154D01*
X259261Y138217D01*
X259267Y138281D01*
X259269Y138345D01*
D11*
X110414Y21503D02*
X104188Y10877D01*
X99057Y16738D02*
X110414Y21503D01*
X101896Y17929D02*
X105744Y13533D01*
X95980Y20252D02*
X104772Y27948D01*
X100864Y24528D02*
X96589Y29412D01*
X100496Y32832D02*
X91705Y25136D01*
X87935Y29442D02*
X84514Y33350D01*
X87935Y29442D02*
X96726Y37138D01*
X93306Y41046D01*
X90253Y36648D02*
X92819Y33718D01*
X90167Y44630D02*
X81376Y36934D01*
X90167Y44630D02*
X88030Y47072D01*
X87954Y47156D01*
X87875Y47237D01*
X87793Y47316D01*
X87709Y47391D01*
X87622Y47464D01*
X87532Y47533D01*
X87441Y47599D01*
X87346Y47662D01*
X87250Y47722D01*
X87152Y47778D01*
X87052Y47831D01*
X86950Y47881D01*
X86846Y47926D01*
X86741Y47968D01*
X86634Y48007D01*
X86526Y48041D01*
X86417Y48072D01*
X86307Y48099D01*
X86196Y48123D01*
X86085Y48142D01*
X85972Y48157D01*
X85860Y48169D01*
X85747Y48176D01*
X85633Y48180D01*
X85520Y48179D01*
X85407Y48175D01*
X85294Y48167D01*
X85181Y48154D01*
X85069Y48138D01*
X84958Y48118D01*
X84847Y48094D01*
X84737Y48066D01*
X84628Y48035D01*
X84521Y47999D01*
X84414Y47960D01*
X84309Y47918D01*
X84206Y47871D01*
X84104Y47821D01*
X84004Y47768D01*
X83906Y47711D01*
X83811Y47650D01*
X83717Y47586D01*
X83625Y47520D01*
X83536Y47449D01*
X83450Y47376D01*
X83366Y47300D01*
X83285Y47221D01*
X83206Y47139D01*
X83131Y47055D01*
X83058Y46968D01*
X82989Y46878D01*
X82923Y46787D01*
X82860Y46692D01*
X82800Y46596D01*
X82744Y46498D01*
X82691Y46398D01*
X82641Y46296D01*
X82596Y46192D01*
X82554Y46087D01*
X82515Y45980D01*
X82481Y45872D01*
X82450Y45763D01*
X82423Y45653D01*
X82399Y45542D01*
X82380Y45431D01*
X82365Y45318D01*
X82353Y45206D01*
X82346Y45093D01*
X82342Y44979D01*
X82343Y44866D01*
X82347Y44753D01*
X82355Y44640D01*
X82368Y44527D01*
X82384Y44415D01*
X82404Y44304D01*
X82428Y44193D01*
X82456Y44083D01*
X82487Y43974D01*
X82523Y43866D01*
X82562Y43760D01*
X82604Y43655D01*
X82651Y43552D01*
X82701Y43450D01*
X82754Y43350D01*
X82811Y43252D01*
X82872Y43157D01*
X82936Y43063D01*
X83002Y42971D01*
X83073Y42882D01*
X83146Y42796D01*
X83146Y42797D02*
X85283Y40355D01*
X82718Y43285D02*
X77101Y41818D01*
X73597Y45821D02*
X82388Y53517D01*
X80250Y55959D01*
X80174Y56043D01*
X80095Y56124D01*
X80013Y56203D01*
X79929Y56278D01*
X79842Y56351D01*
X79752Y56420D01*
X79661Y56486D01*
X79566Y56549D01*
X79470Y56609D01*
X79372Y56665D01*
X79272Y56718D01*
X79170Y56768D01*
X79066Y56813D01*
X78961Y56855D01*
X78854Y56894D01*
X78746Y56928D01*
X78637Y56959D01*
X78527Y56986D01*
X78416Y57010D01*
X78305Y57029D01*
X78192Y57044D01*
X78080Y57056D01*
X77967Y57063D01*
X77853Y57067D01*
X77740Y57066D01*
X77627Y57062D01*
X77514Y57054D01*
X77401Y57041D01*
X77289Y57025D01*
X77178Y57005D01*
X77067Y56981D01*
X76957Y56953D01*
X76848Y56922D01*
X76741Y56886D01*
X76634Y56847D01*
X76529Y56805D01*
X76426Y56758D01*
X76324Y56708D01*
X76224Y56655D01*
X76126Y56598D01*
X76031Y56537D01*
X75937Y56473D01*
X75845Y56407D01*
X75756Y56336D01*
X75670Y56263D01*
X75586Y56187D01*
X75505Y56108D01*
X75426Y56026D01*
X75351Y55942D01*
X75278Y55855D01*
X75209Y55765D01*
X75143Y55674D01*
X75080Y55579D01*
X75020Y55483D01*
X74964Y55385D01*
X74911Y55285D01*
X74861Y55183D01*
X74816Y55079D01*
X74774Y54974D01*
X74735Y54867D01*
X74701Y54759D01*
X74670Y54650D01*
X74643Y54540D01*
X74619Y54429D01*
X74600Y54318D01*
X74585Y54205D01*
X74573Y54093D01*
X74566Y53980D01*
X74562Y53866D01*
X74563Y53753D01*
X74567Y53640D01*
X74575Y53527D01*
X74588Y53414D01*
X74604Y53302D01*
X74624Y53191D01*
X74648Y53080D01*
X74676Y52970D01*
X74707Y52861D01*
X74743Y52753D01*
X74782Y52647D01*
X74824Y52542D01*
X74871Y52439D01*
X74921Y52337D01*
X74974Y52237D01*
X75031Y52139D01*
X75092Y52044D01*
X75156Y51950D01*
X75222Y51858D01*
X75293Y51769D01*
X75366Y51683D01*
X77504Y49241D01*
X74938Y52172D02*
X69321Y50705D01*
X65850Y54669D02*
X62430Y58576D01*
X65850Y54669D02*
X74642Y62365D01*
X71221Y66272D01*
X68169Y61875D02*
X70734Y58945D01*
X68083Y69857D02*
X59292Y62161D01*
X68083Y69857D02*
X65945Y72299D01*
X65869Y72383D01*
X65790Y72464D01*
X65708Y72543D01*
X65624Y72618D01*
X65537Y72691D01*
X65447Y72760D01*
X65356Y72826D01*
X65261Y72889D01*
X65165Y72949D01*
X65067Y73005D01*
X64967Y73058D01*
X64865Y73108D01*
X64761Y73153D01*
X64656Y73195D01*
X64549Y73234D01*
X64441Y73268D01*
X64332Y73299D01*
X64222Y73326D01*
X64111Y73350D01*
X64000Y73369D01*
X63887Y73384D01*
X63775Y73396D01*
X63662Y73403D01*
X63548Y73407D01*
X63435Y73406D01*
X63322Y73402D01*
X63209Y73394D01*
X63096Y73381D01*
X62984Y73365D01*
X62873Y73345D01*
X62762Y73321D01*
X62652Y73293D01*
X62543Y73262D01*
X62436Y73226D01*
X62329Y73187D01*
X62224Y73145D01*
X62121Y73098D01*
X62019Y73048D01*
X61919Y72995D01*
X61821Y72938D01*
X61726Y72877D01*
X61632Y72813D01*
X61540Y72747D01*
X61451Y72676D01*
X61365Y72603D01*
X61281Y72527D01*
X61200Y72448D01*
X61121Y72366D01*
X61046Y72282D01*
X60973Y72195D01*
X60904Y72105D01*
X60838Y72014D01*
X60775Y71919D01*
X60715Y71823D01*
X60659Y71725D01*
X60606Y71625D01*
X60556Y71523D01*
X60511Y71419D01*
X60469Y71314D01*
X60430Y71207D01*
X60396Y71099D01*
X60365Y70990D01*
X60338Y70880D01*
X60314Y70769D01*
X60295Y70658D01*
X60280Y70545D01*
X60268Y70433D01*
X60261Y70320D01*
X60257Y70206D01*
X60258Y70093D01*
X60262Y69980D01*
X60270Y69867D01*
X60283Y69754D01*
X60299Y69642D01*
X60319Y69531D01*
X60343Y69420D01*
X60371Y69310D01*
X60402Y69201D01*
X60438Y69093D01*
X60477Y68987D01*
X60519Y68882D01*
X60566Y68779D01*
X60616Y68677D01*
X60669Y68577D01*
X60726Y68479D01*
X60787Y68384D01*
X60851Y68290D01*
X60917Y68198D01*
X60988Y68109D01*
X61061Y68023D01*
X63199Y65581D01*
X60634Y68512D02*
X55016Y67045D01*
X54254Y72843D02*
X58161Y76264D01*
X58245Y76340D01*
X58326Y76419D01*
X58405Y76501D01*
X58480Y76585D01*
X58553Y76672D01*
X58622Y76762D01*
X58688Y76853D01*
X58751Y76948D01*
X58811Y77044D01*
X58867Y77142D01*
X58920Y77242D01*
X58970Y77344D01*
X59015Y77448D01*
X59057Y77553D01*
X59096Y77660D01*
X59130Y77768D01*
X59161Y77877D01*
X59188Y77987D01*
X59212Y78098D01*
X59231Y78209D01*
X59246Y78322D01*
X59258Y78434D01*
X59265Y78547D01*
X59269Y78661D01*
X59268Y78774D01*
X59264Y78887D01*
X59256Y79000D01*
X59243Y79113D01*
X59227Y79225D01*
X59207Y79336D01*
X59183Y79447D01*
X59155Y79557D01*
X59124Y79666D01*
X59088Y79774D01*
X59049Y79880D01*
X59007Y79985D01*
X58960Y80088D01*
X58910Y80190D01*
X58857Y80290D01*
X58800Y80388D01*
X58739Y80483D01*
X58675Y80577D01*
X58609Y80669D01*
X58538Y80758D01*
X58465Y80844D01*
X58389Y80928D01*
X58310Y81009D01*
X58228Y81088D01*
X58144Y81163D01*
X58057Y81236D01*
X57967Y81305D01*
X57876Y81371D01*
X57781Y81434D01*
X57685Y81494D01*
X57587Y81550D01*
X57487Y81603D01*
X57385Y81653D01*
X57281Y81698D01*
X57176Y81740D01*
X57069Y81779D01*
X56961Y81813D01*
X56852Y81844D01*
X56742Y81871D01*
X56631Y81895D01*
X56520Y81914D01*
X56407Y81929D01*
X56295Y81941D01*
X56182Y81948D01*
X56068Y81952D01*
X55955Y81951D01*
X55842Y81947D01*
X55729Y81939D01*
X55616Y81926D01*
X55504Y81910D01*
X55393Y81890D01*
X55282Y81866D01*
X55172Y81838D01*
X55063Y81807D01*
X54955Y81771D01*
X54849Y81732D01*
X54744Y81690D01*
X54641Y81643D01*
X54539Y81593D01*
X54439Y81540D01*
X54341Y81483D01*
X54246Y81422D01*
X54152Y81358D01*
X54060Y81292D01*
X53971Y81221D01*
X53885Y81148D01*
X49978Y77727D01*
X49894Y77651D01*
X49813Y77572D01*
X49734Y77490D01*
X49659Y77406D01*
X49586Y77319D01*
X49517Y77229D01*
X49451Y77138D01*
X49388Y77043D01*
X49328Y76947D01*
X49272Y76849D01*
X49219Y76749D01*
X49169Y76647D01*
X49124Y76543D01*
X49082Y76438D01*
X49043Y76331D01*
X49009Y76223D01*
X48978Y76114D01*
X48951Y76004D01*
X48927Y75893D01*
X48908Y75782D01*
X48893Y75669D01*
X48881Y75557D01*
X48874Y75444D01*
X48870Y75330D01*
X48871Y75217D01*
X48875Y75104D01*
X48883Y74991D01*
X48896Y74878D01*
X48912Y74766D01*
X48932Y74655D01*
X48956Y74544D01*
X48984Y74434D01*
X49015Y74325D01*
X49051Y74217D01*
X49090Y74111D01*
X49132Y74006D01*
X49179Y73903D01*
X49229Y73801D01*
X49282Y73701D01*
X49339Y73603D01*
X49400Y73508D01*
X49464Y73414D01*
X49530Y73322D01*
X49601Y73233D01*
X49674Y73147D01*
X49750Y73063D01*
X49829Y72982D01*
X49911Y72903D01*
X49995Y72828D01*
X50082Y72755D01*
X50172Y72686D01*
X50263Y72620D01*
X50358Y72557D01*
X50454Y72497D01*
X50552Y72441D01*
X50652Y72388D01*
X50754Y72338D01*
X50858Y72293D01*
X50963Y72251D01*
X51070Y72212D01*
X51178Y72178D01*
X51287Y72147D01*
X51397Y72120D01*
X51508Y72096D01*
X51619Y72077D01*
X51732Y72062D01*
X51844Y72050D01*
X51957Y72043D01*
X52071Y72039D01*
X52184Y72040D01*
X52297Y72044D01*
X52410Y72052D01*
X52523Y72065D01*
X52635Y72081D01*
X52746Y72101D01*
X52857Y72125D01*
X52967Y72153D01*
X53076Y72184D01*
X53184Y72220D01*
X53290Y72259D01*
X53395Y72301D01*
X53498Y72348D01*
X53600Y72398D01*
X53700Y72451D01*
X53798Y72508D01*
X53893Y72569D01*
X53987Y72633D01*
X54079Y72699D01*
X54168Y72770D01*
X54254Y72843D01*
D12*
X73820Y69780D02*
X73820Y219780D01*
X100820Y250280D01*
X73820Y69780D02*
X100820Y39280D01*
X192820Y39280D02*
X226820Y89280D01*
X225503Y91514D01*
X224241Y93779D01*
X223034Y96074D01*
X221883Y98397D01*
X220789Y100748D01*
X219752Y103124D01*
X218772Y105525D01*
X217851Y107949D01*
X216989Y110394D01*
X216187Y112860D01*
X215444Y115344D01*
X214762Y117846D01*
X214140Y120363D01*
X213580Y122895D01*
X213081Y125439D01*
X212643Y127995D01*
X212268Y130561D01*
X211955Y133135D01*
X211704Y135715D01*
X211516Y138301D01*
X211391Y140891D01*
X211328Y143484D01*
X211328Y146076D01*
X211391Y148669D01*
X211516Y151259D01*
X211704Y153845D01*
X211955Y156425D01*
X212268Y158999D01*
X212643Y161565D01*
X213081Y164121D01*
X213580Y166665D01*
X214140Y169197D01*
X214762Y171714D01*
X215444Y174216D01*
X216187Y176700D01*
X216989Y179166D01*
X217851Y181611D01*
X218772Y184035D01*
X219752Y186436D01*
X220789Y188812D01*
X221883Y191163D01*
X223034Y193486D01*
X224241Y195781D01*
X225503Y198046D01*
X226820Y200280D01*
X192820Y250280D01*
X115320Y39280D02*
X100820Y39280D01*
X100820Y250280D02*
X111510Y250280D01*
X183130Y250280D02*
X192820Y250280D01*
X192820Y39280D02*
X183130Y39280D01*
X269951Y195576D02*
X260156Y213174D01*
X246839Y205762D02*
X256780Y187902D01*
M02*
