G04 EAGLE Gerber RS-274X export*
G75*
%MOMM*%
%FSLAX34Y34*%
%LPD*%
%INBottom Soldermask*%
%IPPOS*%
%AMOC8*
5,1,8,0,0,1.08239X$1,22.5*%
G01*
%ADD10R,3.378200X2.235200*%
%ADD11C,8.203200*%
%ADD12R,0.903200X0.803200*%
%ADD13R,0.800000X0.600000*%
%ADD14R,0.600000X0.800000*%
%ADD15R,0.803200X0.903200*%
%ADD16C,1.219200*%
%ADD17C,2.082800*%


D10*
X130810Y256540D03*
D11*
X147320Y169780D02*
X147320Y119780D01*
D10*
X163830Y33020D03*
X162560Y256540D03*
X132080Y33020D03*
D12*
X198120Y246300D03*
X198120Y236300D03*
D13*
G36*
X223061Y234717D02*
X216657Y239509D01*
X220251Y244313D01*
X226655Y239521D01*
X223061Y234717D01*
G37*
G36*
X231869Y228127D02*
X225465Y232919D01*
X229059Y237723D01*
X235463Y232931D01*
X231869Y228127D01*
G37*
G36*
X32495Y195439D02*
X28926Y188280D01*
X23557Y190957D01*
X27126Y198116D01*
X32495Y195439D01*
G37*
G36*
X37403Y205283D02*
X33834Y198124D01*
X28465Y200801D01*
X32034Y207960D01*
X37403Y205283D01*
G37*
G36*
X59085Y235472D02*
X52781Y230548D01*
X49087Y235276D01*
X55391Y240200D01*
X59085Y235472D01*
G37*
G36*
X67753Y242244D02*
X61449Y237320D01*
X57755Y242048D01*
X64059Y246972D01*
X67753Y242244D01*
G37*
X136740Y269240D03*
X147740Y269240D03*
G36*
X248106Y195584D02*
X244537Y202743D01*
X249906Y205420D01*
X253475Y198261D01*
X248106Y195584D01*
G37*
G36*
X253014Y185740D02*
X249445Y192899D01*
X254814Y195576D01*
X258383Y188417D01*
X253014Y185740D01*
G37*
D14*
X266700Y150280D03*
X266700Y139280D03*
D13*
G36*
X252497Y86819D02*
X257289Y93223D01*
X262093Y89629D01*
X257301Y83225D01*
X252497Y86819D01*
G37*
G36*
X245907Y78011D02*
X250699Y84415D01*
X255503Y80821D01*
X250711Y74417D01*
X245907Y78011D01*
G37*
G36*
X225355Y49000D02*
X231597Y54001D01*
X235349Y49318D01*
X229107Y44317D01*
X225355Y49000D01*
G37*
G36*
X216771Y42122D02*
X223013Y47123D01*
X226765Y42440D01*
X220523Y37439D01*
X216771Y42122D01*
G37*
X147740Y15240D03*
X136740Y15240D03*
G36*
X61467Y47123D02*
X67709Y42122D01*
X63957Y37439D01*
X57715Y42440D01*
X61467Y47123D01*
G37*
G36*
X52883Y54001D02*
X59125Y49000D01*
X55373Y44317D01*
X49131Y49318D01*
X52883Y54001D01*
G37*
G36*
X33808Y86776D02*
X38247Y80121D01*
X33256Y76792D01*
X28817Y83447D01*
X33808Y86776D01*
G37*
G36*
X27704Y95928D02*
X32143Y89273D01*
X27152Y85944D01*
X22713Y92599D01*
X27704Y95928D01*
G37*
D14*
X15240Y139280D03*
X15240Y150280D03*
D15*
X63580Y208280D03*
X73580Y208280D03*
X63580Y231140D03*
X73580Y231140D03*
D16*
X264160Y109220D03*
X27940Y190500D03*
X27940Y119380D03*
X264160Y129540D03*
X27940Y93980D03*
X264160Y149860D03*
D17*
X260999Y176144D03*
X239011Y215649D03*
D16*
X27940Y144780D03*
X27940Y167640D03*
M02*
