G04 EAGLE Gerber RS-274X export*
G75*
%MOMM*%
%FSLAX34Y34*%
%LPD*%
%INTop Paste*%
%IPPOS*%
%AMOC8*
5,1,8,0,0,1.08239X$1,22.5*%
G01*
%ADD10R,0.700000X0.500000*%
%ADD11R,0.500000X0.700000*%
%ADD12R,2.200000X0.600000*%
%ADD13R,0.600000X0.700000*%
%ADD14R,1.270000X0.558800*%
%ADD15R,0.558800X1.270000*%


D10*
G36*
X222961Y235417D02*
X217356Y239609D01*
X220351Y243613D01*
X225956Y239421D01*
X222961Y235417D01*
G37*
G36*
X231769Y228827D02*
X226164Y233019D01*
X229159Y237023D01*
X234764Y232831D01*
X231769Y228827D01*
G37*
G36*
X31825Y195214D02*
X28701Y188951D01*
X24227Y191182D01*
X27351Y197445D01*
X31825Y195214D01*
G37*
G36*
X36733Y205058D02*
X33609Y198795D01*
X29135Y201026D01*
X32259Y207289D01*
X36733Y205058D01*
G37*
G36*
X58383Y235558D02*
X52868Y231250D01*
X49789Y235190D01*
X55304Y239498D01*
X58383Y235558D01*
G37*
G36*
X67051Y242330D02*
X61536Y238022D01*
X58457Y241962D01*
X63972Y246270D01*
X67051Y242330D01*
G37*
X136740Y269240D03*
X147740Y269240D03*
G36*
X248331Y196255D02*
X245207Y202518D01*
X249681Y204749D01*
X252805Y198486D01*
X248331Y196255D01*
G37*
G36*
X253239Y186411D02*
X250115Y192674D01*
X254589Y194905D01*
X257713Y188642D01*
X253239Y186411D01*
G37*
D11*
X266700Y150280D03*
X266700Y139280D03*
D10*
G36*
X253197Y86919D02*
X257389Y92524D01*
X261393Y89529D01*
X257201Y83924D01*
X253197Y86919D01*
G37*
G36*
X246607Y78111D02*
X250799Y83716D01*
X254803Y80721D01*
X250611Y75116D01*
X246607Y78111D01*
G37*
G36*
X226058Y48922D02*
X231520Y53298D01*
X234646Y49396D01*
X229184Y45020D01*
X226058Y48922D01*
G37*
G36*
X217474Y42044D02*
X222936Y46420D01*
X226062Y42518D01*
X220600Y38142D01*
X217474Y42044D01*
G37*
X147740Y15240D03*
X136740Y15240D03*
G36*
X61544Y46420D02*
X67006Y42044D01*
X63880Y38142D01*
X58418Y42518D01*
X61544Y46420D01*
G37*
G36*
X52960Y53298D02*
X58422Y48922D01*
X55296Y45020D01*
X49834Y49396D01*
X52960Y53298D01*
G37*
G36*
X33669Y86082D02*
X37553Y80260D01*
X33395Y77486D01*
X29511Y83308D01*
X33669Y86082D01*
G37*
G36*
X27565Y95234D02*
X31449Y89412D01*
X27291Y86638D01*
X23407Y92460D01*
X27565Y95234D01*
G37*
D11*
X15240Y139280D03*
X15240Y150280D03*
D12*
X98780Y110490D03*
X190780Y85090D03*
X98780Y123190D03*
X98780Y97790D03*
X98780Y85090D03*
X190780Y97790D03*
X190780Y72390D03*
X190780Y59690D03*
X98780Y59690D03*
X190780Y34290D03*
X98780Y72390D03*
X98780Y46990D03*
X190780Y46990D03*
X98780Y34290D03*
X190780Y110490D03*
X190780Y123190D03*
D13*
X226140Y116840D03*
X236140Y116840D03*
X226140Y162560D03*
X236140Y162560D03*
X226140Y139700D03*
X236140Y139700D03*
D14*
X104394Y226120D03*
X104394Y218120D03*
X104394Y210120D03*
X104394Y202120D03*
X104394Y194120D03*
X104394Y186120D03*
X104394Y178120D03*
X104394Y170120D03*
D15*
X119320Y155194D03*
X127320Y155194D03*
X135320Y155194D03*
X143320Y155194D03*
X151320Y155194D03*
X159320Y155194D03*
X167320Y155194D03*
X175320Y155194D03*
D14*
X190246Y170120D03*
X190246Y178120D03*
X190246Y186120D03*
X190246Y194120D03*
X190246Y202120D03*
X190246Y210120D03*
X190246Y218120D03*
X190246Y226120D03*
D15*
X175320Y241046D03*
X167320Y241046D03*
X159320Y241046D03*
X151320Y241046D03*
X143320Y241046D03*
X135320Y241046D03*
X127320Y241046D03*
X119320Y241046D03*
M02*
