G04 EAGLE Gerber RS-274X export*
G75*
%MOMM*%
%FSLAX34Y34*%
%LPD*%
%INTop Soldermask*%
%IPPOS*%
%AMOC8*
5,1,8,0,0,1.08239X$1,22.5*%
G01*
%ADD10R,2.403200X0.803200*%
%ADD11R,0.803200X0.903200*%
%ADD12R,1.473200X0.762000*%
%ADD13R,0.762000X1.473200*%
%ADD14C,2.082800*%


D10*
X98780Y110490D03*
X190780Y85090D03*
X98780Y123190D03*
X98780Y97790D03*
X98780Y85090D03*
X190780Y97790D03*
X190780Y72390D03*
X190780Y59690D03*
X98780Y59690D03*
X190780Y34290D03*
X98780Y72390D03*
X98780Y46990D03*
X190780Y46990D03*
X98780Y34290D03*
X190780Y110490D03*
X190780Y123190D03*
D11*
X226140Y116840D03*
X236140Y116840D03*
X226140Y162560D03*
X236140Y162560D03*
X226140Y139700D03*
X236140Y139700D03*
D12*
X104394Y226120D03*
X104394Y218120D03*
X104394Y210120D03*
X104394Y202120D03*
X104394Y194120D03*
X104394Y186120D03*
X104394Y178120D03*
X104394Y170120D03*
D13*
X119320Y155194D03*
X127320Y155194D03*
X135320Y155194D03*
X143320Y155194D03*
X151320Y155194D03*
X159320Y155194D03*
X167320Y155194D03*
X175320Y155194D03*
D12*
X190246Y170120D03*
X190246Y178120D03*
X190246Y186120D03*
X190246Y194120D03*
X190246Y202120D03*
X190246Y210120D03*
X190246Y218120D03*
X190246Y226120D03*
D13*
X175320Y241046D03*
X167320Y241046D03*
X159320Y241046D03*
X151320Y241046D03*
X143320Y241046D03*
X135320Y241046D03*
X127320Y241046D03*
X119320Y241046D03*
D14*
X260999Y176144D03*
X239011Y215649D03*
M02*
