M48
;GenerationSoftware,Autodesk,EAGLE,9.2.2*%
;CreationDate,2019-03-08T06:34:37Z*%
FMAT,2
ICI,OFF
METRIC,TZ,000.000
T3C0.508
T2C1.016
%
G90
M71
T2
X23901Y21565
X26100Y17614
T3
X20726Y15850
X17272Y6706
X21336Y6706
X21742Y17069
X15443Y22758
X20930Y11786
X9957Y15037
X10770Y24994
X10770Y26619
X19507Y15850
X8534Y20930
X19507Y13614
X20930Y9347
X11786Y22352
X13005Y22352
X9754Y25806
X7315Y9347
X7925Y19710
X11786Y7315
X9144Y16256
X17678Y20726
M30